<mxfile host="app.diagrams.net" modified="2021-10-09T14:03:58.918Z" agent="5.0 (Macintosh; Intel Mac OS X 10_15_5) AppleWebKit/537.36 (KHTML, like Gecko) Chrome/81.0.4044.138 Safari/537.36" etag="lm4i2L53a9WKm5BYp3Jm" version="15.4.3" type="github">
  <diagram id="QJc5i9CVlvH6XnXGXRru" name="第 1 页">
    <mxGraphModel dx="1904" dy="876" grid="0" gridSize="10" guides="1" tooltips="1" connect="1" arrows="1" fold="0" page="0" pageScale="1" pageWidth="827" pageHeight="1169" math="0" shadow="0">
      <root>
        <mxCell id="0" />
        <mxCell id="1" parent="0" />
        <mxCell id="5cyUWBgjFF571LaAtSfy-1" value="pm_info (实商/超工信息表）" style="shape=table;startSize=30;container=1;collapsible=1;childLayout=tableLayout;fixedRows=1;rowLines=0;fontStyle=1;align=center;resizeLast=1;" parent="1" vertex="1">
          <mxGeometry x="124" y="17" width="216" height="172.75" as="geometry" />
        </mxCell>
        <mxCell id="5cyUWBgjFF571LaAtSfy-5" value="" style="shape=partialRectangle;collapsible=0;dropTarget=0;pointerEvents=0;fillColor=none;top=0;left=0;bottom=0;right=0;points=[[0,0.5],[1,0.5]];portConstraint=eastwest;" parent="5cyUWBgjFF571LaAtSfy-1" vertex="1">
          <mxGeometry y="30" width="216" height="37" as="geometry" />
        </mxCell>
        <mxCell id="5cyUWBgjFF571LaAtSfy-6" value="" style="shape=partialRectangle;connectable=0;fillColor=none;top=0;left=0;bottom=0;right=0;editable=1;overflow=hidden;" parent="5cyUWBgjFF571LaAtSfy-5" vertex="1">
          <mxGeometry width="30" height="37" as="geometry" />
        </mxCell>
        <mxCell id="5cyUWBgjFF571LaAtSfy-7" value="id" style="shape=partialRectangle;connectable=0;fillColor=none;top=0;left=0;bottom=0;right=0;align=left;spacingLeft=6;overflow=hidden;" parent="5cyUWBgjFF571LaAtSfy-5" vertex="1">
          <mxGeometry x="30" width="186" height="37" as="geometry" />
        </mxCell>
        <mxCell id="5cyUWBgjFF571LaAtSfy-8" value="" style="shape=partialRectangle;collapsible=0;dropTarget=0;pointerEvents=0;fillColor=none;top=0;left=0;bottom=0;right=0;points=[[0,0.5],[1,0.5]];portConstraint=eastwest;" parent="5cyUWBgjFF571LaAtSfy-1" vertex="1">
          <mxGeometry y="67" width="216" height="30" as="geometry" />
        </mxCell>
        <mxCell id="5cyUWBgjFF571LaAtSfy-9" value="" style="shape=partialRectangle;connectable=0;fillColor=none;top=0;left=0;bottom=0;right=0;editable=1;overflow=hidden;" parent="5cyUWBgjFF571LaAtSfy-8" vertex="1">
          <mxGeometry width="30" height="30" as="geometry" />
        </mxCell>
        <mxCell id="5cyUWBgjFF571LaAtSfy-10" value="status      信息状态" style="shape=partialRectangle;connectable=0;fillColor=none;top=0;left=0;bottom=0;right=0;align=left;spacingLeft=6;overflow=hidden;" parent="5cyUWBgjFF571LaAtSfy-8" vertex="1">
          <mxGeometry x="30" width="186" height="30" as="geometry" />
        </mxCell>
        <mxCell id="5cyUWBgjFF571LaAtSfy-11" value="" style="shape=partialRectangle;collapsible=0;dropTarget=0;pointerEvents=0;fillColor=none;top=0;left=0;bottom=0;right=0;points=[[0,0.5],[1,0.5]];portConstraint=eastwest;" parent="5cyUWBgjFF571LaAtSfy-1" vertex="1">
          <mxGeometry y="97" width="216" height="30" as="geometry" />
        </mxCell>
        <mxCell id="5cyUWBgjFF571LaAtSfy-12" value="" style="shape=partialRectangle;connectable=0;fillColor=none;top=0;left=0;bottom=0;right=0;editable=1;overflow=hidden;" parent="5cyUWBgjFF571LaAtSfy-11" vertex="1">
          <mxGeometry width="30" height="30" as="geometry" />
        </mxCell>
        <mxCell id="5cyUWBgjFF571LaAtSfy-13" value="pm_type  实商/超工类型" style="shape=partialRectangle;connectable=0;fillColor=none;top=0;left=0;bottom=0;right=0;align=left;spacingLeft=6;overflow=hidden;" parent="5cyUWBgjFF571LaAtSfy-11" vertex="1">
          <mxGeometry x="30" width="186" height="30" as="geometry" />
        </mxCell>
        <mxCell id="5cyUWBgjFF571LaAtSfy-15" value="pm_mode  实商类别" style="shape=partialRectangle;connectable=0;fillColor=none;top=0;left=0;bottom=0;right=0;align=left;spacingLeft=6;overflow=hidden;" parent="1" vertex="1">
          <mxGeometry x="154" y="144" width="186" height="30" as="geometry" />
        </mxCell>
        <mxCell id="5cyUWBgjFF571LaAtSfy-16" value="pm_enroll_record (报名记录表）" style="shape=table;startSize=30;container=1;collapsible=1;childLayout=tableLayout;fixedRows=1;rowLines=0;fontStyle=1;align=center;resizeLast=1;" parent="1" vertex="1">
          <mxGeometry x="450" y="20" width="302" height="172" as="geometry" />
        </mxCell>
        <mxCell id="5cyUWBgjFF571LaAtSfy-17" value="" style="shape=partialRectangle;collapsible=0;dropTarget=0;pointerEvents=0;fillColor=none;top=0;left=0;bottom=0;right=0;points=[[0,0.5],[1,0.5]];portConstraint=eastwest;" parent="5cyUWBgjFF571LaAtSfy-16" vertex="1">
          <mxGeometry y="30" width="302" height="29" as="geometry" />
        </mxCell>
        <mxCell id="5cyUWBgjFF571LaAtSfy-18" value="" style="shape=partialRectangle;connectable=0;fillColor=none;top=0;left=0;bottom=0;right=0;editable=1;overflow=hidden;" parent="5cyUWBgjFF571LaAtSfy-17" vertex="1">
          <mxGeometry width="30" height="29" as="geometry" />
        </mxCell>
        <mxCell id="5cyUWBgjFF571LaAtSfy-19" value="id" style="shape=partialRectangle;connectable=0;fillColor=none;top=0;left=0;bottom=0;right=0;align=left;spacingLeft=6;overflow=hidden;" parent="5cyUWBgjFF571LaAtSfy-17" vertex="1">
          <mxGeometry x="30" width="272" height="29" as="geometry" />
        </mxCell>
        <mxCell id="5cyUWBgjFF571LaAtSfy-20" value="" style="shape=partialRectangle;collapsible=0;dropTarget=0;pointerEvents=0;fillColor=none;top=0;left=0;bottom=0;right=0;points=[[0,0.5],[1,0.5]];portConstraint=eastwest;" parent="5cyUWBgjFF571LaAtSfy-16" vertex="1">
          <mxGeometry y="59" width="302" height="30" as="geometry" />
        </mxCell>
        <mxCell id="5cyUWBgjFF571LaAtSfy-21" value="" style="shape=partialRectangle;connectable=0;fillColor=none;top=0;left=0;bottom=0;right=0;editable=1;overflow=hidden;" parent="5cyUWBgjFF571LaAtSfy-20" vertex="1">
          <mxGeometry width="30" height="30" as="geometry" />
        </mxCell>
        <mxCell id="5cyUWBgjFF571LaAtSfy-22" value="enroll_id      报名记录id" style="shape=partialRectangle;connectable=0;fillColor=none;top=0;left=0;bottom=0;right=0;align=left;spacingLeft=6;overflow=hidden;" parent="5cyUWBgjFF571LaAtSfy-20" vertex="1">
          <mxGeometry x="30" width="272" height="30" as="geometry" />
        </mxCell>
        <mxCell id="5cyUWBgjFF571LaAtSfy-23" value="" style="shape=partialRectangle;collapsible=0;dropTarget=0;pointerEvents=0;fillColor=none;top=0;left=0;bottom=0;right=0;points=[[0,0.5],[1,0.5]];portConstraint=eastwest;" parent="5cyUWBgjFF571LaAtSfy-16" vertex="1">
          <mxGeometry y="89" width="302" height="30" as="geometry" />
        </mxCell>
        <mxCell id="5cyUWBgjFF571LaAtSfy-24" value="" style="shape=partialRectangle;connectable=0;fillColor=none;top=0;left=0;bottom=0;right=0;editable=1;overflow=hidden;" parent="5cyUWBgjFF571LaAtSfy-23" vertex="1">
          <mxGeometry width="30" height="30" as="geometry" />
        </mxCell>
        <mxCell id="5cyUWBgjFF571LaAtSfy-25" value="order_num  订单号" style="shape=partialRectangle;connectable=0;fillColor=none;top=0;left=0;bottom=0;right=0;align=left;spacingLeft=6;overflow=hidden;" parent="5cyUWBgjFF571LaAtSfy-23" vertex="1">
          <mxGeometry x="30" width="272" height="30" as="geometry" />
        </mxCell>
        <mxCell id="5cyUWBgjFF571LaAtSfy-38" value="ORD_ORDER_ITEM (售中订单信息）" style="shape=table;startSize=30;container=1;collapsible=1;childLayout=tableLayout;fixedRows=1;rowLines=0;fontStyle=1;align=center;resizeLast=1;" parent="1" vertex="1">
          <mxGeometry x="845" y="322" width="300" height="110" as="geometry" />
        </mxCell>
        <mxCell id="5cyUWBgjFF571LaAtSfy-39" value="" style="shape=partialRectangle;collapsible=0;dropTarget=0;pointerEvents=0;fillColor=none;top=0;left=0;bottom=0;right=0;points=[[0,0.5],[1,0.5]];portConstraint=eastwest;" parent="5cyUWBgjFF571LaAtSfy-38" vertex="1">
          <mxGeometry y="30" width="300" height="29" as="geometry" />
        </mxCell>
        <mxCell id="5cyUWBgjFF571LaAtSfy-40" value="" style="shape=partialRectangle;connectable=0;fillColor=none;top=0;left=0;bottom=0;right=0;editable=1;overflow=hidden;" parent="5cyUWBgjFF571LaAtSfy-39" vertex="1">
          <mxGeometry width="30" height="29" as="geometry" />
        </mxCell>
        <mxCell id="5cyUWBgjFF571LaAtSfy-41" value="" style="shape=partialRectangle;connectable=0;fillColor=none;top=0;left=0;bottom=0;right=0;align=left;spacingLeft=6;overflow=hidden;" parent="5cyUWBgjFF571LaAtSfy-39" vertex="1">
          <mxGeometry x="30" width="270" height="29" as="geometry" />
        </mxCell>
        <mxCell id="5cyUWBgjFF571LaAtSfy-45" value="" style="shape=partialRectangle;collapsible=0;dropTarget=0;pointerEvents=0;fillColor=none;top=0;left=0;bottom=0;right=0;points=[[0,0.5],[1,0.5]];portConstraint=eastwest;" parent="5cyUWBgjFF571LaAtSfy-38" vertex="1">
          <mxGeometry y="59" width="300" height="30" as="geometry" />
        </mxCell>
        <mxCell id="5cyUWBgjFF571LaAtSfy-46" value="" style="shape=partialRectangle;connectable=0;fillColor=none;top=0;left=0;bottom=0;right=0;editable=1;overflow=hidden;" parent="5cyUWBgjFF571LaAtSfy-45" vertex="1">
          <mxGeometry width="30" height="30" as="geometry" />
        </mxCell>
        <mxCell id="5cyUWBgjFF571LaAtSfy-47" value="ITEM_NUM  订单号" style="shape=partialRectangle;connectable=0;fillColor=none;top=0;left=0;bottom=0;right=0;align=left;spacingLeft=6;overflow=hidden;" parent="5cyUWBgjFF571LaAtSfy-45" vertex="1">
          <mxGeometry x="30" width="270" height="30" as="geometry" />
        </mxCell>
        <mxCell id="5cyUWBgjFF571LaAtSfy-49" value="pm_order_info (实力商家订单信息）" style="shape=table;startSize=22;container=1;collapsible=1;childLayout=tableLayout;fixedRows=1;rowLines=0;fontStyle=1;align=center;resizeLast=1;" parent="1" vertex="1">
          <mxGeometry x="848" y="17" width="294" height="174" as="geometry" />
        </mxCell>
        <mxCell id="5cyUWBgjFF571LaAtSfy-50" value="" style="shape=partialRectangle;collapsible=0;dropTarget=0;pointerEvents=0;fillColor=none;top=0;left=0;bottom=0;right=0;points=[[0,0.5],[1,0.5]];portConstraint=eastwest;" parent="5cyUWBgjFF571LaAtSfy-49" vertex="1">
          <mxGeometry y="22" width="294" height="29" as="geometry" />
        </mxCell>
        <mxCell id="5cyUWBgjFF571LaAtSfy-51" value="" style="shape=partialRectangle;connectable=0;fillColor=none;top=0;left=0;bottom=0;right=0;editable=1;overflow=hidden;" parent="5cyUWBgjFF571LaAtSfy-50" vertex="1">
          <mxGeometry width="30" height="29" as="geometry" />
        </mxCell>
        <mxCell id="5cyUWBgjFF571LaAtSfy-52" value="id" style="shape=partialRectangle;connectable=0;fillColor=none;top=0;left=0;bottom=0;right=0;align=left;spacingLeft=6;overflow=hidden;" parent="5cyUWBgjFF571LaAtSfy-50" vertex="1">
          <mxGeometry x="30" width="264" height="29" as="geometry" />
        </mxCell>
        <mxCell id="5cyUWBgjFF571LaAtSfy-53" value="" style="shape=partialRectangle;collapsible=0;dropTarget=0;pointerEvents=0;fillColor=none;top=0;left=0;bottom=0;right=0;points=[[0,0.5],[1,0.5]];portConstraint=eastwest;" parent="5cyUWBgjFF571LaAtSfy-49" vertex="1">
          <mxGeometry y="51" width="294" height="30" as="geometry" />
        </mxCell>
        <mxCell id="5cyUWBgjFF571LaAtSfy-54" value="" style="shape=partialRectangle;connectable=0;fillColor=none;top=0;left=0;bottom=0;right=0;editable=1;overflow=hidden;" parent="5cyUWBgjFF571LaAtSfy-53" vertex="1">
          <mxGeometry width="30" height="30" as="geometry" />
        </mxCell>
        <mxCell id="5cyUWBgjFF571LaAtSfy-55" value="userid      用户userid" style="shape=partialRectangle;connectable=0;fillColor=none;top=0;left=0;bottom=0;right=0;align=left;spacingLeft=6;overflow=hidden;" parent="5cyUWBgjFF571LaAtSfy-53" vertex="1">
          <mxGeometry x="30" width="264" height="30" as="geometry" />
        </mxCell>
        <mxCell id="5cyUWBgjFF571LaAtSfy-56" value="" style="shape=partialRectangle;collapsible=0;dropTarget=0;pointerEvents=0;fillColor=none;top=0;left=0;bottom=0;right=0;points=[[0,0.5],[1,0.5]];portConstraint=eastwest;" parent="5cyUWBgjFF571LaAtSfy-49" vertex="1">
          <mxGeometry y="81" width="294" height="30" as="geometry" />
        </mxCell>
        <mxCell id="5cyUWBgjFF571LaAtSfy-57" value="" style="shape=partialRectangle;connectable=0;fillColor=none;top=0;left=0;bottom=0;right=0;editable=1;overflow=hidden;" parent="5cyUWBgjFF571LaAtSfy-56" vertex="1">
          <mxGeometry width="30" height="30" as="geometry" />
        </mxCell>
        <mxCell id="5cyUWBgjFF571LaAtSfy-58" value="order_num  订单号" style="shape=partialRectangle;connectable=0;fillColor=none;top=0;left=0;bottom=0;right=0;align=left;spacingLeft=6;overflow=hidden;" parent="5cyUWBgjFF571LaAtSfy-56" vertex="1">
          <mxGeometry x="30" width="264" height="30" as="geometry" />
        </mxCell>
        <mxCell id="5cyUWBgjFF571LaAtSfy-59" value="is_payed   是否付款" style="shape=partialRectangle;connectable=0;fillColor=none;top=0;left=0;bottom=0;right=0;align=left;spacingLeft=6;overflow=hidden;" parent="1" vertex="1">
          <mxGeometry x="878" y="136" width="269" height="30" as="geometry" />
        </mxCell>
        <mxCell id="5cyUWBgjFF571LaAtSfy-60" value="audit_id   运营平台审核id" style="shape=partialRectangle;connectable=0;fillColor=none;top=0;left=0;bottom=0;right=0;align=left;spacingLeft=6;overflow=hidden;" parent="1" vertex="1">
          <mxGeometry x="878" y="163" width="269" height="30" as="geometry" />
        </mxCell>
        <mxCell id="5cyUWBgjFF571LaAtSfy-62" style="edgeStyle=orthogonalEdgeStyle;rounded=0;orthogonalLoop=1;jettySize=auto;html=1;" parent="1" source="5cyUWBgjFF571LaAtSfy-20" edge="1">
          <mxGeometry relative="1" as="geometry">
            <mxPoint x="846" y="175" as="targetPoint" />
            <Array as="points">
              <mxPoint x="796" y="94" />
              <mxPoint x="796" y="175" />
            </Array>
          </mxGeometry>
        </mxCell>
        <mxCell id="5cyUWBgjFF571LaAtSfy-63" value="1:1" style="edgeLabel;html=1;align=center;verticalAlign=middle;resizable=0;points=[];" parent="5cyUWBgjFF571LaAtSfy-62" vertex="1" connectable="0">
          <mxGeometry x="-0.0629" y="2" relative="1" as="geometry">
            <mxPoint as="offset" />
          </mxGeometry>
        </mxCell>
        <mxCell id="5cyUWBgjFF571LaAtSfy-64" style="edgeStyle=orthogonalEdgeStyle;rounded=0;orthogonalLoop=1;jettySize=auto;html=1;entryX=1;entryY=0.5;entryDx=0;entryDy=0;" parent="1" source="5cyUWBgjFF571LaAtSfy-56" target="5cyUWBgjFF571LaAtSfy-45" edge="1">
          <mxGeometry relative="1" as="geometry">
            <Array as="points">
              <mxPoint x="1165" y="113" />
              <mxPoint x="1165" y="396" />
            </Array>
          </mxGeometry>
        </mxCell>
        <mxCell id="5cyUWBgjFF571LaAtSfy-65" value="1:1" style="edgeLabel;html=1;align=center;verticalAlign=middle;resizable=0;points=[];" parent="5cyUWBgjFF571LaAtSfy-64" vertex="1" connectable="0">
          <mxGeometry x="-0.135" y="2" relative="1" as="geometry">
            <mxPoint as="offset" />
          </mxGeometry>
        </mxCell>
        <mxCell id="F5liAaDWDsk7o85AeB5s-1" value="方案" style="swimlane;fontStyle=1;childLayout=stackLayout;horizontal=1;startSize=26;horizontalStack=0;resizeParent=1;resizeParentMax=0;resizeLast=0;collapsible=1;marginBottom=0;align=center;fontSize=14;fillColor=#1ba1e2;strokeColor=#006EAF;fontColor=#ffffff;" parent="1" vertex="1">
          <mxGeometry x="568" y="651" width="160" height="176" as="geometry" />
        </mxCell>
        <mxCell id="F5liAaDWDsk7o85AeB5s-2" value="方案ID" style="text;spacingLeft=4;spacingRight=4;overflow=hidden;rotatable=0;points=[[0,0.5],[1,0.5]];portConstraint=eastwest;fontSize=12;" parent="F5liAaDWDsk7o85AeB5s-1" vertex="1">
          <mxGeometry y="26" width="160" height="30" as="geometry" />
        </mxCell>
        <mxCell id="F5liAaDWDsk7o85AeB5s-3" value="方案code" style="text;spacingLeft=4;spacingRight=4;overflow=hidden;rotatable=0;points=[[0,0.5],[1,0.5]];portConstraint=eastwest;fontSize=12;" parent="F5liAaDWDsk7o85AeB5s-1" vertex="1">
          <mxGeometry y="56" width="160" height="30" as="geometry" />
        </mxCell>
        <mxCell id="F5liAaDWDsk7o85AeB5s-5" value="公司名" style="text;spacingLeft=4;spacingRight=4;overflow=hidden;rotatable=0;points=[[0,0.5],[1,0.5]];portConstraint=eastwest;fontSize=12;" parent="F5liAaDWDsk7o85AeB5s-1" vertex="1">
          <mxGeometry y="86" width="160" height="30" as="geometry" />
        </mxCell>
        <mxCell id="F5liAaDWDsk7o85AeB5s-6" value="机会ID" style="text;spacingLeft=4;spacingRight=4;overflow=hidden;rotatable=0;points=[[0,0.5],[1,0.5]];portConstraint=eastwest;fontSize=12;" parent="F5liAaDWDsk7o85AeB5s-1" vertex="1">
          <mxGeometry y="116" width="160" height="30" as="geometry" />
        </mxCell>
        <mxCell id="F5liAaDWDsk7o85AeB5s-7" value="销售ID" style="text;spacingLeft=4;spacingRight=4;overflow=hidden;rotatable=0;points=[[0,0.5],[1,0.5]];portConstraint=eastwest;fontSize=12;" parent="F5liAaDWDsk7o85AeB5s-1" vertex="1">
          <mxGeometry y="146" width="160" height="30" as="geometry" />
        </mxCell>
        <mxCell id="or-_LWsJeg-sRYdWCB0p-414" style="edgeStyle=elbowEdgeStyle;rounded=0;jumpStyle=arc;orthogonalLoop=1;jettySize=auto;html=1;entryX=1;entryY=0.5;entryDx=0;entryDy=0;fontSize=12;startArrow=ERmandOne;startFill=0;endArrow=ERzeroToMany;endFill=0;" edge="1" parent="1" source="F5liAaDWDsk7o85AeB5s-13" target="or-_LWsJeg-sRYdWCB0p-409">
          <mxGeometry relative="1" as="geometry">
            <Array as="points">
              <mxPoint x="1031" y="868" />
            </Array>
          </mxGeometry>
        </mxCell>
        <mxCell id="F5liAaDWDsk7o85AeB5s-13" value="方案模块" style="swimlane;fontStyle=0;childLayout=stackLayout;horizontal=1;startSize=26;horizontalStack=0;resizeParent=1;resizeParentMax=0;resizeLast=0;collapsible=1;marginBottom=0;align=center;fontSize=14;fillColor=#1ba1e2;strokeColor=#006EAF;fontColor=#ffffff;" parent="1" vertex="1">
          <mxGeometry x="811" y="646" width="160" height="146" as="geometry" />
        </mxCell>
        <mxCell id="F5liAaDWDsk7o85AeB5s-14" value="模块ID" style="text;strokeColor=none;fillColor=none;spacingLeft=4;spacingRight=4;overflow=hidden;rotatable=0;points=[[0,0.5],[1,0.5]];portConstraint=eastwest;fontSize=12;" parent="F5liAaDWDsk7o85AeB5s-13" vertex="1">
          <mxGeometry y="26" width="160" height="30" as="geometry" />
        </mxCell>
        <mxCell id="seeRl_uvlfTcgqvtLAYv-38" value="模块code" style="text;strokeColor=none;fillColor=none;spacingLeft=4;spacingRight=4;overflow=hidden;rotatable=0;points=[[0,0.5],[1,0.5]];portConstraint=eastwest;fontSize=12;" parent="F5liAaDWDsk7o85AeB5s-13" vertex="1">
          <mxGeometry y="56" width="160" height="30" as="geometry" />
        </mxCell>
        <mxCell id="F5liAaDWDsk7o85AeB5s-15" value="方案ID" style="text;strokeColor=none;fillColor=none;spacingLeft=4;spacingRight=4;overflow=hidden;rotatable=0;points=[[0,0.5],[1,0.5]];portConstraint=eastwest;fontSize=12;" parent="F5liAaDWDsk7o85AeB5s-13" vertex="1">
          <mxGeometry y="86" width="160" height="30" as="geometry" />
        </mxCell>
        <mxCell id="seeRl_uvlfTcgqvtLAYv-37" value="物料数据" style="text;strokeColor=none;fillColor=none;spacingLeft=4;spacingRight=4;overflow=hidden;rotatable=0;points=[[0,0.5],[1,0.5]];portConstraint=eastwest;fontSize=12;" parent="F5liAaDWDsk7o85AeB5s-13" vertex="1">
          <mxGeometry y="116" width="160" height="30" as="geometry" />
        </mxCell>
        <mxCell id="F5liAaDWDsk7o85AeB5s-30" value="机会" style="swimlane;fontStyle=0;childLayout=stackLayout;horizontal=1;startSize=26;horizontalStack=0;resizeParent=1;resizeParentMax=0;resizeLast=0;collapsible=1;marginBottom=0;align=center;fontSize=14;fillColor=#f0a30a;strokeColor=#BD7000;fontColor=#000000;" parent="1" vertex="1">
          <mxGeometry x="327.63" y="651" width="160" height="146" as="geometry" />
        </mxCell>
        <mxCell id="F5liAaDWDsk7o85AeB5s-31" value="机会ID" style="text;strokeColor=none;fillColor=none;spacingLeft=4;spacingRight=4;overflow=hidden;rotatable=0;points=[[0,0.5],[1,0.5]];portConstraint=eastwest;fontSize=12;" parent="F5liAaDWDsk7o85AeB5s-30" vertex="1">
          <mxGeometry y="26" width="160" height="30" as="geometry" />
        </mxCell>
        <mxCell id="F5liAaDWDsk7o85AeB5s-32" value="客户ID" style="text;strokeColor=none;fillColor=none;spacingLeft=4;spacingRight=4;overflow=hidden;rotatable=0;points=[[0,0.5],[1,0.5]];portConstraint=eastwest;fontSize=12;" parent="F5liAaDWDsk7o85AeB5s-30" vertex="1">
          <mxGeometry y="56" width="160" height="30" as="geometry" />
        </mxCell>
        <mxCell id="F5liAaDWDsk7o85AeB5s-33" value="公司名" style="text;strokeColor=none;fillColor=none;spacingLeft=4;spacingRight=4;overflow=hidden;rotatable=0;points=[[0,0.5],[1,0.5]];portConstraint=eastwest;fontSize=12;" parent="F5liAaDWDsk7o85AeB5s-30" vertex="1">
          <mxGeometry y="86" width="160" height="30" as="geometry" />
        </mxCell>
        <mxCell id="F5liAaDWDsk7o85AeB5s-34" value="跟进销售" style="text;strokeColor=none;fillColor=none;spacingLeft=4;spacingRight=4;overflow=hidden;rotatable=0;points=[[0,0.5],[1,0.5]];portConstraint=eastwest;fontSize=12;" parent="F5liAaDWDsk7o85AeB5s-30" vertex="1">
          <mxGeometry y="116" width="160" height="30" as="geometry" />
        </mxCell>
        <mxCell id="F5liAaDWDsk7o85AeB5s-38" value="通用方案&lt;br&gt;配置在Diamond" style="shape=note;whiteSpace=wrap;html=1;backgroundOutline=1;darkOpacity=0.05;" parent="1" vertex="1">
          <mxGeometry x="690" y="568" width="166" height="50" as="geometry" />
        </mxCell>
        <mxCell id="seeRl_uvlfTcgqvtLAYv-1" value="成功案例库" style="swimlane;fontStyle=0;childLayout=stackLayout;horizontal=1;startSize=26;horizontalStack=0;resizeParent=1;resizeParentMax=0;resizeLast=0;collapsible=1;marginBottom=0;align=center;fontSize=14;fillColor=#60a917;strokeColor=#2D7600;fontColor=#ffffff;" parent="1" vertex="1">
          <mxGeometry x="1064" y="646" width="160" height="176" as="geometry" />
        </mxCell>
        <mxCell id="seeRl_uvlfTcgqvtLAYv-3" value="公司名" style="text;strokeColor=none;fillColor=none;spacingLeft=4;spacingRight=4;overflow=hidden;rotatable=0;points=[[0,0.5],[1,0.5]];portConstraint=eastwest;fontSize=12;" parent="seeRl_uvlfTcgqvtLAYv-1" vertex="1">
          <mxGeometry y="26" width="160" height="30" as="geometry" />
        </mxCell>
        <mxCell id="seeRl_uvlfTcgqvtLAYv-9" value="类目" style="text;strokeColor=none;fillColor=none;spacingLeft=4;spacingRight=4;overflow=hidden;rotatable=0;points=[[0,0.5],[1,0.5]];portConstraint=eastwest;fontSize=12;" parent="seeRl_uvlfTcgqvtLAYv-1" vertex="1">
          <mxGeometry y="56" width="160" height="30" as="geometry" />
        </mxCell>
        <mxCell id="seeRl_uvlfTcgqvtLAYv-10" value="所在城市" style="text;strokeColor=none;fillColor=none;spacingLeft=4;spacingRight=4;overflow=hidden;rotatable=0;points=[[0,0.5],[1,0.5]];portConstraint=eastwest;fontSize=12;" parent="seeRl_uvlfTcgqvtLAYv-1" vertex="1">
          <mxGeometry y="86" width="160" height="30" as="geometry" />
        </mxCell>
        <mxCell id="seeRl_uvlfTcgqvtLAYv-5" value="客户ID" style="text;strokeColor=none;fillColor=none;spacingLeft=4;spacingRight=4;overflow=hidden;rotatable=0;points=[[0,0.5],[1,0.5]];portConstraint=eastwest;fontSize=12;" parent="seeRl_uvlfTcgqvtLAYv-1" vertex="1">
          <mxGeometry y="116" width="160" height="30" as="geometry" />
        </mxCell>
        <mxCell id="seeRl_uvlfTcgqvtLAYv-7" value="案例内容" style="text;strokeColor=none;fillColor=none;spacingLeft=4;spacingRight=4;overflow=hidden;rotatable=0;points=[[0,0.5],[1,0.5]];portConstraint=eastwest;fontSize=12;" parent="seeRl_uvlfTcgqvtLAYv-1" vertex="1">
          <mxGeometry y="146" width="160" height="30" as="geometry" />
        </mxCell>
        <mxCell id="or-_LWsJeg-sRYdWCB0p-50" value="" style="rounded=0;whiteSpace=wrap;html=1;strokeWidth=1;opacity=10;fillColor=none;" vertex="1" parent="1">
          <mxGeometry x="183.5" y="1894" width="775.75" height="74" as="geometry" />
        </mxCell>
        <mxCell id="or-_LWsJeg-sRYdWCB0p-51" value="Ha3" style="rounded=0;whiteSpace=wrap;html=1;strokeWidth=1;gradientColor=none;fillColor=none;strokeColor=#BABABA;" vertex="1" parent="1">
          <mxGeometry x="243.38" y="1909.75" width="82" height="43.5" as="geometry" />
        </mxCell>
        <mxCell id="or-_LWsJeg-sRYdWCB0p-52" value="Tair" style="rounded=0;whiteSpace=wrap;html=1;strokeWidth=1;gradientColor=none;fillColor=none;strokeColor=#BABABA;" vertex="1" parent="1">
          <mxGeometry x="359.38" y="1909.75" width="82" height="43.5" as="geometry" />
        </mxCell>
        <mxCell id="or-_LWsJeg-sRYdWCB0p-53" value="Diamond" style="rounded=0;whiteSpace=wrap;html=1;strokeWidth=1;gradientColor=none;fillColor=none;strokeColor=#BABABA;" vertex="1" parent="1">
          <mxGeometry x="473.38" y="1909.75" width="82" height="43.5" as="geometry" />
        </mxCell>
        <mxCell id="or-_LWsJeg-sRYdWCB0p-54" value="ScheduleX" style="rounded=0;whiteSpace=wrap;html=1;strokeWidth=1;gradientColor=none;fillColor=none;strokeColor=#BABABA;" vertex="1" parent="1">
          <mxGeometry x="586.38" y="1909.75" width="82" height="43.5" as="geometry" />
        </mxCell>
        <mxCell id="or-_LWsJeg-sRYdWCB0p-55" value="OneService" style="rounded=0;whiteSpace=wrap;html=1;strokeWidth=1;gradientColor=none;fillColor=none;strokeColor=#BABABA;" vertex="1" parent="1">
          <mxGeometry x="700.38" y="1909.75" width="82" height="43.5" as="geometry" />
        </mxCell>
        <mxCell id="or-_LWsJeg-sRYdWCB0p-56" value="Lindorm" style="rounded=0;whiteSpace=wrap;html=1;strokeWidth=1;gradientColor=none;fillColor=none;strokeColor=#BABABA;" vertex="1" parent="1">
          <mxGeometry x="814.38" y="1909.75" width="82" height="43.5" as="geometry" />
        </mxCell>
        <mxCell id="or-_LWsJeg-sRYdWCB0p-57" value="基础&lt;br&gt;中间件" style="rounded=0;whiteSpace=wrap;html=1;strokeColor=#666666;strokeWidth=1;opacity=10;fontColor=#333333;fillColor=#BABABA;" vertex="1" parent="1">
          <mxGeometry x="119.5" y="1894" width="64" height="74" as="geometry" />
        </mxCell>
        <mxCell id="or-_LWsJeg-sRYdWCB0p-58" value="数据&lt;br&gt;服务" style="rounded=0;whiteSpace=wrap;html=1;strokeWidth=1;fillColor=#f5f5f5;fontColor=#333333;strokeColor=#C7C7C7;" vertex="1" parent="1">
          <mxGeometry x="119.25" y="1816" width="66.5" height="70" as="geometry" />
        </mxCell>
        <mxCell id="or-_LWsJeg-sRYdWCB0p-59" value="" style="rounded=0;whiteSpace=wrap;html=1;strokeWidth=1;strokeColor=#C7C7C7;" vertex="1" parent="1">
          <mxGeometry x="184.5" y="1816" width="776.75" height="70" as="geometry" />
        </mxCell>
        <mxCell id="or-_LWsJeg-sRYdWCB0p-60" value="机会引擎" style="rounded=0;whiteSpace=wrap;html=1;strokeColor=#999999;strokeWidth=1;" vertex="1" parent="1">
          <mxGeometry x="240.13" y="1834" width="102.75" height="37" as="geometry" />
        </mxCell>
        <mxCell id="or-_LWsJeg-sRYdWCB0p-63" value="业务场景" style="rounded=0;whiteSpace=wrap;html=1;strokeColor=#6c8ebf;strokeWidth=1;fillColor=#dae8fc;" vertex="1" parent="1">
          <mxGeometry x="120.75" y="1562" width="66.5" height="70" as="geometry" />
        </mxCell>
        <mxCell id="or-_LWsJeg-sRYdWCB0p-64" value="" style="rounded=0;whiteSpace=wrap;html=1;strokeColor=#999999;strokeWidth=1;" vertex="1" parent="1">
          <mxGeometry x="184.25" y="1562" width="705.75" height="70" as="geometry" />
        </mxCell>
        <mxCell id="or-_LWsJeg-sRYdWCB0p-65" value="" style="rounded=0;whiteSpace=wrap;html=1;strokeWidth=1;opacity=10;" vertex="1" parent="1">
          <mxGeometry x="896.38" y="1605" width="65.25" height="201" as="geometry" />
        </mxCell>
        <mxCell id="or-_LWsJeg-sRYdWCB0p-66" value="配置管理" style="rounded=0;whiteSpace=wrap;html=1;strokeColor=#82b366;strokeWidth=1;fillColor=#d5e8d4;" vertex="1" parent="1">
          <mxGeometry x="896" y="1562" width="65.25" height="44" as="geometry" />
        </mxCell>
        <mxCell id="or-_LWsJeg-sRYdWCB0p-67" value="场景&lt;br&gt;配置" style="rounded=0;whiteSpace=wrap;html=1;strokeColor=#999999;strokeWidth=1;" vertex="1" parent="1">
          <mxGeometry x="905.51" y="1623" width="47" height="44" as="geometry" />
        </mxCell>
        <mxCell id="or-_LWsJeg-sRYdWCB0p-68" value="筛选项配置" style="rounded=0;whiteSpace=wrap;html=1;strokeColor=#999999;strokeWidth=1;" vertex="1" parent="1">
          <mxGeometry x="905.5100000000001" y="1689" width="47" height="44" as="geometry" />
        </mxCell>
        <mxCell id="or-_LWsJeg-sRYdWCB0p-81" value="业务&lt;br&gt;&lt;br&gt;能力" style="rounded=0;whiteSpace=wrap;html=1;strokeWidth=1;fillColor=#ffe6cc;strokeColor=#d79b00;" vertex="1" parent="1">
          <mxGeometry x="119.25" y="1651" width="63.75" height="154" as="geometry" />
        </mxCell>
        <mxCell id="or-_LWsJeg-sRYdWCB0p-82" value="客户关系" style="rounded=0;whiteSpace=wrap;html=1;strokeColor=#d79b00;strokeWidth=1;fillColor=#ffe6cc;" vertex="1" parent="1">
          <mxGeometry x="193.88" y="1651" width="163.12" height="43" as="geometry" />
        </mxCell>
        <mxCell id="or-_LWsJeg-sRYdWCB0p-85" value="" style="rounded=0;whiteSpace=wrap;html=1;strokeWidth=1;gradientColor=#ffffff;strokeColor=#BABABA;" vertex="1" parent="1">
          <mxGeometry x="193.88" y="1694" width="163.12" height="112" as="geometry" />
        </mxCell>
        <mxCell id="or-_LWsJeg-sRYdWCB0p-86" value="公海列表" style="rounded=0;whiteSpace=wrap;html=1;shadow=0;glass=0;sketch=0;strokeWidth=1;strokeColor=#66B2FF;" vertex="1" parent="1">
          <mxGeometry x="197.82" y="1713" width="73.88" height="27" as="geometry" />
        </mxCell>
        <mxCell id="or-_LWsJeg-sRYdWCB0p-87" value="私海盘商" style="rounded=0;whiteSpace=wrap;html=1;shadow=0;glass=0;sketch=0;strokeWidth=1;strokeColor=#66B2FF;" vertex="1" parent="1">
          <mxGeometry x="280.82" y="1713" width="71.75" height="27" as="geometry" />
        </mxCell>
        <mxCell id="or-_LWsJeg-sRYdWCB0p-88" value="客户详情" style="rounded=0;whiteSpace=wrap;html=1;shadow=0;glass=0;sketch=0;strokeWidth=1;strokeColor=#66B2FF;" vertex="1" parent="1">
          <mxGeometry x="198.95" y="1761" width="72.75" height="27" as="geometry" />
        </mxCell>
        <mxCell id="or-_LWsJeg-sRYdWCB0p-97" value="页面&lt;br&gt;管理" style="rounded=0;whiteSpace=wrap;html=1;strokeColor=#999999;strokeWidth=1;" vertex="1" parent="1">
          <mxGeometry x="905.5100000000001" y="1751.5" width="47" height="44" as="geometry" />
        </mxCell>
        <mxCell id="or-_LWsJeg-sRYdWCB0p-99" value="小记引擎" style="rounded=0;whiteSpace=wrap;html=1;strokeColor=#999999;strokeWidth=1;" vertex="1" parent="1">
          <mxGeometry x="375.76" y="1834" width="102.75" height="37" as="geometry" />
        </mxCell>
        <mxCell id="or-_LWsJeg-sRYdWCB0p-101" value="订单引擎" style="rounded=0;whiteSpace=wrap;html=1;strokeColor=#999999;strokeWidth=1;" vertex="1" parent="1">
          <mxGeometry x="512.13" y="1834" width="102.75" height="37" as="geometry" />
        </mxCell>
        <mxCell id="or-_LWsJeg-sRYdWCB0p-102" value="OC库" style="rounded=0;whiteSpace=wrap;html=1;strokeColor=#999999;strokeWidth=1;" vertex="1" parent="1">
          <mxGeometry x="648.13" y="1834" width="102.75" height="37" as="geometry" />
        </mxCell>
        <mxCell id="or-_LWsJeg-sRYdWCB0p-103" value="指标中心" style="rounded=0;whiteSpace=wrap;html=1;strokeColor=#999999;strokeWidth=1;" vertex="1" parent="1">
          <mxGeometry x="787.13" y="1834" width="102.75" height="37" as="geometry" />
        </mxCell>
        <mxCell id="or-_LWsJeg-sRYdWCB0p-108" value="C2M" style="rounded=0;whiteSpace=wrap;html=1;strokeWidth=1;strokeColor=#6c8ebf;fillColor=#dae8fc;" vertex="1" parent="1">
          <mxGeometry x="719.75" y="1581.5" width="78" height="31" as="geometry" />
        </mxCell>
        <mxCell id="or-_LWsJeg-sRYdWCB0p-109" value="联系人" style="rounded=0;whiteSpace=wrap;html=1;shadow=0;glass=0;sketch=0;strokeWidth=1;strokeColor=#66B2FF;" vertex="1" parent="1">
          <mxGeometry x="280.32" y="1761" width="72.75" height="27" as="geometry" />
        </mxCell>
        <mxCell id="or-_LWsJeg-sRYdWCB0p-119" value="数据化管理" style="rounded=0;whiteSpace=wrap;html=1;strokeColor=#d79b00;strokeWidth=1;fillColor=#ffe6cc;" vertex="1" parent="1">
          <mxGeometry x="372" y="1650" width="163.12" height="43" as="geometry" />
        </mxCell>
        <mxCell id="or-_LWsJeg-sRYdWCB0p-120" value="" style="rounded=0;whiteSpace=wrap;html=1;strokeWidth=1;gradientColor=#ffffff;strokeColor=#BABABA;" vertex="1" parent="1">
          <mxGeometry x="372" y="1693" width="163.12" height="112" as="geometry" />
        </mxCell>
        <mxCell id="or-_LWsJeg-sRYdWCB0p-121" value="业绩简报" style="rounded=0;whiteSpace=wrap;html=1;shadow=0;glass=0;sketch=0;strokeWidth=1;strokeColor=#66B2FF;" vertex="1" parent="1">
          <mxGeometry x="375.94" y="1712" width="73.88" height="27" as="geometry" />
        </mxCell>
        <mxCell id="or-_LWsJeg-sRYdWCB0p-122" value="过程简报" style="rounded=0;whiteSpace=wrap;html=1;shadow=0;glass=0;sketch=0;strokeWidth=1;strokeColor=#66B2FF;" vertex="1" parent="1">
          <mxGeometry x="458.94" y="1712" width="71.75" height="27" as="geometry" />
        </mxCell>
        <mxCell id="or-_LWsJeg-sRYdWCB0p-123" value="资源简报" style="rounded=0;whiteSpace=wrap;html=1;shadow=0;glass=0;sketch=0;strokeWidth=1;strokeColor=#66B2FF;" vertex="1" parent="1">
          <mxGeometry x="377.07" y="1760" width="72.75" height="27" as="geometry" />
        </mxCell>
        <mxCell id="or-_LWsJeg-sRYdWCB0p-124" value="排行榜" style="rounded=0;whiteSpace=wrap;html=1;shadow=0;glass=0;sketch=0;strokeWidth=1;strokeColor=#66B2FF;" vertex="1" parent="1">
          <mxGeometry x="458.44" y="1760" width="72.75" height="27" as="geometry" />
        </mxCell>
        <mxCell id="or-_LWsJeg-sRYdWCB0p-125" value="拜访管理" style="rounded=0;whiteSpace=wrap;html=1;strokeColor=#d79b00;strokeWidth=1;fillColor=#ffe6cc;" vertex="1" parent="1">
          <mxGeometry x="550" y="1650" width="163.12" height="43" as="geometry" />
        </mxCell>
        <mxCell id="or-_LWsJeg-sRYdWCB0p-126" value="" style="rounded=0;whiteSpace=wrap;html=1;strokeWidth=1;gradientColor=#ffffff;strokeColor=#BABABA;" vertex="1" parent="1">
          <mxGeometry x="550" y="1693" width="163.12" height="112" as="geometry" />
        </mxCell>
        <mxCell id="or-_LWsJeg-sRYdWCB0p-127" value="拜访计划" style="rounded=0;whiteSpace=wrap;html=1;shadow=0;glass=0;sketch=0;strokeWidth=1;strokeColor=#66B2FF;" vertex="1" parent="1">
          <mxGeometry x="553.94" y="1712" width="73.88" height="27" as="geometry" />
        </mxCell>
        <mxCell id="or-_LWsJeg-sRYdWCB0p-128" value="跟进小记" style="rounded=0;whiteSpace=wrap;html=1;shadow=0;glass=0;sketch=0;strokeWidth=1;strokeColor=#66B2FF;" vertex="1" parent="1">
          <mxGeometry x="636.94" y="1712" width="71.75" height="27" as="geometry" />
        </mxCell>
        <mxCell id="or-_LWsJeg-sRYdWCB0p-129" value="我的小记" style="rounded=0;whiteSpace=wrap;html=1;shadow=0;glass=0;sketch=0;strokeWidth=1;strokeColor=#66B2FF;" vertex="1" parent="1">
          <mxGeometry x="555.0699999999999" y="1760" width="72.75" height="27" as="geometry" />
        </mxCell>
        <mxCell id="or-_LWsJeg-sRYdWCB0p-130" value="地图陌拜" style="rounded=0;whiteSpace=wrap;html=1;shadow=0;glass=0;sketch=0;strokeWidth=1;strokeColor=#66B2FF;" vertex="1" parent="1">
          <mxGeometry x="636.44" y="1760" width="72.75" height="27" as="geometry" />
        </mxCell>
        <mxCell id="or-_LWsJeg-sRYdWCB0p-131" value="效率工具" style="rounded=0;whiteSpace=wrap;html=1;strokeColor=#d79b00;strokeWidth=1;fillColor=#ffe6cc;" vertex="1" parent="1">
          <mxGeometry x="726.76" y="1650" width="163.12" height="43" as="geometry" />
        </mxCell>
        <mxCell id="or-_LWsJeg-sRYdWCB0p-132" value="" style="rounded=0;whiteSpace=wrap;html=1;strokeWidth=1;gradientColor=#ffffff;strokeColor=#BABABA;" vertex="1" parent="1">
          <mxGeometry x="726.76" y="1693" width="163.12" height="112" as="geometry" />
        </mxCell>
        <mxCell id="or-_LWsJeg-sRYdWCB0p-133" value="打单助手" style="rounded=0;whiteSpace=wrap;html=1;shadow=0;glass=0;sketch=0;strokeWidth=1;strokeColor=#66B2FF;" vertex="1" parent="1">
          <mxGeometry x="730.7" y="1712" width="73.88" height="27" as="geometry" />
        </mxCell>
        <mxCell id="or-_LWsJeg-sRYdWCB0p-134" value="在线客服" style="rounded=0;whiteSpace=wrap;html=1;shadow=0;glass=0;sketch=0;strokeWidth=1;strokeColor=#66B2FF;" vertex="1" parent="1">
          <mxGeometry x="813.7" y="1712" width="71.75" height="27" as="geometry" />
        </mxCell>
        <mxCell id="or-_LWsJeg-sRYdWCB0p-135" value="新增leads" style="rounded=0;whiteSpace=wrap;html=1;shadow=0;glass=0;sketch=0;strokeWidth=1;strokeColor=#66B2FF;" vertex="1" parent="1">
          <mxGeometry x="731.8299999999999" y="1760" width="72.75" height="27" as="geometry" />
        </mxCell>
        <mxCell id="or-_LWsJeg-sRYdWCB0p-136" value="异常提醒" style="rounded=0;whiteSpace=wrap;html=1;shadow=0;glass=0;sketch=0;strokeWidth=1;strokeColor=#66B2FF;" vertex="1" parent="1">
          <mxGeometry x="813.2" y="1760" width="72.75" height="27" as="geometry" />
        </mxCell>
        <mxCell id="or-_LWsJeg-sRYdWCB0p-137" value="SKA" style="rounded=0;whiteSpace=wrap;html=1;strokeWidth=1;strokeColor=#6c8ebf;fillColor=#dae8fc;" vertex="1" parent="1">
          <mxGeometry x="566.75" y="1581.5" width="78" height="31" as="geometry" />
        </mxCell>
        <mxCell id="or-_LWsJeg-sRYdWCB0p-138" value="LBD地网" style="rounded=0;whiteSpace=wrap;html=1;strokeWidth=1;strokeColor=#6c8ebf;fillColor=#dae8fc;" vertex="1" parent="1">
          <mxGeometry x="409.63" y="1581.5" width="78" height="31" as="geometry" />
        </mxCell>
        <mxCell id="or-_LWsJeg-sRYdWCB0p-139" value="超级工厂" style="rounded=0;whiteSpace=wrap;html=1;strokeWidth=1;strokeColor=#b85450;fillColor=#f8cecc;" vertex="1" parent="1">
          <mxGeometry x="256.63" y="1581.5" width="78" height="31" as="geometry" />
        </mxCell>
        <mxCell id="or-_LWsJeg-sRYdWCB0p-197" style="edgeStyle=orthogonalEdgeStyle;rounded=0;orthogonalLoop=1;jettySize=auto;html=1;entryX=0;entryY=0.5;entryDx=0;entryDy=0;" edge="1" parent="1" source="or-_LWsJeg-sRYdWCB0p-164" target="or-_LWsJeg-sRYdWCB0p-166">
          <mxGeometry relative="1" as="geometry" />
        </mxCell>
        <mxCell id="or-_LWsJeg-sRYdWCB0p-198" value="填写&lt;br&gt;产地甄选表" style="edgeLabel;html=1;align=center;verticalAlign=middle;resizable=0;points=[];" vertex="1" connectable="0" parent="or-_LWsJeg-sRYdWCB0p-197">
          <mxGeometry x="-0.1596" relative="1" as="geometry">
            <mxPoint as="offset" />
          </mxGeometry>
        </mxCell>
        <mxCell id="or-_LWsJeg-sRYdWCB0p-222" value="" style="edgeStyle=orthogonalEdgeStyle;rounded=0;orthogonalLoop=1;jettySize=auto;html=1;" edge="1" parent="1" target="or-_LWsJeg-sRYdWCB0p-219">
          <mxGeometry relative="1" as="geometry">
            <mxPoint x="102" y="2265" as="sourcePoint" />
          </mxGeometry>
        </mxCell>
        <mxCell id="or-_LWsJeg-sRYdWCB0p-164" value="商家" style="shape=umlActor;verticalLabelPosition=bottom;verticalAlign=top;html=1;outlineConnect=0;strokeColor=#d79b00;fillColor=#ffe6cc;" vertex="1" parent="1">
          <mxGeometry x="87" y="2172" width="30" height="60" as="geometry" />
        </mxCell>
        <mxCell id="or-_LWsJeg-sRYdWCB0p-193" value="" style="edgeStyle=orthogonalEdgeStyle;rounded=0;orthogonalLoop=1;jettySize=auto;html=1;" edge="1" parent="1" source="or-_LWsJeg-sRYdWCB0p-166" target="or-_LWsJeg-sRYdWCB0p-170">
          <mxGeometry relative="1" as="geometry" />
        </mxCell>
        <mxCell id="or-_LWsJeg-sRYdWCB0p-166" value="产地甄选表" style="rounded=0;whiteSpace=wrap;html=1;strokeColor=#d79b00;fillColor=#ffe6cc;" vertex="1" parent="1">
          <mxGeometry x="253.7" y="2174" width="120" height="60" as="geometry" />
        </mxCell>
        <mxCell id="or-_LWsJeg-sRYdWCB0p-171" style="edgeStyle=orthogonalEdgeStyle;rounded=0;orthogonalLoop=1;jettySize=auto;html=1;entryX=0.5;entryY=0;entryDx=0;entryDy=0;" edge="1" parent="1" source="or-_LWsJeg-sRYdWCB0p-170" target="or-_LWsJeg-sRYdWCB0p-173">
          <mxGeometry relative="1" as="geometry">
            <mxPoint x="547" y="2299" as="targetPoint" />
          </mxGeometry>
        </mxCell>
        <mxCell id="or-_LWsJeg-sRYdWCB0p-172" value="N" style="edgeLabel;html=1;align=center;verticalAlign=middle;resizable=0;points=[];" vertex="1" connectable="0" parent="or-_LWsJeg-sRYdWCB0p-171">
          <mxGeometry x="-0.2444" y="3" relative="1" as="geometry">
            <mxPoint x="-3" y="-1" as="offset" />
          </mxGeometry>
        </mxCell>
        <mxCell id="or-_LWsJeg-sRYdWCB0p-176" style="edgeStyle=orthogonalEdgeStyle;rounded=0;orthogonalLoop=1;jettySize=auto;html=1;" edge="1" parent="1" source="or-_LWsJeg-sRYdWCB0p-170">
          <mxGeometry relative="1" as="geometry">
            <mxPoint x="681" y="2204" as="targetPoint" />
          </mxGeometry>
        </mxCell>
        <mxCell id="or-_LWsJeg-sRYdWCB0p-184" value="Y" style="edgeLabel;html=1;align=center;verticalAlign=middle;resizable=0;points=[];" vertex="1" connectable="0" parent="or-_LWsJeg-sRYdWCB0p-176">
          <mxGeometry x="-0.1288" y="1" relative="1" as="geometry">
            <mxPoint as="offset" />
          </mxGeometry>
        </mxCell>
        <mxCell id="or-_LWsJeg-sRYdWCB0p-170" value="检查&lt;br&gt;是否有超工机会" style="rhombus;whiteSpace=wrap;html=1;strokeColor=#b85450;fillColor=#f8cecc;" vertex="1" parent="1">
          <mxGeometry x="484.13" y="2164" width="126" height="80" as="geometry" />
        </mxCell>
        <mxCell id="or-_LWsJeg-sRYdWCB0p-175" style="edgeStyle=orthogonalEdgeStyle;rounded=0;orthogonalLoop=1;jettySize=auto;html=1;entryX=0.5;entryY=0;entryDx=0;entryDy=0;" edge="1" parent="1" source="or-_LWsJeg-sRYdWCB0p-173" target="or-_LWsJeg-sRYdWCB0p-174">
          <mxGeometry relative="1" as="geometry" />
        </mxCell>
        <mxCell id="or-_LWsJeg-sRYdWCB0p-173" value="创建超工机会" style="rounded=0;whiteSpace=wrap;html=1;strokeColor=#b85450;fillColor=#f8cecc;" vertex="1" parent="1">
          <mxGeometry x="487.13" y="2308" width="120" height="60" as="geometry" />
        </mxCell>
        <mxCell id="or-_LWsJeg-sRYdWCB0p-189" style="edgeStyle=orthogonalEdgeStyle;rounded=0;orthogonalLoop=1;jettySize=auto;html=1;" edge="1" parent="1" source="or-_LWsJeg-sRYdWCB0p-174">
          <mxGeometry relative="1" as="geometry">
            <mxPoint x="834" y="2204" as="targetPoint" />
            <Array as="points">
              <mxPoint x="546" y="2502" />
              <mxPoint x="834" y="2502" />
            </Array>
          </mxGeometry>
        </mxCell>
        <mxCell id="or-_LWsJeg-sRYdWCB0p-174" value="根据商家所在城市，分配给对应的大区支持，如果未匹配上，兜底给霓媓" style="rounded=0;whiteSpace=wrap;html=1;strokeColor=#b85450;fillColor=#f8cecc;" vertex="1" parent="1">
          <mxGeometry x="449.38" y="2419" width="193.62" height="59" as="geometry" />
        </mxCell>
        <mxCell id="or-_LWsJeg-sRYdWCB0p-181" style="edgeStyle=orthogonalEdgeStyle;rounded=0;orthogonalLoop=1;jettySize=auto;html=1;entryX=1;entryY=0.65;entryDx=0;entryDy=0;entryPerimeter=0;" edge="1" parent="1" source="or-_LWsJeg-sRYdWCB0p-178" target="or-_LWsJeg-sRYdWCB0p-174">
          <mxGeometry relative="1" as="geometry">
            <Array as="points">
              <mxPoint x="744" y="2457" />
            </Array>
          </mxGeometry>
        </mxCell>
        <mxCell id="or-_LWsJeg-sRYdWCB0p-183" value="N" style="edgeLabel;html=1;align=center;verticalAlign=middle;resizable=0;points=[];" vertex="1" connectable="0" parent="or-_LWsJeg-sRYdWCB0p-181">
          <mxGeometry x="-0.6965" relative="1" as="geometry">
            <mxPoint x="-2" y="58" as="offset" />
          </mxGeometry>
        </mxCell>
        <mxCell id="or-_LWsJeg-sRYdWCB0p-185" style="edgeStyle=orthogonalEdgeStyle;rounded=0;orthogonalLoop=1;jettySize=auto;html=1;" edge="1" parent="1" source="or-_LWsJeg-sRYdWCB0p-178">
          <mxGeometry relative="1" as="geometry">
            <mxPoint x="865" y="2204" as="targetPoint" />
          </mxGeometry>
        </mxCell>
        <mxCell id="or-_LWsJeg-sRYdWCB0p-178" value="超工机会&lt;br&gt;是否在公海" style="rhombus;whiteSpace=wrap;html=1;strokeColor=#b85450;fillColor=#f8cecc;" vertex="1" parent="1">
          <mxGeometry x="681" y="2164" width="126" height="80" as="geometry" />
        </mxCell>
        <mxCell id="or-_LWsJeg-sRYdWCB0p-179" value="" style="rounded=0;whiteSpace=wrap;html=1;fillColor=none;strokeColor=#06080A;" vertex="1" parent="1">
          <mxGeometry x="43.76" y="2127" width="403.24" height="547" as="geometry" />
        </mxCell>
        <mxCell id="or-_LWsJeg-sRYdWCB0p-205" style="edgeStyle=orthogonalEdgeStyle;rounded=0;orthogonalLoop=1;jettySize=auto;html=1;" edge="1" parent="1" source="or-_LWsJeg-sRYdWCB0p-186">
          <mxGeometry relative="1" as="geometry">
            <mxPoint x="928" y="2291" as="targetPoint" />
          </mxGeometry>
        </mxCell>
        <mxCell id="or-_LWsJeg-sRYdWCB0p-186" value="给销售小二创建&lt;br&gt;『超工入驻申请任务』" style="rounded=0;whiteSpace=wrap;html=1;strokeColor=#b85450;fillColor=#f8cecc;" vertex="1" parent="1">
          <mxGeometry x="865" y="2172" width="126" height="60" as="geometry" />
        </mxCell>
        <mxCell id="or-_LWsJeg-sRYdWCB0p-204" value="&lt;font style=&quot;font-size: 18px&quot;&gt;商家端&lt;/font&gt;" style="rounded=0;whiteSpace=wrap;html=1;strokeColor=#000000;fillColor=#ffe6cc;" vertex="1" parent="1">
          <mxGeometry x="44" y="2067" width="404" height="60" as="geometry" />
        </mxCell>
        <mxCell id="or-_LWsJeg-sRYdWCB0p-214" style="edgeStyle=orthogonalEdgeStyle;rounded=0;orthogonalLoop=1;jettySize=auto;html=1;entryX=0.5;entryY=0;entryDx=0;entryDy=0;entryPerimeter=0;" edge="1" parent="1" source="or-_LWsJeg-sRYdWCB0p-206" target="or-_LWsJeg-sRYdWCB0p-213">
          <mxGeometry relative="1" as="geometry" />
        </mxCell>
        <mxCell id="or-_LWsJeg-sRYdWCB0p-206" value="发送&lt;br&gt;钉钉工作通知给销售" style="rounded=0;whiteSpace=wrap;html=1;strokeColor=#b85450;fillColor=#f8cecc;" vertex="1" parent="1">
          <mxGeometry x="865" y="2292" width="126" height="60" as="geometry" />
        </mxCell>
        <mxCell id="or-_LWsJeg-sRYdWCB0p-212" value="&lt;font style=&quot;font-size: 18px&quot;&gt;CRM端&lt;/font&gt;" style="rounded=0;whiteSpace=wrap;html=1;strokeColor=#050202;fillColor=#f8cecc;" vertex="1" parent="1">
          <mxGeometry x="448.06" y="2067" width="581.94" height="60" as="geometry" />
        </mxCell>
        <mxCell id="or-_LWsJeg-sRYdWCB0p-218" style="edgeStyle=orthogonalEdgeStyle;rounded=0;orthogonalLoop=1;jettySize=auto;html=1;entryX=0.421;entryY=-0.017;entryDx=0;entryDy=0;entryPerimeter=0;" edge="1" parent="1" target="or-_LWsJeg-sRYdWCB0p-215">
          <mxGeometry relative="1" as="geometry">
            <mxPoint x="928" y="2496" as="sourcePoint" />
          </mxGeometry>
        </mxCell>
        <mxCell id="or-_LWsJeg-sRYdWCB0p-213" value="小二" style="shape=umlActor;verticalLabelPosition=bottom;verticalAlign=top;html=1;outlineConnect=0;strokeColor=#b85450;fillColor=#f8cecc;" vertex="1" parent="1">
          <mxGeometry x="913" y="2414" width="30" height="60" as="geometry" />
        </mxCell>
        <mxCell id="or-_LWsJeg-sRYdWCB0p-229" style="edgeStyle=orthogonalEdgeStyle;rounded=0;orthogonalLoop=1;jettySize=auto;html=1;entryX=0.5;entryY=1;entryDx=0;entryDy=0;" edge="1" parent="1" source="or-_LWsJeg-sRYdWCB0p-215" target="or-_LWsJeg-sRYdWCB0p-219">
          <mxGeometry relative="1" as="geometry" />
        </mxCell>
        <mxCell id="or-_LWsJeg-sRYdWCB0p-230" value="审核通过" style="edgeLabel;html=1;align=center;verticalAlign=middle;resizable=0;points=[];" vertex="1" connectable="0" parent="or-_LWsJeg-sRYdWCB0p-229">
          <mxGeometry x="-0.2784" y="-3" relative="1" as="geometry">
            <mxPoint as="offset" />
          </mxGeometry>
        </mxCell>
        <mxCell id="or-_LWsJeg-sRYdWCB0p-215" value="审核任务，&lt;br&gt;并帮&lt;span style=&quot;font-size: 11px&quot;&gt;商家选择会员套餐&lt;/span&gt;" style="rounded=0;whiteSpace=wrap;html=1;strokeColor=#b85450;fillColor=#f8cecc;" vertex="1" parent="1">
          <mxGeometry x="875" y="2571" width="126" height="60" as="geometry" />
        </mxCell>
        <mxCell id="or-_LWsJeg-sRYdWCB0p-227" style="edgeStyle=orthogonalEdgeStyle;rounded=0;orthogonalLoop=1;jettySize=auto;html=1;" edge="1" parent="1" source="or-_LWsJeg-sRYdWCB0p-219">
          <mxGeometry relative="1" as="geometry">
            <mxPoint x="184" y="2349" as="targetPoint" />
          </mxGeometry>
        </mxCell>
        <mxCell id="or-_LWsJeg-sRYdWCB0p-219" value="下单" style="rounded=0;whiteSpace=wrap;html=1;strokeColor=#d79b00;fillColor=#ffe6cc;" vertex="1" parent="1">
          <mxGeometry x="64.75" y="2319" width="74.5" height="60" as="geometry" />
        </mxCell>
        <mxCell id="or-_LWsJeg-sRYdWCB0p-228" style="edgeStyle=orthogonalEdgeStyle;rounded=0;orthogonalLoop=1;jettySize=auto;html=1;entryX=0;entryY=0.5;entryDx=0;entryDy=0;" edge="1" parent="1" source="or-_LWsJeg-sRYdWCB0p-225" target="or-_LWsJeg-sRYdWCB0p-226">
          <mxGeometry relative="1" as="geometry" />
        </mxCell>
        <mxCell id="or-_LWsJeg-sRYdWCB0p-225" value="付款" style="rounded=0;whiteSpace=wrap;html=1;strokeColor=#d79b00;fillColor=#ffe6cc;" vertex="1" parent="1">
          <mxGeometry x="187.25" y="2319" width="74.5" height="60" as="geometry" />
        </mxCell>
        <mxCell id="or-_LWsJeg-sRYdWCB0p-226" value="认证" style="rounded=0;whiteSpace=wrap;html=1;strokeColor=#d79b00;fillColor=#ffe6cc;" vertex="1" parent="1">
          <mxGeometry x="314" y="2319" width="74.5" height="60" as="geometry" />
        </mxCell>
        <mxCell id="or-_LWsJeg-sRYdWCB0p-231" value="" style="rounded=0;whiteSpace=wrap;html=1;fillColor=none;strokeColor=#06080A;" vertex="1" parent="1">
          <mxGeometry x="447" y="2127" width="583" height="547" as="geometry" />
        </mxCell>
        <mxCell id="or-_LWsJeg-sRYdWCB0p-232" value="&lt;font style=&quot;font-size: 12px&quot;&gt;106800&amp;nbsp; or 126800 ?&lt;/font&gt;" style="text;html=1;strokeColor=none;fillColor=none;align=center;verticalAlign=middle;whiteSpace=wrap;rounded=0;fontSize=18;" vertex="1" parent="1">
          <mxGeometry x="841.5" y="2633" width="193" height="30" as="geometry" />
        </mxCell>
        <mxCell id="or-_LWsJeg-sRYdWCB0p-240" style="edgeStyle=orthogonalEdgeStyle;rounded=0;orthogonalLoop=1;jettySize=auto;html=1;fontSize=12;" edge="1" parent="1" source="or-_LWsJeg-sRYdWCB0p-233" target="or-_LWsJeg-sRYdWCB0p-235">
          <mxGeometry relative="1" as="geometry" />
        </mxCell>
        <mxCell id="or-_LWsJeg-sRYdWCB0p-243" value="访问" style="edgeLabel;html=1;align=center;verticalAlign=middle;resizable=0;points=[];fontSize=12;" vertex="1" connectable="0" parent="or-_LWsJeg-sRYdWCB0p-240">
          <mxGeometry x="-0.0377" y="2" relative="1" as="geometry">
            <mxPoint as="offset" />
          </mxGeometry>
        </mxCell>
        <mxCell id="or-_LWsJeg-sRYdWCB0p-233" value="小二" style="shape=umlActor;verticalLabelPosition=bottom;verticalAlign=top;html=1;outlineConnect=0;fontSize=12;strokeColor=#C73500;fillColor=#fa6800;fontColor=#000000;" vertex="1" parent="1">
          <mxGeometry x="51" y="2926" width="30" height="60" as="geometry" />
        </mxCell>
        <mxCell id="or-_LWsJeg-sRYdWCB0p-237" style="edgeStyle=orthogonalEdgeStyle;rounded=0;orthogonalLoop=1;jettySize=auto;html=1;fontSize=12;" edge="1" parent="1" source="or-_LWsJeg-sRYdWCB0p-235" target="or-_LWsJeg-sRYdWCB0p-236">
          <mxGeometry relative="1" as="geometry" />
        </mxCell>
        <mxCell id="or-_LWsJeg-sRYdWCB0p-246" value="查看&lt;br&gt;打单助手" style="edgeLabel;html=1;align=center;verticalAlign=middle;resizable=0;points=[];fontSize=12;" vertex="1" connectable="0" parent="or-_LWsJeg-sRYdWCB0p-237">
          <mxGeometry x="0.2244" y="2" relative="1" as="geometry">
            <mxPoint as="offset" />
          </mxGeometry>
        </mxCell>
        <mxCell id="or-_LWsJeg-sRYdWCB0p-238" style="edgeStyle=orthogonalEdgeStyle;rounded=0;orthogonalLoop=1;jettySize=auto;html=1;fontSize=12;" edge="1" parent="1" source="or-_LWsJeg-sRYdWCB0p-235">
          <mxGeometry relative="1" as="geometry">
            <mxPoint x="247" y="3060" as="targetPoint" />
          </mxGeometry>
        </mxCell>
        <mxCell id="or-_LWsJeg-sRYdWCB0p-244" value="点击某个客户" style="edgeLabel;html=1;align=center;verticalAlign=middle;resizable=0;points=[];fontSize=12;" vertex="1" connectable="0" parent="or-_LWsJeg-sRYdWCB0p-238">
          <mxGeometry x="-0.0541" y="1" relative="1" as="geometry">
            <mxPoint as="offset" />
          </mxGeometry>
        </mxCell>
        <mxCell id="or-_LWsJeg-sRYdWCB0p-235" value="私海列表" style="rounded=0;whiteSpace=wrap;html=1;fontSize=12;" vertex="1" parent="1">
          <mxGeometry x="187" y="2926" width="120" height="60" as="geometry" />
        </mxCell>
        <mxCell id="or-_LWsJeg-sRYdWCB0p-247" value="分享&lt;br&gt;打单助手" style="edgeStyle=orthogonalEdgeStyle;rounded=0;orthogonalLoop=1;jettySize=auto;html=1;fontSize=12;" edge="1" parent="1" source="or-_LWsJeg-sRYdWCB0p-236">
          <mxGeometry relative="1" as="geometry">
            <mxPoint x="757" y="2956" as="targetPoint" />
          </mxGeometry>
        </mxCell>
        <mxCell id="or-_LWsJeg-sRYdWCB0p-236" value="打单助手" style="rounded=0;whiteSpace=wrap;html=1;fontSize=12;" vertex="1" parent="1">
          <mxGeometry x="507.82" y="2926" width="120" height="60" as="geometry" />
        </mxCell>
        <mxCell id="or-_LWsJeg-sRYdWCB0p-245" style="edgeStyle=orthogonalEdgeStyle;rounded=0;orthogonalLoop=1;jettySize=auto;html=1;fontSize=12;" edge="1" parent="1" source="or-_LWsJeg-sRYdWCB0p-239">
          <mxGeometry relative="1" as="geometry">
            <mxPoint x="359" y="2955" as="targetPoint" />
          </mxGeometry>
        </mxCell>
        <mxCell id="or-_LWsJeg-sRYdWCB0p-239" value="客户详情页" style="rounded=0;whiteSpace=wrap;html=1;fontSize=12;" vertex="1" parent="1">
          <mxGeometry x="186" y="3060" width="120" height="60" as="geometry" />
        </mxCell>
        <mxCell id="or-_LWsJeg-sRYdWCB0p-249" style="edgeStyle=orthogonalEdgeStyle;rounded=0;orthogonalLoop=1;jettySize=auto;html=1;fontSize=12;" edge="1" parent="1">
          <mxGeometry relative="1" as="geometry">
            <mxPoint x="787" y="3174" as="targetPoint" />
            <mxPoint x="787" y="3009" as="sourcePoint" />
          </mxGeometry>
        </mxCell>
        <mxCell id="or-_LWsJeg-sRYdWCB0p-251" value="查看超级工厂介绍页" style="edgeLabel;html=1;align=center;verticalAlign=middle;resizable=0;points=[];fontSize=12;" vertex="1" connectable="0" parent="or-_LWsJeg-sRYdWCB0p-249">
          <mxGeometry x="-0.0485" relative="1" as="geometry">
            <mxPoint y="-1" as="offset" />
          </mxGeometry>
        </mxCell>
        <mxCell id="or-_LWsJeg-sRYdWCB0p-248" value="商家" style="shape=umlActor;verticalLabelPosition=bottom;verticalAlign=top;html=1;outlineConnect=0;fontSize=12;strokeColor=#ae4132;fillColor=#fad9d5;" vertex="1" parent="1">
          <mxGeometry x="772" y="2922" width="30" height="60" as="geometry" />
        </mxCell>
        <mxCell id="or-_LWsJeg-sRYdWCB0p-254" style="edgeStyle=orthogonalEdgeStyle;rounded=0;orthogonalLoop=1;jettySize=auto;html=1;fontSize=12;" edge="1" parent="1" source="or-_LWsJeg-sRYdWCB0p-250">
          <mxGeometry relative="1" as="geometry">
            <mxPoint x="70" y="3007" as="targetPoint" />
            <Array as="points">
              <mxPoint x="787" y="3354" />
              <mxPoint x="70" y="3354" />
            </Array>
          </mxGeometry>
        </mxCell>
        <mxCell id="or-_LWsJeg-sRYdWCB0p-255" value="触发&lt;br&gt;商家查看打单助手的钉钉通知给销售" style="edgeLabel;html=1;align=center;verticalAlign=middle;resizable=0;points=[];fontSize=12;" vertex="1" connectable="0" parent="or-_LWsJeg-sRYdWCB0p-254">
          <mxGeometry x="-0.3144" y="3" relative="1" as="geometry">
            <mxPoint x="-51" y="-3" as="offset" />
          </mxGeometry>
        </mxCell>
        <mxCell id="or-_LWsJeg-sRYdWCB0p-258" style="rounded=0;orthogonalLoop=1;jettySize=auto;html=1;fontSize=12;" edge="1" parent="1" source="or-_LWsJeg-sRYdWCB0p-250">
          <mxGeometry relative="1" as="geometry">
            <mxPoint x="650" y="3181" as="targetPoint" />
          </mxGeometry>
        </mxCell>
        <mxCell id="or-_LWsJeg-sRYdWCB0p-266" style="edgeStyle=none;rounded=0;orthogonalLoop=1;jettySize=auto;html=1;entryX=1;entryY=0.5;entryDx=0;entryDy=0;fontSize=12;" edge="1" parent="1" source="or-_LWsJeg-sRYdWCB0p-250" target="or-_LWsJeg-sRYdWCB0p-265">
          <mxGeometry relative="1" as="geometry" />
        </mxCell>
        <mxCell id="or-_LWsJeg-sRYdWCB0p-250" value="打单助手分享页" style="rounded=0;whiteSpace=wrap;html=1;fontSize=12;" vertex="1" parent="1">
          <mxGeometry x="726.76" y="3176" width="120" height="60" as="geometry" />
        </mxCell>
        <mxCell id="or-_LWsJeg-sRYdWCB0p-275" style="edgeStyle=orthogonalEdgeStyle;rounded=0;orthogonalLoop=1;jettySize=auto;html=1;fontSize=12;" edge="1" parent="1" source="or-_LWsJeg-sRYdWCB0p-264">
          <mxGeometry relative="1" as="geometry">
            <mxPoint x="70" y="3012" as="targetPoint" />
          </mxGeometry>
        </mxCell>
        <mxCell id="or-_LWsJeg-sRYdWCB0p-264" value="电话咨询" style="rounded=0;whiteSpace=wrap;html=1;fontSize=12;" vertex="1" parent="1">
          <mxGeometry x="530.6899999999999" y="3158" width="118.87" height="46" as="geometry" />
        </mxCell>
        <mxCell id="or-_LWsJeg-sRYdWCB0p-276" style="edgeStyle=orthogonalEdgeStyle;rounded=0;orthogonalLoop=1;jettySize=auto;html=1;fontSize=12;" edge="1" parent="1" source="or-_LWsJeg-sRYdWCB0p-265">
          <mxGeometry relative="1" as="geometry">
            <mxPoint x="70.11764705882365" y="3021.1176470588234" as="targetPoint" />
          </mxGeometry>
        </mxCell>
        <mxCell id="or-_LWsJeg-sRYdWCB0p-278" value="触发钉钉通知" style="edgeLabel;html=1;align=center;verticalAlign=middle;resizable=0;points=[];fontSize=12;" vertex="1" connectable="0" parent="or-_LWsJeg-sRYdWCB0p-276">
          <mxGeometry x="-0.3145" relative="1" as="geometry">
            <mxPoint x="-1" as="offset" />
          </mxGeometry>
        </mxCell>
        <mxCell id="or-_LWsJeg-sRYdWCB0p-265" value="让销售上门讲解" style="rounded=0;whiteSpace=wrap;html=1;fontSize=12;" vertex="1" parent="1">
          <mxGeometry x="530.6899999999999" y="3236" width="118.87" height="46" as="geometry" />
        </mxCell>
        <mxCell id="or-_LWsJeg-sRYdWCB0p-279" value="" style="rounded=0;whiteSpace=wrap;html=1;strokeWidth=1;opacity=10;fillColor=none;" vertex="1" parent="1">
          <mxGeometry x="130.37" y="3764" width="512.63" height="74" as="geometry" />
        </mxCell>
        <mxCell id="or-_LWsJeg-sRYdWCB0p-280" value="生意参谋" style="rounded=0;whiteSpace=wrap;html=1;strokeWidth=1;gradientColor=none;fillColor=none;strokeColor=#BABABA;" vertex="1" parent="1">
          <mxGeometry x="512.1300000000001" y="3779.25" width="82" height="43.5" as="geometry" />
        </mxCell>
        <mxCell id="or-_LWsJeg-sRYdWCB0p-281" value="DA" style="rounded=0;whiteSpace=wrap;html=1;strokeWidth=1;gradientColor=none;fillColor=none;strokeColor=#BABABA;" vertex="1" parent="1">
          <mxGeometry x="163.24" y="3779.25" width="60" height="43.5" as="geometry" />
        </mxCell>
        <mxCell id="or-_LWsJeg-sRYdWCB0p-282" value="算法" style="rounded=0;whiteSpace=wrap;html=1;strokeWidth=1;gradientColor=none;fillColor=none;strokeColor=#BABABA;" vertex="1" parent="1">
          <mxGeometry x="246.62" y="3779.25" width="58.62" height="43.5" as="geometry" />
        </mxCell>
        <mxCell id="or-_LWsJeg-sRYdWCB0p-283" value="机会表" style="rounded=0;whiteSpace=wrap;html=1;strokeWidth=1;gradientColor=none;fillColor=none;strokeColor=#BABABA;" vertex="1" parent="1">
          <mxGeometry x="330.87" y="3779.25" width="58.37" height="43.5" as="geometry" />
        </mxCell>
        <mxCell id="or-_LWsJeg-sRYdWCB0p-286" value="数据&lt;br&gt;来源" style="rounded=0;whiteSpace=wrap;html=1;strokeColor=#666666;strokeWidth=1;opacity=10;fontColor=#333333;fillColor=#BABABA;" vertex="1" parent="1">
          <mxGeometry x="66.36999999999999" y="3764" width="64" height="74" as="geometry" />
        </mxCell>
        <mxCell id="or-_LWsJeg-sRYdWCB0p-287" value="数据&lt;br&gt;聚合" style="rounded=0;whiteSpace=wrap;html=1;strokeWidth=1;fillColor=#f5f5f5;fontColor=#333333;strokeColor=#C7C7C7;" vertex="1" parent="1">
          <mxGeometry x="64.75" y="3687" width="66.5" height="70" as="geometry" />
        </mxCell>
        <mxCell id="or-_LWsJeg-sRYdWCB0p-288" value="" style="rounded=0;whiteSpace=wrap;html=1;strokeWidth=1;strokeColor=#C7C7C7;" vertex="1" parent="1">
          <mxGeometry x="130" y="3687" width="513" height="70" as="geometry" />
        </mxCell>
        <mxCell id="or-_LWsJeg-sRYdWCB0p-290" value="场景&lt;br&gt;&lt;br&gt;支撑" style="rounded=0;whiteSpace=wrap;html=1;strokeColor=#6c8ebf;strokeWidth=1;fillColor=#dae8fc;" vertex="1" parent="1">
          <mxGeometry x="63.88" y="3456" width="64.12" height="70" as="geometry" />
        </mxCell>
        <mxCell id="or-_LWsJeg-sRYdWCB0p-296" value="业务&lt;br&gt;&lt;br&gt;实现" style="rounded=0;whiteSpace=wrap;html=1;strokeWidth=1;fillColor=#f8cecc;strokeColor=#b85450;" vertex="1" parent="1">
          <mxGeometry x="63.87999999999999" y="3529" width="63.75" height="154" as="geometry" />
        </mxCell>
        <mxCell id="or-_LWsJeg-sRYdWCB0p-333" value="订单表" style="rounded=0;whiteSpace=wrap;html=1;strokeWidth=1;gradientColor=none;fillColor=none;strokeColor=#BABABA;" vertex="1" parent="1">
          <mxGeometry x="420.69" y="3779.25" width="63.44" height="43.5" as="geometry" />
        </mxCell>
        <mxCell id="or-_LWsJeg-sRYdWCB0p-336" style="edgeStyle=orthogonalEdgeStyle;rounded=0;orthogonalLoop=1;jettySize=auto;html=1;entryX=0;entryY=0.5;entryDx=0;entryDy=0;fontSize=12;" edge="1" parent="1" source="or-_LWsJeg-sRYdWCB0p-334" target="or-_LWsJeg-sRYdWCB0p-335">
          <mxGeometry relative="1" as="geometry" />
        </mxCell>
        <mxCell id="or-_LWsJeg-sRYdWCB0p-334" value="ODPS" style="rounded=0;whiteSpace=wrap;html=1;strokeWidth=1;gradientColor=none;fillColor=none;strokeColor=#BABABA;" vertex="1" parent="1">
          <mxGeometry x="166.62" y="3703" width="82.75" height="44.5" as="geometry" />
        </mxCell>
        <mxCell id="or-_LWsJeg-sRYdWCB0p-339" style="edgeStyle=orthogonalEdgeStyle;rounded=0;orthogonalLoop=1;jettySize=auto;html=1;entryX=0;entryY=0.5;entryDx=0;entryDy=0;fontSize=12;" edge="1" parent="1" source="or-_LWsJeg-sRYdWCB0p-335" target="or-_LWsJeg-sRYdWCB0p-338">
          <mxGeometry relative="1" as="geometry" />
        </mxCell>
        <mxCell id="or-_LWsJeg-sRYdWCB0p-335" value="Lindorm" style="rounded=0;whiteSpace=wrap;html=1;strokeWidth=1;gradientColor=none;fillColor=none;strokeColor=#BABABA;" vertex="1" parent="1">
          <mxGeometry x="278.63000000000005" y="3704" width="82" height="43.5" as="geometry" />
        </mxCell>
        <mxCell id="or-_LWsJeg-sRYdWCB0p-338" value="OneService" style="rounded=0;whiteSpace=wrap;html=1;strokeWidth=1;gradientColor=none;fillColor=none;strokeColor=#BABABA;" vertex="1" parent="1">
          <mxGeometry x="397.24000000000007" y="3704" width="82" height="43.5" as="geometry" />
        </mxCell>
        <mxCell id="or-_LWsJeg-sRYdWCB0p-344" value="生意参谋HSF接口" style="rounded=0;whiteSpace=wrap;html=1;strokeWidth=1;gradientColor=none;fillColor=none;strokeColor=#BABABA;" vertex="1" parent="1">
          <mxGeometry x="525.8800000000001" y="3704" width="110.56" height="43.5" as="geometry" />
        </mxCell>
        <mxCell id="or-_LWsJeg-sRYdWCB0p-350" value="" style="shape=cross;whiteSpace=wrap;html=1;fontSize=12;fillColor=#EDEDED;strokeWidth=1;strokeColor=#B8B8B8;" vertex="1" parent="1">
          <mxGeometry x="496.62" y="3713.75" width="19" height="24" as="geometry" />
        </mxCell>
        <mxCell id="or-_LWsJeg-sRYdWCB0p-352" value="" style="rounded=0;whiteSpace=wrap;html=1;strokeWidth=1;strokeColor=#C7C7C7;" vertex="1" parent="1">
          <mxGeometry x="128" y="3456" width="434" height="70" as="geometry" />
        </mxCell>
        <mxCell id="or-_LWsJeg-sRYdWCB0p-353" value="超级工厂" style="rounded=0;whiteSpace=wrap;html=1;fontSize=12;strokeColor=#B9C3D1;strokeWidth=1;fillColor=#cce5ff;" vertex="1" parent="1">
          <mxGeometry x="157.87" y="3468.5" width="100.25" height="45" as="geometry" />
        </mxCell>
        <mxCell id="or-_LWsJeg-sRYdWCB0p-354" value="LBD" style="rounded=0;whiteSpace=wrap;html=1;fontSize=12;strokeColor=#B8B8B8;strokeWidth=1;fillColor=#EDEDED;gradientColor=none;" vertex="1" parent="1">
          <mxGeometry x="295.53999999999996" y="3468.5" width="98.3" height="45" as="geometry" />
        </mxCell>
        <mxCell id="or-_LWsJeg-sRYdWCB0p-355" value="实商" style="rounded=0;whiteSpace=wrap;html=1;fontSize=12;strokeColor=#B8B8B8;strokeWidth=1;fillColor=#EDEDED;gradientColor=none;" vertex="1" parent="1">
          <mxGeometry x="425" y="3468.5" width="93.18" height="45" as="geometry" />
        </mxCell>
        <mxCell id="or-_LWsJeg-sRYdWCB0p-356" value="" style="rounded=0;whiteSpace=wrap;html=1;strokeWidth=1;strokeColor=#C7C7C7;" vertex="1" parent="1">
          <mxGeometry x="127.63000000000001" y="3529.5" width="434.12" height="154" as="geometry" />
        </mxCell>
        <mxCell id="or-_LWsJeg-sRYdWCB0p-365" value="全局能力" style="rounded=0;whiteSpace=wrap;html=1;fontSize=12;strokeColor=#9DD97C;strokeWidth=1;fillColor=#d5e8d4;" vertex="1" parent="1">
          <mxGeometry x="566.92" y="3456" width="75.08" height="36" as="geometry" />
        </mxCell>
        <mxCell id="or-_LWsJeg-sRYdWCB0p-367" value="编辑模块" style="rounded=0;whiteSpace=wrap;html=1;fontSize=12;strokeColor=#C7D2E0;strokeWidth=1;fillColor=#ffcccc;" vertex="1" parent="1">
          <mxGeometry x="147.07999999999998" y="3540" width="193.05" height="32" as="geometry" />
        </mxCell>
        <mxCell id="or-_LWsJeg-sRYdWCB0p-371" value="" style="rounded=0;whiteSpace=wrap;html=1;fontSize=12;strokeWidth=1;strokeColor=#DBDBDB;" vertex="1" parent="1">
          <mxGeometry x="147.08" y="3572" width="192.67" height="105" as="geometry" />
        </mxCell>
        <mxCell id="or-_LWsJeg-sRYdWCB0p-372" value="行业分析" style="rounded=0;whiteSpace=wrap;html=1;fontSize=12;strokeWidth=1;strokeColor=#E8E8E8;" vertex="1" parent="1">
          <mxGeometry x="154.75" y="3582" width="71" height="31" as="geometry" />
        </mxCell>
        <mxCell id="or-_LWsJeg-sRYdWCB0p-373" value="成功案例" style="rounded=0;whiteSpace=wrap;html=1;fontSize=12;strokeWidth=1;strokeColor=#E8E8E8;" vertex="1" parent="1">
          <mxGeometry x="249.63" y="3582" width="71" height="31" as="geometry" />
        </mxCell>
        <mxCell id="or-_LWsJeg-sRYdWCB0p-374" value="业务介绍" style="rounded=0;whiteSpace=wrap;html=1;fontSize=12;strokeWidth=1;strokeColor=#E8E8E8;" vertex="1" parent="1">
          <mxGeometry x="154.75" y="3627" width="71" height="31" as="geometry" />
        </mxCell>
        <mxCell id="or-_LWsJeg-sRYdWCB0p-375" value="推荐方案" style="rounded=0;whiteSpace=wrap;html=1;fontSize=12;strokeWidth=1;strokeColor=#E8E8E8;" vertex="1" parent="1">
          <mxGeometry x="249.63" y="3627" width="71" height="31" as="geometry" />
        </mxCell>
        <mxCell id="or-_LWsJeg-sRYdWCB0p-376" value="分享模块" style="rounded=0;whiteSpace=wrap;html=1;fontSize=12;strokeColor=#C7D2E0;strokeWidth=1;fillColor=#ffcccc;" vertex="1" parent="1">
          <mxGeometry x="359.14" y="3538" width="193.05" height="32" as="geometry" />
        </mxCell>
        <mxCell id="or-_LWsJeg-sRYdWCB0p-378" value="复制链接" style="rounded=0;whiteSpace=wrap;html=1;fontSize=12;strokeWidth=1;strokeColor=#E8E8E8;" vertex="1" parent="1">
          <mxGeometry x="366.81000000000006" y="3580" width="71" height="31" as="geometry" />
        </mxCell>
        <mxCell id="or-_LWsJeg-sRYdWCB0p-379" value="多渠道分享" style="rounded=0;whiteSpace=wrap;html=1;fontSize=12;strokeWidth=1;strokeColor=#E8E8E8;" vertex="1" parent="1">
          <mxGeometry x="461.69000000000005" y="3580" width="71" height="31" as="geometry" />
        </mxCell>
        <mxCell id="or-_LWsJeg-sRYdWCB0p-380" value="实时追踪客户阅读时长" style="rounded=0;whiteSpace=wrap;html=1;fontSize=12;strokeWidth=1;strokeColor=#E8E8E8;" vertex="1" parent="1">
          <mxGeometry x="366.81000000000006" y="3625" width="71" height="31" as="geometry" />
        </mxCell>
        <mxCell id="or-_LWsJeg-sRYdWCB0p-381" value="实时&lt;br&gt;钉钉通知" style="rounded=0;whiteSpace=wrap;html=1;fontSize=12;strokeWidth=1;strokeColor=#E8E8E8;" vertex="1" parent="1">
          <mxGeometry x="461.69000000000005" y="3625" width="71" height="31" as="geometry" />
        </mxCell>
        <mxCell id="or-_LWsJeg-sRYdWCB0p-384" value="" style="rounded=0;whiteSpace=wrap;html=1;fontSize=12;strokeWidth=1;strokeColor=#D4D4D4;" vertex="1" parent="1">
          <mxGeometry x="567" y="3492" width="75" height="190" as="geometry" />
        </mxCell>
        <mxCell id="or-_LWsJeg-sRYdWCB0p-386" value="配置管理" style="rounded=0;whiteSpace=wrap;html=1;fontSize=12;strokeWidth=1;strokeColor=#E8E8E8;" vertex="1" parent="1">
          <mxGeometry x="577.13" y="3512" width="50.87" height="31" as="geometry" />
        </mxCell>
        <mxCell id="or-_LWsJeg-sRYdWCB0p-388" value="" style="rounded=0;whiteSpace=wrap;html=1;fontSize=12;strokeWidth=1;fillColor=none;strokeColor=#E6E6E6;" vertex="1" parent="1">
          <mxGeometry x="359.52000000000004" y="3570" width="192.67" height="105" as="geometry" />
        </mxCell>
        <mxCell id="or-_LWsJeg-sRYdWCB0p-389" value="策略模式" style="rounded=0;whiteSpace=wrap;html=1;fontSize=12;strokeWidth=1;strokeColor=#E8E8E8;" vertex="1" parent="1">
          <mxGeometry x="577.13" y="3566" width="50.87" height="31" as="geometry" />
        </mxCell>
        <mxCell id="or-_LWsJeg-sRYdWCB0p-390" value="缓存快照" style="rounded=0;whiteSpace=wrap;html=1;fontSize=12;strokeWidth=1;strokeColor=#E8E8E8;" vertex="1" parent="1">
          <mxGeometry x="575.97" y="3619" width="57.05" height="31" as="geometry" />
        </mxCell>
        <mxCell id="or-_LWsJeg-sRYdWCB0p-391" style="edgeStyle=orthogonalEdgeStyle;rounded=0;orthogonalLoop=1;jettySize=auto;html=1;fontSize=12;endArrow=ERzeroToMany;endFill=0;startArrow=ERmandOne;startFill=0;" edge="1" parent="1" source="F5liAaDWDsk7o85AeB5s-33" target="F5liAaDWDsk7o85AeB5s-5">
          <mxGeometry relative="1" as="geometry" />
        </mxCell>
        <mxCell id="or-_LWsJeg-sRYdWCB0p-392" style="edgeStyle=orthogonalEdgeStyle;rounded=0;orthogonalLoop=1;jettySize=auto;html=1;entryX=0;entryY=0.5;entryDx=0;entryDy=0;fontSize=12;startArrow=ERmandOne;startFill=0;endArrow=ERzeroToMany;endFill=0;" edge="1" parent="1" source="F5liAaDWDsk7o85AeB5s-2" target="F5liAaDWDsk7o85AeB5s-15">
          <mxGeometry relative="1" as="geometry" />
        </mxCell>
        <mxCell id="or-_LWsJeg-sRYdWCB0p-393" style="edgeStyle=orthogonalEdgeStyle;rounded=0;orthogonalLoop=1;jettySize=auto;html=1;entryX=0;entryY=0.5;entryDx=0;entryDy=0;fontSize=12;startArrow=ERmandOne;startFill=0;endArrow=ERmandOne;endFill=0;" edge="1" parent="1" source="seeRl_uvlfTcgqvtLAYv-37" target="seeRl_uvlfTcgqvtLAYv-10">
          <mxGeometry relative="1" as="geometry" />
        </mxCell>
        <mxCell id="or-_LWsJeg-sRYdWCB0p-397" value="分享记录" style="swimlane;fontStyle=0;childLayout=stackLayout;horizontal=1;startSize=26;horizontalStack=0;resizeParent=1;resizeParentMax=0;resizeLast=0;collapsible=1;marginBottom=0;align=center;fontSize=14;fillColor=#d80073;strokeColor=#A50040;fontColor=#ffffff;" vertex="1" parent="1">
          <mxGeometry x="559.75" y="899" width="160" height="176" as="geometry" />
        </mxCell>
        <mxCell id="or-_LWsJeg-sRYdWCB0p-398" value="销售id" style="text;strokeColor=none;fillColor=none;spacingLeft=4;spacingRight=4;overflow=hidden;rotatable=0;points=[[0,0.5],[1,0.5]];portConstraint=eastwest;fontSize=12;" vertex="1" parent="or-_LWsJeg-sRYdWCB0p-397">
          <mxGeometry y="26" width="160" height="30" as="geometry" />
        </mxCell>
        <mxCell id="or-_LWsJeg-sRYdWCB0p-399" value="方案id" style="text;strokeColor=none;fillColor=none;spacingLeft=4;spacingRight=4;overflow=hidden;rotatable=0;points=[[0,0.5],[1,0.5]];portConstraint=eastwest;fontSize=12;" vertex="1" parent="or-_LWsJeg-sRYdWCB0p-397">
          <mxGeometry y="56" width="160" height="30" as="geometry" />
        </mxCell>
        <mxCell id="or-_LWsJeg-sRYdWCB0p-400" value="公司名" style="text;strokeColor=none;fillColor=none;spacingLeft=4;spacingRight=4;overflow=hidden;rotatable=0;points=[[0,0.5],[1,0.5]];portConstraint=eastwest;fontSize=12;" vertex="1" parent="or-_LWsJeg-sRYdWCB0p-397">
          <mxGeometry y="86" width="160" height="30" as="geometry" />
        </mxCell>
        <mxCell id="or-_LWsJeg-sRYdWCB0p-401" value="分享code" style="text;strokeColor=none;fillColor=none;spacingLeft=4;spacingRight=4;overflow=hidden;rotatable=0;points=[[0,0.5],[1,0.5]];portConstraint=eastwest;fontSize=12;" vertex="1" parent="or-_LWsJeg-sRYdWCB0p-397">
          <mxGeometry y="116" width="160" height="30" as="geometry" />
        </mxCell>
        <mxCell id="or-_LWsJeg-sRYdWCB0p-402" value="过期时间" style="text;strokeColor=none;fillColor=none;spacingLeft=4;spacingRight=4;overflow=hidden;rotatable=0;points=[[0,0.5],[1,0.5]];portConstraint=eastwest;fontSize=12;" vertex="1" parent="or-_LWsJeg-sRYdWCB0p-397">
          <mxGeometry y="146" width="160" height="30" as="geometry" />
        </mxCell>
        <mxCell id="or-_LWsJeg-sRYdWCB0p-404" style="edgeStyle=orthogonalEdgeStyle;rounded=0;orthogonalLoop=1;jettySize=auto;html=1;entryX=0;entryY=0.5;entryDx=0;entryDy=0;fontSize=12;startArrow=ERmandOne;startFill=0;endArrow=ERzeroToMany;endFill=0;jumpStyle=arc;" edge="1" parent="1" source="F5liAaDWDsk7o85AeB5s-2" target="or-_LWsJeg-sRYdWCB0p-399">
          <mxGeometry relative="1" as="geometry" />
        </mxCell>
        <mxCell id="or-_LWsJeg-sRYdWCB0p-405" value="分享记录查看统计" style="swimlane;fontStyle=0;childLayout=stackLayout;horizontal=1;startSize=26;horizontalStack=0;resizeParent=1;resizeParentMax=0;resizeLast=0;collapsible=1;marginBottom=0;align=center;fontSize=14;fillColor=#d80073;strokeColor=#A50040;fontColor=#ffffff;" vertex="1" parent="1">
          <mxGeometry x="828" y="899" width="160" height="206" as="geometry" />
        </mxCell>
        <mxCell id="or-_LWsJeg-sRYdWCB0p-406" value="销售id" style="text;strokeColor=none;fillColor=none;spacingLeft=4;spacingRight=4;overflow=hidden;rotatable=0;points=[[0,0.5],[1,0.5]];portConstraint=eastwest;fontSize=12;" vertex="1" parent="or-_LWsJeg-sRYdWCB0p-405">
          <mxGeometry y="26" width="160" height="30" as="geometry" />
        </mxCell>
        <mxCell id="or-_LWsJeg-sRYdWCB0p-407" value="方案id" style="text;strokeColor=none;fillColor=none;spacingLeft=4;spacingRight=4;overflow=hidden;rotatable=0;points=[[0,0.5],[1,0.5]];portConstraint=eastwest;fontSize=12;" vertex="1" parent="or-_LWsJeg-sRYdWCB0p-405">
          <mxGeometry y="56" width="160" height="30" as="geometry" />
        </mxCell>
        <mxCell id="or-_LWsJeg-sRYdWCB0p-408" value="公司名" style="text;strokeColor=none;fillColor=none;spacingLeft=4;spacingRight=4;overflow=hidden;rotatable=0;points=[[0,0.5],[1,0.5]];portConstraint=eastwest;fontSize=12;" vertex="1" parent="or-_LWsJeg-sRYdWCB0p-405">
          <mxGeometry y="86" width="160" height="30" as="geometry" />
        </mxCell>
        <mxCell id="or-_LWsJeg-sRYdWCB0p-409" value="模块code" style="text;strokeColor=none;fillColor=none;spacingLeft=4;spacingRight=4;overflow=hidden;rotatable=0;points=[[0,0.5],[1,0.5]];portConstraint=eastwest;fontSize=12;" vertex="1" parent="or-_LWsJeg-sRYdWCB0p-405">
          <mxGeometry y="116" width="160" height="30" as="geometry" />
        </mxCell>
        <mxCell id="or-_LWsJeg-sRYdWCB0p-410" value="操作类型" style="text;strokeColor=none;fillColor=none;spacingLeft=4;spacingRight=4;overflow=hidden;rotatable=0;points=[[0,0.5],[1,0.5]];portConstraint=eastwest;fontSize=12;" vertex="1" parent="or-_LWsJeg-sRYdWCB0p-405">
          <mxGeometry y="146" width="160" height="30" as="geometry" />
        </mxCell>
        <mxCell id="or-_LWsJeg-sRYdWCB0p-411" value="分享code" style="text;strokeColor=none;fillColor=none;spacingLeft=4;spacingRight=4;overflow=hidden;rotatable=0;points=[[0,0.5],[1,0.5]];portConstraint=eastwest;fontSize=12;" vertex="1" parent="or-_LWsJeg-sRYdWCB0p-405">
          <mxGeometry y="176" width="160" height="30" as="geometry" />
        </mxCell>
        <mxCell id="or-_LWsJeg-sRYdWCB0p-413" style="edgeStyle=elbowEdgeStyle;rounded=0;jumpStyle=arc;orthogonalLoop=1;jettySize=auto;html=1;entryX=0;entryY=0.5;entryDx=0;entryDy=0;fontSize=12;startArrow=ERmandOne;startFill=0;endArrow=ERzeroToMany;endFill=0;" edge="1" parent="1" source="or-_LWsJeg-sRYdWCB0p-401" target="or-_LWsJeg-sRYdWCB0p-409">
          <mxGeometry relative="1" as="geometry" />
        </mxCell>
        <mxCell id="or-_LWsJeg-sRYdWCB0p-418" style="edgeStyle=elbowEdgeStyle;rounded=0;jumpStyle=arc;orthogonalLoop=1;jettySize=auto;html=1;entryX=0.5;entryY=0;entryDx=0;entryDy=0;fontSize=12;startArrow=none;startFill=0;endArrow=classic;endFill=1;" edge="1" parent="1" source="or-_LWsJeg-sRYdWCB0p-416" target="or-_LWsJeg-sRYdWCB0p-417">
          <mxGeometry relative="1" as="geometry" />
        </mxCell>
        <mxCell id="or-_LWsJeg-sRYdWCB0p-438" style="edgeStyle=elbowEdgeStyle;rounded=0;jumpStyle=arc;orthogonalLoop=1;jettySize=auto;html=1;entryX=0.01;entryY=0.5;entryDx=0;entryDy=0;entryPerimeter=0;fontSize=12;fontColor=#FF1736;startArrow=none;startFill=0;endArrow=classic;endFill=1;dashed=1;" edge="1" parent="1" source="or-_LWsJeg-sRYdWCB0p-416" target="or-_LWsJeg-sRYdWCB0p-437">
          <mxGeometry relative="1" as="geometry" />
        </mxCell>
        <mxCell id="or-_LWsJeg-sRYdWCB0p-416" value="销售选择客户&lt;br&gt;进行打卡" style="rounded=1;whiteSpace=wrap;html=1;fontSize=12;strokeWidth=1;" vertex="1" parent="1">
          <mxGeometry x="338.44" y="3929" width="120" height="60" as="geometry" />
        </mxCell>
        <mxCell id="or-_LWsJeg-sRYdWCB0p-419" value="Y" style="edgeStyle=elbowEdgeStyle;rounded=0;jumpStyle=arc;orthogonalLoop=1;jettySize=auto;html=1;fontSize=12;startArrow=none;startFill=0;endArrow=classic;endFill=1;elbow=vertical;entryX=0.569;entryY=-0.006;entryDx=0;entryDy=0;entryPerimeter=0;" edge="1" parent="1" source="or-_LWsJeg-sRYdWCB0p-417" target="or-_LWsJeg-sRYdWCB0p-421">
          <mxGeometry x="-0.2155" relative="1" as="geometry">
            <mxPoint x="673" y="4164" as="targetPoint" />
            <Array as="points">
              <mxPoint x="596" y="4092" />
            </Array>
            <mxPoint as="offset" />
          </mxGeometry>
        </mxCell>
        <mxCell id="or-_LWsJeg-sRYdWCB0p-422" style="edgeStyle=elbowEdgeStyle;rounded=0;jumpStyle=arc;orthogonalLoop=1;jettySize=auto;html=1;fontSize=12;startArrow=none;startFill=0;endArrow=classic;endFill=1;entryX=0.5;entryY=0;entryDx=0;entryDy=0;" edge="1" parent="1" source="or-_LWsJeg-sRYdWCB0p-417" target="or-_LWsJeg-sRYdWCB0p-423">
          <mxGeometry relative="1" as="geometry">
            <mxPoint x="193.33333333333348" y="4091.5" as="targetPoint" />
            <Array as="points">
              <mxPoint x="177" y="4130" />
            </Array>
          </mxGeometry>
        </mxCell>
        <mxCell id="or-_LWsJeg-sRYdWCB0p-426" value="N" style="edgeLabel;html=1;align=center;verticalAlign=middle;resizable=0;points=[];fontSize=12;" vertex="1" connectable="0" parent="or-_LWsJeg-sRYdWCB0p-422">
          <mxGeometry x="-0.3776" y="-2" relative="1" as="geometry">
            <mxPoint y="-1" as="offset" />
          </mxGeometry>
        </mxCell>
        <mxCell id="or-_LWsJeg-sRYdWCB0p-417" value="系统后台判断&lt;br&gt;当前位置是否在地址库所有地址500m范围内" style="rhombus;whiteSpace=wrap;html=1;fontSize=12;strokeWidth=1;" vertex="1" parent="1">
          <mxGeometry x="275.56" y="4056" width="242.44" height="71" as="geometry" />
        </mxCell>
        <mxCell id="or-_LWsJeg-sRYdWCB0p-439" style="edgeStyle=elbowEdgeStyle;rounded=0;jumpStyle=arc;orthogonalLoop=1;jettySize=auto;html=1;entryX=1;entryY=0.5;entryDx=0;entryDy=0;fontSize=12;fontColor=#FF1736;startArrow=none;startFill=0;endArrow=classic;endFill=1;" edge="1" parent="1" source="or-_LWsJeg-sRYdWCB0p-421" target="or-_LWsJeg-sRYdWCB0p-436">
          <mxGeometry relative="1" as="geometry">
            <Array as="points">
              <mxPoint x="678" y="4367" />
            </Array>
          </mxGeometry>
        </mxCell>
        <mxCell id="or-_LWsJeg-sRYdWCB0p-440" value="打卡地址回流" style="edgeLabel;html=1;align=center;verticalAlign=middle;resizable=0;points=[];fontSize=12;fontColor=#FF1736;" vertex="1" connectable="0" parent="or-_LWsJeg-sRYdWCB0p-439">
          <mxGeometry x="-0.5931" y="1" relative="1" as="geometry">
            <mxPoint x="-1" y="18" as="offset" />
          </mxGeometry>
        </mxCell>
        <mxCell id="or-_LWsJeg-sRYdWCB0p-421" value="打卡成功" style="rounded=0;whiteSpace=wrap;html=1;fontSize=12;strokeWidth=1;" vertex="1" parent="1">
          <mxGeometry x="610.6999999999999" y="4195.5" width="120" height="60" as="geometry" />
        </mxCell>
        <mxCell id="or-_LWsJeg-sRYdWCB0p-427" style="edgeStyle=elbowEdgeStyle;rounded=0;jumpStyle=arc;orthogonalLoop=1;jettySize=auto;html=1;entryX=0;entryY=0.5;entryDx=0;entryDy=0;fontSize=12;startArrow=none;startFill=0;endArrow=classic;endFill=1;elbow=vertical;" edge="1" parent="1" source="or-_LWsJeg-sRYdWCB0p-423" target="or-_LWsJeg-sRYdWCB0p-421">
          <mxGeometry relative="1" as="geometry" />
        </mxCell>
        <mxCell id="or-_LWsJeg-sRYdWCB0p-428" value="Y" style="edgeLabel;html=1;align=center;verticalAlign=middle;resizable=0;points=[];fontSize=12;" vertex="1" connectable="0" parent="or-_LWsJeg-sRYdWCB0p-427">
          <mxGeometry x="-0.0599" relative="1" as="geometry">
            <mxPoint as="offset" />
          </mxGeometry>
        </mxCell>
        <mxCell id="or-_LWsJeg-sRYdWCB0p-443" style="edgeStyle=elbowEdgeStyle;rounded=0;jumpStyle=arc;orthogonalLoop=1;jettySize=auto;html=1;entryX=0.5;entryY=0;entryDx=0;entryDy=0;fontSize=12;fontColor=#FF1736;startArrow=none;startFill=0;endArrow=classic;endFill=1;" edge="1" parent="1" source="or-_LWsJeg-sRYdWCB0p-423" target="or-_LWsJeg-sRYdWCB0p-431">
          <mxGeometry relative="1" as="geometry" />
        </mxCell>
        <mxCell id="or-_LWsJeg-sRYdWCB0p-445" value="&lt;font color=&quot;#000000&quot;&gt;N&lt;/font&gt;" style="edgeLabel;html=1;align=center;verticalAlign=middle;resizable=0;points=[];fontSize=12;fontColor=#FF1736;" vertex="1" connectable="0" parent="or-_LWsJeg-sRYdWCB0p-443">
          <mxGeometry x="0.0034" y="1" relative="1" as="geometry">
            <mxPoint as="offset" />
          </mxGeometry>
        </mxCell>
        <mxCell id="or-_LWsJeg-sRYdWCB0p-423" value="判断小二打卡经纬度形成的圆面积&lt;br&gt;是否占工厂定位允许范围的一半" style="rhombus;whiteSpace=wrap;html=1;fontSize=12;strokeWidth=1;" vertex="1" parent="1">
          <mxGeometry x="56" y="4190" width="242.44" height="71" as="geometry" />
        </mxCell>
        <mxCell id="or-_LWsJeg-sRYdWCB0p-424" value="" style="shape=image;verticalLabelPosition=bottom;labelBackgroundColor=#ffffff;verticalAlign=top;aspect=fixed;imageAspect=0;image=data:image/png,iVBORw0KGgoAAAANSUhEUgAAA88AAAMiCAYAAABQUfGfAAAgAElEQVR4Aey9eXAc2X3n2d2yJNsKSbaksCV5vLLCnrB3PJ6RHTG+x7u2pfGM/7A9lujVWL7kkKldecfasNhko5sACjdAAFWFqnxHZqFwVeEU+yJ4gFeTIIibBG8cJAiS3WwRvEnwJjURGw8k1Gw2QKBAVCGr8tMRHQQKVZX5Pu9T+X7fysz3nnuO/yAAAQhAAAIQgIBLCfh8vo+UlpZ+MhAIfC4UCv1iOBz+tVAo9JvhcPj/tCzrT4UQX5NS/o2U8ptCiH+SUv7fUsp/Vkr9i5TyX6WULyqlXhJCvKKUyjX/P/r5JfM38xwhxHfNa8xrzXsopf7RvKdS6qtmG2Zbj7Zptv2LZl8CgcBPmX1zKTZ2CwIQgAAEIAABCEAAAhCAAATSjcCKFSs+JIT4bCgU+o9CiP8ihPgfQojvmBArlO23lNMgtbNR6OoeoSLDUjtnpdLXpVIPHv6vb0vtXBO6+pLQ0XOWXXs2ZNefCTmxiVCk+USwuu14YPr/9WOB6vVjfvN/9LVRf80boxXT/785WlHTPlpR++h/83ONeeyNh88xz61++Frz+qrq9WPmPaucpvHpbdj1Z8w2zbbNPph9kdq+ZfZNKfXD6X3Vzlmz76YNpi2mTaZtpo0mmD9q8395xOCzhkm69SP7CwEIQAACEIAABCAAAQhAAAKLIBAKhT5qzsQKIf5QCPF35gyvUnZYaud1oSO9QkdOSm1fk1L9L6mdKcsEXyd+KljdctwfXT9mAm15Xcexsrrth0pinfuKYr29BU379uQ3HdrpaxntyG6baM9uO+3y/yfazb6afTb7btpg2mLaZNpm2miCuWmzabthYFg8ZGJfe8jI6TPMptlJmWVYPmL6S4bxIrqGl0AAAhCAAAQgAAEIQAACEIBAqgj4/f5PWZb1W5Zl/ZUQYpVSjrCU0/Hw7LB9VUr1wJyJNWeBq6Jtx6fP5tZtPVpWt3v/dBBuHNqd3zyyNT1CcKpD+kS7YVPQOLS7ON7XY5hV1G09ahgalobp9FluqR5IbV99dEZ+q1S2NJebmz4xfWP6KFU+sB0IQAACEIAABCAAAQhAAAKeJWAupxZC/L4Q4h+kUkXmDKilnWNS6Rvm0mRzuXIw0nKiMvr6mAl3xQ2dg+YMq69peBuhOBWBe6LdsDbMi+s7B8vqth41l6ObPjF98/DycX3D9JnQkTdMH5q+NH1q7s32rNg0HAIQgAAEIAABCEAAAhCAQKIEfD7fC+byainln5lLq6WOtAntjEg1fS/xVNiue8fc41teu2mktH7nUGFssOvhZdOpCIds41kvTTd9ZfrMnL02fWj60vTp9OXhSt+e7msdaZvueyn/TAjxS8aJRD3i+RCAAAQgAAEIQAACEIAABDKGQDgc/qIJyVLKly3lrBc6MiqVvmvpyOWQE58wk2SV1e04MB2Q205sftbgxuvdHf59bSc2PwzWOw6YvjcOGBeME8YN48i0K5b154FA4Bcy5oNAQyAAAQhAAAIQgAAEIAABCBgCZrZmy7J+1SypJJRdJbWZdMq+KXTkalWk8eRMSJ6+xJqQ7PJJx1IfwE2oNm6YL1KMK8YZ445xyLg07ZSUf2McY2ZwjjkQgAAEIAABCEAAAhCAQFoQeBSUf0MI8W1L2zVCR45Mnzm0oxcCkebx8totx0pivb1cap36EJppZ96NQ8Yl45RxS9jRC4/OUh+Zds84aFm/QaBOi0MHOwkBCEAAAhCAAAQgAIHMJhAOhz+vlPrq9DrBytknlbpr2dFJswbxuvptR4rifXvNmcNMC260x53h37hmnDPu+avbjhsXjZNCOfuMo8ZV42xmfyppHQQgAAEIQAACEIAABCCwrAR8Pt9HhBC/a5aCspSzSSj7gtT2DXNvannN5mGz5FNu69gWgqU7g6VX+8U4adw0jhpXjbNSORemHRZilXHauL2sHy42DgEIQAACEIAABCAAAQikLwG/3/8TQog/lFLnmXtLldJ3zJJD/uhrY2a25PymQzu9Gshod3p/QWDcNQ4bl43Txu3pe/GlzjPOG/fT95PLnkMAAhCAAAQgAAEIQAACSSVQXl7+MaXUn0ipS4WODJn7R80yQv7aDSMlDT19XH6d3oGRwD93/xm3jePG9emls5S+K7VzYPqzIMR/NZ+NpH74eHMIQAACEIAABCAAAQhAwL0EfD7fj0kp/7PUukDakUNS6Tthp/5Med3G4eJ4X09u6/FNBK65AxdsMpeNcd98BsxnIWTXnzGfDfMZUbZdaD4zK1eu/LB7P9nsGQQgAAEIQAACEIAABCDwzASklL8spfyfQkd2SKVvW07tu+ZsW1G8ryendXwjgTBzAyF9u/i+NZ8N8xmpqNkwYj4zUqnb5jOklPqXcDj8K8/8weQNIAABCEAAAhCAAAQgAIHlJSCl/GkhxP8llBM3E3wJHbkSiH7/eEmscx/LRS0+TBFEvc3u4TJZnfvMZ8l8pswEZOYzppT6uvnMLe+nnq1DAAIQgAAEIAABCEAAAgsiYM6ESSlfFCoyYM4uV0UaT65r2HY4v/HgW4Q+b4c++j85/W8+W+YzZj5r5jMndGRQCLVaCPG/L+hDy5MgAAEIQAACEIAABCAAgeQTMPdfWpb1FaG0EMp+V+jI1UD01bHi+q7+3BbuWyYwJicwwnV2ruYzNz35WPTVMXNWevozqbQwn1HulU7+8ZAtQAACEIAABCAAAQhA4H0ESktLP6mU+luhIxuk0rfCTt075bWbjxU0Du0m1MweauACl+VwwHwmzWfTfEbNvdKWctrNZ9d8ht/3oeYXCEAAAhCAAAQgAAEIQGBpCFRUVHxGSvktoZzdZvbfYKR5orR+51Bu88jW5QgFbJMwigOJOWDulTafWfPZNZ/h6c+ylN8yn+2lOUrwLhCAAAQgAAEIQAACEPAoASHEZ4UQ3xE60vPw/uWW8enJvtpObCa4JBZc4AUvNzkwvbZ0rHNfVaRlfPo+aeX0Sin/ORAIfM6jhzuaDQEIQAACEIAABCAAgcQIPAzM+rtKO/ultm8FIq3jJQ17Brh/mfDnpvDHviydjw/vk94zEKxuOyGVfct89oXQ3zXHgsSOHjwbAhCAAAQgAAEIQAACGU7g0T3M/zh9htkEZrOcVENPH2svL11AIezBMh0cMJ9589k3xwDz5ZlQTrdS6h+5RzrDBwGaBwEIQAACEIAABCAwNwGfz/fjQoivCeVsnr4ku7r5ZHF952A2M2S3p0PIYR8J40l3oOX4puKGzsGq6uaHS2ApZ7M5Zphjx9xHFv4CAQhAAAIQgAAEIACBDCDg8/lekFJ+WapIo1T6RjgSO11Wv+NAbuvYlqQX4m2EHRjjQLo6YI4R5lhhjhnm2KG002SWvzLHlAw4NNIECEAAAhCAAAQgAAEIPCQQCoV+USq7SCj7gmXXnl1X13HE1zS8LV0LefabEIoDy+eAOXasq9t6OGzXnjXHFHNsMccYjrcQgAAEIAABCEAAAhBISwLl5eUfk1L+vVDOgNTOlL/mjVHWYV6+wEHYg30mOmCOKebYYo4x5lgjhPgHc+xJy4MmOw0BCEAAAhCAAAQg4C0C4XD496S2Y0LaN6ucxlNmpmwm/iK4ZWJwo03u8frhRGN7BkKR5glz7Jk+Bgnx+946+tJaCEAAAhCAAAQgAAHXE7As69NSyhelts9YdvRCeV3Hkfzmka2EC/eEC/qCvvCKA+bYY45BQkfPC2W/LYRabY5Rrj+QsoMQgAAEIAABCEAAAplLQAjxu0I7rVLpW2aN1sLYYJdXCnTaSRjFAfc7YI5Jgen1o/UtoSNt5sqYzD0i0zIIQAACEIAABCAAAVcRKCsr+7hS6v+R2jkudPTi9ORfLaMdBAn3Bwn6iD7yqgO+ltEOM8mY0NUXhXJOCCG+Y45lrjq4sjMQgAAEIAABCEAAAplBIBQK/UehnKi5n9AfaZ4ojvf1eLUQp92EUBxIXweK4n09QbN2tJ6+N7pGCPGlzDhK0woIQAACEIAABCAAgWUjsGLFig8ppb4qdGTQsqsvl9duOsYSU+kbGgh89B0OvOfA9L3RtZuOmWObOcaZY5055i3bAZcNQwACEIAABCAAAQikH4HS0tJPCqFXCWWfCzv175TEOvdlt020U3i/V3jDAhY4kCkOTLSbY5w51pljnjn2mWNg+h252WMIQAACEIAABCAAgZQREEL8ktSOMpdmByKt4wVN+/YQEDIlINAOXMaB+Rwwxzxz7Hu43JWjzDExZQdgNgQBCEAAAhCAAAQg4H4CSqk/EsrZLpR9o7xmw7CvdXjbfEUmfyeI4AAOZKoD5hhojoXmmGiOjZZl/bH7j+TsIQQgAAEIQAACEIBAUgj4fL4XpJQrpHaOWXZ0sqx+x8HcluObMrUYpl0EPRzAgUQdMMdEc2w0x0ihnGHLsv7KHDuTclDmTSEAAQhAAAIQgAAE3EUgFAp9VAjxbaWdd8JO/dnihq7+RAtKnk8IwQEc8JoD5lgZtuvOSmWfNcdQcyx119GdvYEABCAAAQhAAAIQWBICZgIcS8qXpdJXqqobTxXF+/Z6rfilvQQ+HMCBZ3XAHDvNMdQcS80xlcnFlmSI4k0gAAEIQAACEIDA8hMIBoM/K5RdIbU9FYi0jec3Hdj1rMUjryeA4AAOeN0Bcyw1x1Sp9A2pdWUgEPjc8h/x2QMIQAACEIAABCAAgYQJ+P3+nxPSUSY0V0ZfG8tvOrLd68Uu7Sfw4QAOLLUD5tjqr3l91BxrhbK1OfYmfMDmBRCAAAQgAAEIQAACqScQCoX+jaVtW2r7pr/mzRFfy2jHUheLvB8BBAdwAAfe74A51ppjrjn2mmOwORanfgRgixCAAAQgAAEIQAAC8xIQQvy8VHbEFG4VhOZ2Cvv3F/bwgAcOpMYBE6LNMdgci80x2Ryb5z2A8wQIQAACEIAABCAAgeQTCAaD/5vUTrVU9g1Cc2qKY0IInHEAB+Zz4PEQLZQdtSzrC8kfEdgCBCAAAQhAAAIQgMAHCITD4c9Pn2kmNHOWuY0gM1+Q4e84slwOmBBdWbNh2HzBab7oNMfuDxzQeQACEIAABCAAAQhAYOkJ+P3+Twll+00hZgoyU5gtV1HIdgkkOIADOLAwBx4P0eYYbo7lSz9C8I4QgAAEIAABCEAAAs+Vl5d/TEonZ3rJqeirY77W4W0UrQsrWuEEJxzAAbc4YI7dgeirY+ZYbo7p5tjOEAcBCEAAAhCAAAQgsAQEfD7fRyyl/kUqfSVY3XIyv+nQTrcUgewHgQQHcAAHFueAOZabY7rU9lUhxHfNsX4JhgzeAgIQgAAEIAABCHiPgM/ne0EI8XdC2ZNVkcbTBY1DuylSF1ekwg1uOIADbnXAHNvNMV5oe9Ic882x33sjHi2GAAQgAAEIQAACiyQgpfyy1M5Y2Gl4pyjet9etRR/7RSDBARzAgaVxoDDW32WO+ebYb8aARQ4fvAwCEIAABCAAAQh4g0AoFPp3Ujk7LV19ubi+c5CidGmKUjjCEQdwIF0cMMd+MwaYscCMCd4Y/WglBCAAAQhAAAIQWCABpdTPTK/VrJ2pstqth3NaxzemS6HHfhJKcAAHcGBpHTBjgBkLpHamzNhgxogFDic8DQIQgAAEIAABCGQmAZ/P9+NCqVfMrKsV0ddHWXZqaQtQCnp44gAOpLMDZkwwY4MZI8xYYcaMzBwNaRUEIAABCEAAAhB4CgGl1NfNBDHBSMsEM2hT4Kdzgc++4y8OJNeB6Zm5Iy0TZswwY8dThhb+BAEIQAACEIAABDKHQDgc/jWpI/2WXXuOycCSW3BS0MMXB3AgkxwwY4YZO8wYYsaSzBkZaQkEIAABCEAAAhB4jICU8qctbdtC2TfK6ncczG6baM+koo62EFJwAAdwIBUOTLSbMcSMJWZMMWPLY0MNP0IAAhCAAAQgAIH0JWDW7JRSfktq+6o/+uoY9zWnorhkG4QYHMCBzHbAjCVmTDFjixljWB86fesE9hwCEIAABCAAgeeee86yrN+S2jkadureLYjv76SYzexilv6lf3EAB1LtgBlbzBhjxhoz5jD4QgACEIAABCAAgbQiUFFR8RmhnLhQzvXSut37U11MsT0KeBzAARzwlgNmrDFjjhl7zBiUVoMmOwsBCEAAAhCAgDcJCKH+YfoS7Zo3RnxtJzZTwHqrgKW/6W8cwIHlcsCMOf6aN0bMGGTGIm+OwrQaAhCAAAQgAAHXE5BS/rLUTl/Yrj3HJdoUz8tVPLNd3MMBHJi+lHt6Vm6nz4xNrh9A2UEIQAACEIAABLxBIBQKfVQou3B6Fu26rYeYRZvClfCCAziAA8vvwER7Wd3WQ2ZsMmOUGau8MSrTSghAAAIQgAAEXElACPGHQtlvByMtE3mtw9uWv1iiYKUPcAAHcAAH3nPAjE1mjDJjlVLqj1w5mLJTEIAABCAAAQhkLgHLsj4tpN0idORqcUNXP4Xae4UaLGCBAziAA+5zwIxVZswyY5cZwzJ3hKZlEIAABCAAAQi4hoBS6qtS6StmUpbc1uObKBLdVyTSJ/QJDuAADnzQATNmTU8opvQVIcTXXDOwsiMQgAAEIAABCGQWAaXUzwgd2SDs6MXC2GAXhdkHCzOYwAQHcAAH3O+AGcOEjl40Y5oZ2zJrtKY1EIAABCAAAQgsKwEp5V9Lpa9V1mwYzm7hbDPFsfuLY/qIPsIBHHiqAy3HN5kxzYxtZoxb1kGWjUMAAhCAAAQgkP4EwuHw56W2t1p29EJB4/7OpxYibRRq8MEBHMABHEgvB8zYZsY4M9aZMS/9R25aAAEIQAACEIBAyglIqb8plL5eXrvxWE7r+EYKwvQqCOkv+gsHcAAHFuaAGePMWGfGPDP2pXzAZYMQgAAEIAABCKQnAXP/l6WcbZZde66gcWg3xdfCii84wQkHcAAH0tsBM+aZsc+MgdwLnZ41DHsNAQhAAAIQSBkBKeVfSG1fLTf3NrdNtFMIpnchSP/RfziAAziQqAMT7WYMNGOhGRNTNgCzIQhAAAIQgAAE0oNAWVnZxy1pN1q6+jIzaSdaaPF8inMcwAEcyDQHzFhoxkQzNpoxMj1Gc/YSAhCAAAQgAIGkEpBS/mep7HP+6PrjvrYTmzOtAKI9FPU4gAM4gAOLccCMiWZsNGOkZVl/kNTBmDeHAAQgAAEIQMC9BHw+30eEsv1COddLGnr6FlNY8BoKUhzAARzAgUx3wIyRUkeuSa0DZux078jOnkEAAhCAAAQgsOQELMv6Vans0WB18ylfy2hHphc+tI/iHgdwAAdw4FkcMGOlGTOldsbMGLrkAzNvCAEIQAACEICA+wgIpb4tlT1VVvfW/mcpJHgthSgO4AAO4IDXHDBjpxlDzVjqvhGePYIABCAAAQhAYEkIBAKBn5La3mDZNefzGw++5bWCh/ZS5OMADuAADiyFA2YMNWOpGVPN2LokgzRvAgEIQAACEICAOwgIIX53elKwmtdHc1rHNy5F8cB7UITiAA7gAA541QEzlvprXh81Y6sZY90x2rMXEIAABCAAAQgsmoDP53vBkjpHKPt6cUNXv1eLHNpNgY8DOIADOJAMB8zYKrUzJZSda8bcRQ/YvBACEIAABCAAgeUjEA6HPy+03RO2G87mtQ5vS0bRwHtSjOIADuAADnjdAV/r8LawE3tneswNhz+/fCM/W4YABCAAAQhAIGEClmV9RWr7ckXtxqPZbRPtXi9saD/FPQ7gAA7gQHIdmGg3Y64Ze80YnPDAzQsgAAEIQAACEEgtAXPJmFB2vlm7uSjetze5hQKFGHxxAAdwAAdw4HEHzNhrxmAzFnMZd2prILYGAQhAAAIQWDCBioqKzwjl7A47DWfzm0e2Pj6Y8zPFHQ7gAA7gAA6kxgEzBpux2IzJZmxe8EDOEyEAAQhAwFsEVqxY8SHLsj4dCoV+UQjxpelZnqX8spTyz5RSX5dSflMI8R2l1L9IKf9VSvmiUuolIcQrSqlc8/+jn18yfzPPEUJ817zGvPbRe/yZlPLL4XD498w2zLbMNs22vUX7vdZalvVbQtuTlTUbhrlMOzXFEUUonHEAB3AAB+Z2YKLdjMlmbJZS/vZ7IzY/QQACEIBAxhIwlxyZiadMODMBWAjxT1LKtY6UyhZig2NZA44QJ2wpz2spbysp/5ctxM1qy7pUEwq9WxsOvd1QFTwVDwRONvv9J1oqKo6/Vr5u9NWysrHX15WNvrGubPTNdWWjG8pKR9tLSqb/Nz+bx8zfzHPMc81rzGvNe5j3Mu9p3ttsw2zLbNNs2+yD2RezT2bfpvdRSmX22ey7ZVl/btri9/t/LlMupxJaf1dqe4rZtCni5i7iYAMbHMABHFgOBx7Oxm1PmbE6Y4tFGgYBCEDAKwRMgAwEAr9gzuQKIb5tC1EWEeJVx7L220JMKikf2EJcN0E1Hgyc/H5F+XETbrcVFx7ZXZC3vz83p3soe+3uI1lrtp94adWW0y/+a/uZZfrfbNvsg9kXs09m38w+mn01+2z23QRv0xZHiGuP2jZp2uoI8ZqWcp1hYFgYJm4P12VlZR+X2nk9bNdM5jcf3rEcRQHbpBjFARzAARzAgac7kNd4eIcZq82YbcZur9SYtBMCEIBA2hIoLS39pGVZvyOl/JayrCpHiLdsyzqjpbzvCHGlIVR12oTLjqKi4V0F+UP9OWu7j76yZsfE6u9tXK4wnOztmraZNpq2mjabthsGhoVhYtgYRo5l7TLMDDvD0LBcbhGqqqr+rdT2hD/66lh2y/FNFC5PL1zgAx8cwAEcwIFldaDl+CZ/9atjZuw2Y/hy1xFsHwIQgAAEnnvuOZ/P92NKqX+vlPpbE/gilrVXS3lRS3m3Nhw+ay593lJcdGxPXu7A4bVZu06tXrUp2SE1Xd/fsDGMuvJ8/YaZYWcYGpa2lBcNW8N4mrVS/96wT4WEUsr/JpV9rax+59CyFgJtFGLwxwEcwAEcwIFEHDBjtxnDzVieipqBbUAAAhCAwCMCZoIspdSvm0uNtRC1jmUdNcGuOhy+YO4NNoGvJ8/XZ86upmuAdet+m0vDDVvD2LA2zA376T4Qotb0iembpZ7ETEr7Zamda4Wx/q5EBmueS3GHAziAAziAA+5wwIzhZiwXyn6FohYCEIAABJJEIBAIfE4I8ZdaykpHiH2PgvLk+oqKse3FhYf7stfuHV+zarNbA2em75dhb/rA9IXpk+pweHI6UD/sq0rTd6YPF6OHz+f7yYf3N9eey2sd3kYB5I4CiH6gH3AAB3AABxbjgBnLw3bdD5R23igvL//YYmoDXgMBCEAAAo8ReDSR19/bQsRsIc5qIW7E/f6JjUVFw725Ob1mcqxMD6Tp3j7TR6avTJ+ZvrOlnDJ9afpUSvn3po8f6/JZfwyHw1+U2hkLVK8f5/5mirTFFGm8Bm9wAAdwwIUOtBzfZMZ2M8absX7WIoAHIQABCEBgdgLmrKQJVI4QrVrK82aW6+ZAYHx7ccHhA2uzdqV7kGT/H85EbvrS9KnpW9PHpq8jQrQ9CtPvOzNtWdYfS21fLavfepDCx4WFD/d9t+MlXuIADuDAszlgxngz1pvVPmavEHkUAhCAAATM5F4/aVnWnzpShmwhTpq1ipv8/pM7CwsOHnp5zVuEzeVb9iqV7E1fmz43fW8csC1rwjihlBJCOdeLYr3dFCbPVpjAD344gAM4gANudsCM9dP3QWv9HUpkCEAAAhB4RODRpdj/0xFij5bydn1V8MymkuJj+3LW7lnONZJTGRbZ1txfChgHjAsNoarLQkd/WNLQ9cPC+L7LBc1HjuS0HWctZ870cqYXB3AAB3AgQx3Ibzqy3dLRS0o7YqknHKUQhwAEIJAuBJ4Ph8O/p4SomD67LOVUW0XFic483yDLRM0dIr0asM2kY7Gqqgta1d0ORvacr4p2T1bW9lwta+i7WRTvf1AYH7yZ33Ro3NcyttfN36Czb5zhwQEcwAEcwIHEHchtHdsScmLvCGXvKCsr+3i6FLvsJwQgAIFFEzDfFpp7VZVlRbSUV2pDoR9sKCsdHsx5uYuzywTmub4YMEuKRcPWTambb1RVd01WVe/9wP/+mu7L6+p7p4pi/XeK4gP38uMHzviaR3soUBIvUGAGMxzAARzAAXc6MNHuj64/LpRzwrKsLyy6IOWFEIAABNxKwOfz/ZgQ4r9qIWJayqnaUOjdLcXFRw9nvbRzrrDE4wTpGQf25a7tcqS6Z9lvXJ8tNM/2WCDafbG8rmeqOG6CdP+DgsYD7/iaR/qyWyc2urMYoEijX3AAB3AAB3BgoQ6sq+s4JLV9WUr5226tf9kvCEAAAgkRsCzrd7Rl2baUV+tCVe9sLi48ciRrzfaZUMS/BOT5HOgsyN+nhHoQdjZfmS0kL+SxYE3PhfL63usl8f7bhfGB+wWNB0/nNo92LXSA5nkUcziAAziAAzjgPgdKGnr6hLJvKKW+nlCBypMhAAEIuIVAOBz+FS1lqRbiXNSyzpsJv8wlt/OFJP5OkH7SgfaSklFbOfdCkR0XFxKSF/Kc6TPS9b1TxbGBu0XxgTv5zQdP5LSMvUVR5L6iiD6hT3AAB3AAB+ZzIL/pwC6hI1eEUtluqYXZDwhAAAJPJRAKhT4hhPgn27IOOkJce3Nd6cj+tS93PhmG+J2AvBAHzL3v6ysrz2hZfTcY6Ty/kFC8mOf4a7ovldX33iiM9d8vbNx3zdd09FB268SW+QZq/k4xhwM4gAM4gAPucSC3eWSrZdeeF1JXMxP3U0t2/ggBCCwjgeeFEH8YEaJNS3mr2e+f6PLl9DPpFwF5IQF5rueYWdYbA8HzP5pRe5aJwRYTlOd7TWVd75XSWP/NwljfDwsah95lojH3FEUUqPQFDuAADuDAfA742k5sDjnxd6TSHX6//yeWsT5m0xCAAATeI+D3+z+lhVhlS/m2mSl7a3Hh4dGsVR1zhSEeJ0wv1ER9Q3MAACAASURBVAHjUV3YuiZV/NZcM2rPF4Kf9e/Bmu7z5v5oM9FYYXzgdn7TkWPZLeMd8w3a/J3CDgdwAAdwAAeW14Gc1vGNweq2k1I7ByoqKj7zXvXKTxCAAARSTMBM/mUL0WLOMrdVVp4wMyAvNBTxPAL0fA6Y++IjlrgtdOuNZw3AS/V6s/SVWUN65mw0k4wtb1FEUQp/HMABHMCBhThQWbNhWGr7TDgc/mKKy2U2BwEIeJlAKBT6qJTym44QI9WWdXFzcdGR0TWcZZ4vCPL3xL4s2J/zSqdZiko4b15bquC7lO8zcza6KNZ/ryg+eMPXcuxAduupTQsZwHkOhR4O4AAO4AAOpN6BsrrtB6TSVyzL+g0v1/K0HQIQSAGBYDD4s1rKAi3E1VggcLo3N6eXe5kTC4QE6IXx6vHl9D1cimrTopeiWsqgPN97VdZ2XymJ9d8yk4zlNR46nt12citFUeqLIpjDHAdwAAdwYD4Hihu6+qWyryul/iQF5TObgAAEvEZASvkfHCGabClvvlZZMXbolay3CIELC4FwSpxTZ55vn5bqQTiy7dJ8odVtfw/UdF8si/XfmL6ku2norK/1+O75BnH+TqGHAziAAziAA6l1oDA22CW1M2VZ1l95ra6nvRCAQJIIWJb1B7YQb5llprg0O/EQSHBOnNn2woJDWtr3l3IN5+UI2DOXdD9c7mr/xby2sW4Ko9QWRvCGNw7gAA7gwNMcKGgc2i105JpS6ttJKqV5WwhAwAMEnrcs688dIQ6Y+5l3FBYcnFj9vY0EwcSDIMwSY7appGRES+d+VWTnxeUIvEnZZrR7sryu95q5L9qsGZ3XMjrwtIGcv1Ho4QAO4AAO4EDqHMhvOrRT6MgVqZ0sD9T4NBECEFgqAj6f7wUhxP+whThZGw79oDMvb5D7mRMLf4TlxfN6Y926cS2r74Yiuy4kJcSmaF3op+17ZW3P1YdLXQ3e9DUP76c4Sl1xBGtY4wAO4AAOzOWAr3V4m2VHLwhlVyxVXc37QAACGUpgxYoVHxJCfMOW8lRduOpsny+nhxC4+BAIu8TYmS9o2ioq37ZV9E4w0nn+aeEzU/42PblYvP92UXzwlq/p2NBcgzmPU+jhAA7gAA7gQGoc8LWMdoTtunNC6drnnnvu+Qwt+2kWBCCwWAI/Cs2Wdaa+KkhofjGx0EdIfnZe5naAJn/wnFa1t6uquyYzJRwvtB0zIbowPnA7r3mYEN2WmgKJQhTOOIADOIADszngazuxORyJvaO0832fz/eRxdbYvA4CEMgwAkKIv9RCnGoIBd/uy1nLmWaCc3uqvww4tXrVplhV1QWlGm55MTg/HrB/FKJjA7d8zSODsw3oPEahhwM4gAM4gAPJdyCndXxjsLr5lFTO9lAo9NEMiwA0BwIQSISAlPLLthBHa0KhSbOObqoDE9t79rO1mcDQBOeGqtAlpWKeD85Phujpe6Jjg1O5zSO9FEnJL5JgDGMcwAEcwIEPOjDR7o+0Tihtd/r9/p9IpNbmuRCAQAYQEEL8p4gQPdXh8CWzhi4TgRFilyuEj69ZtbmhKnRZ6sabXj/j/Hhwfvznyrq+q2Z27oL4viu+tuN7PjioU+jABAdwAAdwAAeS68BEe7C67aRQTnd5efnHMiAO0AQIQGA+ApZlfcEW4tWIZV3dUVhwgNBMaF6u0Gy2a4JzfSh8heC8d0H3d5slrsw60QWNB36Q03Z8R3KLBIow+OIADuAADuDA+x2YaA9Urx+XyukvKyv7+Hx1N3+HAATSlEAoFPqEtKxKLcTNjaUlx8xlsssZmtg2oX1s9aotdeHwNaGbOOOcyLJZ0e7JdfW9U0Xx/gf5jQdPZrdObHn/wE6hAw8cwAEcwAEcSJ4DE+3+6PrjSjv7S0tLP5mm0YDdhgAEZiNgZtCWlvXPtpRXv19RcXwk68VtBFeC63I7cOKlVVtqw9Z1qVtuPH55Mj8v7Ay04RSMdl8oi/XfKIwP3M9rOXY4eUUCBRhscQAHcAAHcOBJB/zR18aEcg5JKX96thqcxyAAgTQjYFnWH9hCjDUEA28PZa/dvdyBie0T2o0DZjmqxmBoUuqGO4TlhYfluVj5a7ovlcT6zBrRN3KbR7ufHNz5nYIPB3AAB3AAB5LjQEX0jVGhnGGWsUqzkMTuQuBxAuFw+PO2lOvNfc1mMjBCK6HVLQ6MrlnVURO2bgjdfGuuMMjjiwvUZlKxH90P3XpiG4VScgoluMIVB3AAB3DgcQeC0fWnpFK3zS2Sj9fj/AwBCLicwMqVKz+spczSQtzYUFY6zH3NhGa3hGazH+Ye59qQNSW4VHtBk4Mt6kuEx+6Hzms6MpLdOrHx8QGenyn4cAAHcAAHcGDpHaiKNP3AXMLNPdAuD0vsHgRmCAghfl8LcbIpGDh1OGvNTjeFJvaFEG9m1a4LW9e4x3lxZ5UTDdKBaPfFklj/rcL44E1fy9heCqWlL5RgClMcwAEcwIHHHTD3QJtJxJiFeyad8C8EXEjATFIQkbLOEeJaZ55vkKBKUHWbA9PBORS+KnUzk4MlMqv2Ejy3srbn4aXcTQffzm4Z73h8kOdnij4cwAEcwAEcWFoHzCzcZhkr1oF2YWhilyAghPiGlvLKq2VlYyaguC00sT8EeXPrQH0odIXlqFJzxnm2M9TB6N7zZQ19N4riA/d8TceGKJSWtlCCJzxxAAdwAAfec+DhOtBCOd1+v/8nSCsQgIALCAghft6RcldtKHRuX87aPYRUQqobHTDBuaGq6rLUjazjvARnkWcLxok85q/tuVQc779T2Lj/Ym7r+Pb3BnqKHljgAA7gAA7gwNI5MNEerG47qbTdGQqFPuqC6MAuQMC7BJQQ39ZCXN9YXHz09IuERjeGRvbp4XJUsWDVRaVit6qqu5I3QZYLQmkiAdYNz11X1zNVZNaGbjp6aOkKBYouWOIADuAADuDAew5MtPsjrRNSOdtZxsq7uY2WLyOBcDj8RVuI7tpw6NzhtVm7CGh8ceBWB8yXOk3+4DmlGgjOLg33gZruiw/PQg9dzmk7vuO9wZ7CBxY4gAM4gAM4sDQOmDPQzaeUdr7/3HPPPb+MMYJNQ8BbBLQQ39FSXt9SXHyYs82EZreG5pn9aqvwv61l3W3OOC/ffc4LPcNdXt97ffosdMuxw0tTKFBwwREHcAAHcAAHZhzIaR3fGI7E3hFK13orvdBaCCwDgUAg8Lnpe5vN2easl1h+isvU22cCqlv/fX3dupO2it4hOLs/OM8EbLOs1cy90DmtJ7bNDPj8S/GHAziAAziAA8/ugK/txOawXXdOKLtiGeIEm4SANwgIIb6mpby2sbTk6MTq7210a1hivzgTPuPAppKSES0jd4ORzvMzwYx/0yRER7sn19X3ThXGB+77Wob3USw9e7EEQxjiAA7gAA7MOOBrGe2w7OgFqZ0sbyQZWgmBFBEIhUKf0EK0VlvWJWbSJpjOBFO3/7u9sOCQls79UGTXBQJzmgTmWe7HNjNyF8X67xU0Dr2b3TqxZWbQ518KQBzAARzAARx4Ngd8rcPbhI5cUUp9O0Wxgs1AILMJWJb1W7YQ775WXjZmlvlxe2Bi/wj3xoHOPN8+Le37VZGdFwnO6Rucf9R30e5Jsy50Yaz/Tm7zaBfF0rMVS/CDHw7gAA7gwIwD+U2HdgoduWZZ1l9ldqqhdRBILoHnHSmzbCGu78nLHSCUEkrTxYEeX06flupBKLKD4DzLmdwfBdI0/Ftlbc/Vh0taHRmZGfT5lwIQB3AAB3AAB57NgYLGod1SO1NKqT9Jbrzg3SGQgQSEEJ+1heiqrwqeHc5asz1dQhP7ScDfn/NKp5b6fjiy7VI6h0T2fe6z5cGangsl8f7bhfF9l5lM7NmKJYpN+OEADuAADsw4UBgb7JLKvm5Z1m9kYLyhSRBIDgEp5Ze1EJfMpGAsQUUYTacvJI6+smaHI9W9kLPpKuFz7vCZKWzMZGJF8YF7uc0jvTMDP/9SBOIADuAADuDA4h0obujql0pfCYfDX0xO0uBdIZA5BJ5XQvgcIa7156ztTqfQxL4S8kezVnVELHFbOG9ey5RwSDvm/wLAX9tzuTDWfz+v6fAYxdLiiyXYwQ4HcAAHcGDGgbK67Qekts9UVFR8JnNiDi2BwBISsCzr02bt5vqq4LsjWS9uI4wSRtPJATORXW0ofF3a358icM4fODONUTDafaEk1nenIL7/Uk7reMfM4M+/FII4gAM4gAM4sDgHKms2DEvtHPD7/T+xhJGDt4JA+hMIhUK/qaU89+a60hEu0yY0p1NoNvtqnI0Fgxekit/KtFBIexL7ImB6TejYwF1m415coUSBCTccwAEcwIHHHQhWt52USnesWLHiQ+mfeGgBBJaAgLSsb2lm025Pt8DI/r73Jcf6ysozStXdrqrumiRsJhY2M5FXZV3vlenZuJuPHXy8AOBnCkIcwAEcwAEcSMyBnNbxjSEn/o6QunoJYgdvAYH0JbBy5coPK8uKVIfDlw5nvbSTMPZeGINF+rBoLykd1bL6bjCy53wmBkHatLgvAwLR7otFsf57+fEDZ7JbJzZSLCVWLMELXjiAAziAAzMO+NpObLbs2vNCqez0TT7sOQSegYBS6mdsIQaaAoHT42tWbSYspk9YpK/e66vOgvx9tnLuBSOdBOc0XK852V8MBKN7z5fE+m8VxvddzW47uXWmCOBfCkIcwAEcwAEcSMyB3OaRrUJHriilvv4MEYSXQiD9CCilfl1LeX5Dackx7m9+L4gRStOLxb7ctV1KqAehyI6LyQ5hvP/izv66hduP7oNuGeukWEqsWIIXvHAAB3AAB2YcyG86sEso+4aU8rfTLwGxxxBYBAEhxF9yf3N6hURC/Qf7a2Yt57Cz+YpbAhr74e6AXVnbc9XcB+1rHhmcKQL4l4IQB3AAB3AABxJzoKShp09q+7JlWV9YRBThJRBIHwK2lC+b9ZuHstfuJpB9MJDBJD2YmNsMomHrpmW/cZ3A6u7A6rb+8dd0XzLrQec3HRmhWEqsWIIXvHAAB3AAB2YcWFfXcUgo50RZWdnH0ycJsacQWCABn8/3EWVZjbXh0ORI1mrWb34xPUIiYf6D/fRwSaqqi1I333BbMGN/0iPIB2t6LhQ19N8taBo6y0RiFIIzhSD/4gIO4AAOJOaAP7r+uFD2DpawWmAg42npQcDv93/KFqKvye8/fWr1qk0Esg8GMpikD5NXKypOsyRVeoRUV3+ZEO2eLGnoMxOJXcluGe+gYEqsYIIXvHAAB3AAB7LbJtrNElZKOyI9UhF7CYF5CJh7EbQQpzaUlQ4zMVj6BETC/Ox9tb248LCtIvdYkorwvFTBvKy+d6owNnArp+34DgpBCkEcwAEcwAEcSMyB3NaxLZaOXhJaf2eeWMKfIeBuAkKIL2khLm0rLjxIGJs9jMElfbj0+XJ6tLTvh6p3XViq4MT7EMKNA+V1vdeK4gP3cpmJu52iMbGiEV7wwgEcwIHT7flNR7ZL7VyTUn7Z3emIvYPAHASMvMyonT7BkBD/9L4yM2vbQt0PRzouE3gJvMlwYGYm7tzmkV4KIYphHMABHMABHEjMgaJYb7fU9tVwOPzFOeIJD0PAnQSUEN+wpZzqy1m7l1D29FAGH/fzMffp14TFDWbWJjQnIzQ//p7+2p7LRfH+B3lNx4YomhIrmuAFLxzAARzAgbL6rQeldsbKy8s/5s6UxF5B4AkC0rL+v4hlXTn0StZbBEP3B0P6aP4+avIHz0ndePPxkMPPBOlkORCo6b5YHB+4l9d0+CiFIIUgDuAADuAADiTmQKB6/bjSzhtPRBR+hYD7CCgh8qst69KRrDXbCWXzhzIYuZ/RppKSEVtF71RVd00mKyzxvgTxJx2YXsoq1n8vv+nwGEVTYkUTvOCFAziAAx53oOX4prBd9wOh7Ffcl5bYIwg8JPC8ltIyaziPvvTiVkKh+0MhfTR/H/Xk+fqmJwiLMEHYk+GO35Mf+IPR7um1oPMbD56iEPR4IdhG+/kM4AAO4EAiDuS1Dm97NIHYfyOsQcBVBMyi5LZlFdWHqt4dW71qC6Fs/lAGI/czOvTymrdsqe6HIluZIKw6+UGRMD4742BN9/nihr47BY2HjidSNPBcikwcwAEcwAGvO1AY6++Syr5WVVX1b10VntgZ7xLw+Xw/poV4LR4IvG0mVSIUuj8U0kfz99H4mlWbqy1xK2y/eZ1QN3uog0sKuUS7J0tifbcL4kPnslsnNnq9GKL9BAIcwAEcwIGFOlBWv3NIanuirKzs495NbLTcFQRWrlz5YS1le2MwcGZi9fc2EsrmD2UwSg9GZoIwpZtvEBBTGBA5u/30e+pnAnTj0CQBmqJxoUUjz8MVHMABHDjd7q9+dUxq53VXBCh2wpsEzBlnR8qOJr//NME5PQIhwX1h/bSluPioltV3mSCM4Oy6L09MgG7ou1XQuP9CduupTRREFMU4gAM4gAM4sAAHpicQq5kUWn/Xm8mNVi8rAZ/P90K1ZdXWhEJXCc4LC2QE1/TgNJjzcpcS6kGo+q0LrgtOnJl9+plZr/B5FKALG/dfpGBaQMHERFvteIInOIADOHC6Pa/x8A6p7Skp5W8va5Bi494i4PP5PmJLubuhKjhJcE6PQEhwX1g/jWat6nCEvBt2Nl0hOHPW2e0OlMT67xbE913hEm6KYopiHMABHMCBhTlQ3NDVL7Q9WVFR8RlvJThauywEzD3OtpTbmysrJ06/uLBAQnCDUzo4YHxuqApdErqV+5y9cgY33dsZ7Z4saui7//ASbiYRo3BcWOEIJzjhAA543YHKmg3DQjm7zZW0yxKo2Kg3CEzf4yzEpuZA4BRnnAnE6RCIE9nH9tLSMa1q7nCfM2ec3X7G+X3796N7oJlEzOvFIO0nEOEADuDAQh2YaA87DWeFsvO9keJoZcoJmHWcHSHeaAwwq3YigYznpseXDL2+nF4t7ftVkd3c55zuZ2O9uP8zs3CbZay4v5f7e3EAB3AAB3BgXgfym0e2CuVctyzrKykPVmww4wk8b0vZvGFd6T7OOKdHGCS0L7yfRrJWb3OkuheKdFx+3xk9L4Yw2py+E5LNBOjGQ8cJ0As988DzcAUHcAAHvOxAUbxvr9T25XA4/PmMT3M0MHUElJSyvip49tTqVZsIZQsPZbByPytzn3N9KHxF2q9dJzhzuXbaOxDtnixu6LuT33jwlJeLIdpOGMABHMABHFioAxW1G48Kbfdw/3PqsmVGb0kJkV8bDk2OrV61hTDo/jBIHyXWR+1lpaNa1d7mPmeCc9oH50dXDQRrus8XNfTfzW86PLbQwoHnUWTiAA7gAA541wFz/3PsHaHs3IwOdTQu+QS0EN+ttqxLoy+9uJVQllgog5f7efVlr92rhH4QiuziPmcu107fy7Vn6btgtPtCUaz/Xl7T4aPeLYYohOl7HMABHMCBhTngax3eJrUzJYT43eQnLLaQkQSUEN+IWNaVI1lrthME3R8E6aPE+shcSeFYrOecKWdbaccHrxwI1vRcKI4P3MtrOjZE8bSw4glOcMIBHMAB7zpg1n+Wyj4XCAR+KiPDHY1KHgEp5ZdtKacOvZL1FqEssVAGr/Tg1RQITErdwnrOs5y1JIh+MIimK5NATffFonj/g9zmkV4KQu8WhPQ9fY8DOIADC3PAX/P6qNT2huSlLN454wgIIb6khbjel7N2L0EwPYIg/ZRYP20vLDykZfVd7nPOnJCYruE2Ffvtr+25XBQfuJ/bMtZJ8bSw4glOcMIBHMABbzqQ0zq+0bJrzgulvp1xIY8GLT0By7K+oIW4tCcvd4BAllggg1d68DqwNmuXEupBKLLzYiqCC9sgoLvBgcranqtF8YF7OW3Hd1AQerMgpN/pdxzAARxYmAP5jQffksqesizrV5c+bfGOGUPA7/d/Sgtxaltx4UGCYHoEQfopsX4ya5TXhMUNy9lwzQ2Bhn0gWKfSgfK63muFsYFb2S3jHRRQCyug4AQnHMABHPCmA2V1b+2X2hnz+XwfyZiwR0OWjoARw7Gs/g1lpcMEssQCGbzSh9fr69adVKrhVioDC9siILvJgbL63qnC+L4r2a0TGykIvVkQ0u/0Ow7gAA4szIFgdfMpqXVg6RIX75QxBGwpm5v9/lOnX0yfIERopa8ScaA/Z223lvb9YKTzvJvCDPtCuE61AyUNfbcKmobOUjwtrHiCE5xwAAdwwJsO+FpGO6SOXLMs6w8yJvTRkGcnoIR4pTZUNXlq9apNiYQRnkt4TRcHxtes2vxwWarNV1IdVNge4dh1DkS7J4sa+u/mNx0ZoSD0ZkFIv9PvOIADOLAwB0oaevrM8lVlZWUff/bUxTukPQEhxF86QlwbyVq9LV2CEPtJaE/UgTZ/4B2pm266LsSwTNQkfbI8Xy6YNaALY/33fc0jgxRQCyug4AQnHMABHPCmA/7o+uOWtBvTPvjRgGcjoJT6dbMk1VD22t2JhhGeT4BNFwf25OcO2Cpyj2WpliekEY7dy91f032JJay8WQgSAOh3HMABHFi4A762E5stXX1ZSvkXz5a+eHXaElBK/YwtxKQJFukSgthPAnuiDoy+9OJWW6j7IWfrZUKce0McfbN8fWOWsCqMDdzNbju5lUJq4YUUrGCFAziAA95yoDA22CW1fdVkqLQNgOz44gisXLnyw7YQAxtKS44lGkZ4PgE2nRyIBasuSPv7U4Sz5QtnsHc/+3UPZ+C+ygzc3ioEKfzpbxzAARxIzIHymg3DlnK2LS6B8aq0JaAsK9IUCJxmZm2CcDoF4UT3dUdhwQFbRe9wubb7wxsBe/n7qCTWfys/fuAMhVRihRS84IUDOIADXnJgot2ya89Jqb+ZtkGQHU+MgLSsb1WHw5fM7MOJhhGeT9hOFwfMBHi2VPdDke2XCGbLH8zoA/f3QTC693xRrP9eXvOxgxSCXioEaSu+4wAO4EAiDhQ0Du0WSl8Ph8OfTyyF8ey0IxAKhX7TTBB2OOulnekSgthPAvtiHIgFg1yuzUzezOSdoAOBaPfF6QnEmke7EikkeC6FJw7gAA7ggJccKK/deExqe2vahUF2eOEELMv6tJby3J48JghbTBjjNekT4ncXFOzXsvoul2u7/2wnZ6Td10dmArGi+MCdnNbxDi8VQrSVwh8HcAAHcGChDuS0jm+07OgFKeVfLzyN8cx0IvC8I+WuN9eVjhAC0ycE0leJ99X07NpS3Q9HtnG5doJnHQmy7guyy9UnZgKxgvj+SwstIngeBScO4AAO4IDXHCho3N8plX2N2bfTKRIvcF+VEL76quC7TBCWeBgjwKYXs6ZAYFLo1hvLFTrYLgE0UxwoifXdyWs6POa1Yoj2EgBwAAdwAAcW6kBlzYZhoSMbFhjJeFo6EJBSftkR4tpI1ovbCILpFQTpr8T6qzMvb9BWkXtcrk2AzZQAu5ztCEa7LxTG+u/nNo/0LrSI4HkUnDiAAziAA55yoOX4JqGjF4UQX0uHXMg+zkNACPFZLcSl/py13QSxxIIYvNKL12jWqg5bqPshZ+vl5QwcbJvgnkkO+Gt7LhfFB+7ltJ7Y5qliqI3il/7GARzAARxYmAOFscEuqfQVM7/UPNGMP7ucwPO2EF0bS0uOEgTTKwjSX4n3V2tl4KzQLVyuzX3OzLC9xA6Y+58L4/suU0QtrIiCE5xwAAdwwHsO+GveGBHSbnF5NmT3nkbAlvLl+qrgWe5zTjyIEV7Ti1lfztoeLe37XK7NWd9MOuvrpraUxPtv5zUdGaEg9F5BSJ/T5ziAAzgwvwO5reby7chVpdQfPS2f8TeXErAs67dsIa4PZ63ZThBMryBIfyXWX6dWr9oUscTtsLPpipvCBvtCkM8kB4I1PRdY/3n+4okCE0Y4gAM44F0Hihu6+oWy3w6FQh91aURkt2YjEAqFPmEL8S7rOScWwgit6clrQ1nZcaXqb2VSUKEtBG83OmDWfy6M9d/Jbp3YQnHo3eKQvqfvcQAHcGBuB4KRlgmh7MLZMhqPuZSAFqL1tfKyMcJgeoZB+m3h/Xbolay3tFQPQpFdF9wYNtgnQnCmOVDW0HejoHHoXQqnuQsn2MAGB3AAB7zrQF7r8Dah7BtSyl92aVRktx4nYKZJr7asS+ZSVkLYwkMYrNKTVX0ofMWy37ieaQGF9hC6XetAtHuyKNZ/z9cyvI/i0LvFIX1P3+MADuDA3A6U1W09JLXT93hG42cXEggEAp/TUl7bl7N2D2EwPcMg/bbwfttRUHBAy+q7TBJG0HRt0FziWa/d0k5/bc+lwvjAfZavmrtwoqiEDQ7gAA542YGJ9rBde04I9Q8ujIzs0gwBR8pdLEu18PBFUE1fVj9a0zmy/ZJbAgX7QYj3kgPTy1c17r9Icejl4pC24z8O4AAOzOVAQXx/p9T21YqKis/MZDX+dREBLcR3asOhcxOrv7eRUJi+oZC+W1jftfkD77CmM2HVS2HVdW2Ndk8Wx/vv5LUcOzxX4cDjFJU4gAM4gANedmB67WflxF0UGdkVQyAQCPyClnLqcNZLOwlfCwtfcEpfToM5L3eZNZ2DkT3nXRcoMvQyXTjzRcVsDgSi3RfN8lU5bcd3eLk4ou2EAxzAARzAgdkc8LWd2CyUc90sIUxqdREBW4juLcXFhwmE6RsI6buF9d3pF/+1vSYkpsLOhmuzFfM8RsjDgdQ6UF7fe72wcejybEUDj1FM4gAO4AAOeN2B0rrd+6V2jvp8vhdcFB+9uytKiG/Xhap+YEIFAQwGme7A9sKCQ1pF7xCQUhuQ4A3vpzkwffl209FDXi+QaD8hAQdwAAdwYDYHwk7du1LKb3k3sbqk5UKIn9dCXD+8NmtXpocm2scXA2OrV22xpbofYpKwyacFGf5G0E21A4Gah5dv57aOb5+taOAxikkcwAEcwAEvOzAzeZiUzOUWAgAAIABJREFU8qddEiO9uRvTs2sXFx8lWBIsveDAqxUVp6VuvpHqYMD2CKM4ML8D6+p6pgqZfbvdy8UhbScc4QAO4MDcDvijr45Z2ra9mVpd0GohxDdqQ6FzXK5NcPZCcB7KXrtbS/0gGOlkkjAmJePMu0sdMJdv+5qODVE8zV08wQY2OIADOOBNB3wtox1C2TfC4fCvuSBKemsXzCl/LeWVfTlr93ghONFGviCoC4WvWvab1zkDOP8ZQBjBaLkc8Nf2XCqKD9zLbhnvoDj0ZnFIv9PvOIADODC3A2X1Ow5KHen3VnJ1QWsjUta9WlY2RqgkVHrBgd0Fefu1rL5bVd3FGUeXnnFcrrDGdt33RUFZQ9+NgqaDb1M8zV08wQY2OIADOOBVBybaLbv2nFLq6y6IlN7YhXA4/HuOENfG16za7IXgRBu9/QXBqdWrNjlC3g1FOi4TlNwXlOgT+uRJB4LRvecLY/33fS1jeykOvVoc0m7cxwEcwIG5HCiK9+0V2p70+Xw/7o30uoytXLly5Ye1ECc783yDhEpvh0qv9H97ScmoUvW3nizQ+Z3QhgPudaCytudqYXzwZnbrxMa5igcep7DEARzAARzwqgPBSMuEUOqVZYyV3ti0ljKrKRg45ZXgRDu9/QXB6EsvbtVSPaiK7LxIUHJvUKJv6JvZHCiJ9d/Kazoy4tXCiHYTCnAAB3AAB+ZyIL/p0E6p7Sml1M94I8UuQyvD4fDntRA3Dmet2Umo9Hao9Er/r6/0nxG6haWpuM+Ze93T0IFA1Kz93P8gp/XEtrmKBx6nsMQBHMABHPCqAxXR10eldqqXIVZ6Y5O2lOs3lJUOeyU40U5vf0FwOOulXeasM0tTcVZztrOaPJYeXqyr750qaDzwA68WRrSbUIADOIADODCXA2bpKqmdqVAo9O+8kWZT2ErLsv4gYllXzeRJhEpvh0qv9H8sWHXRsl9naao0PONIsE2PYJuSfop2T5rJw3KbR7vnKh54nMISB3AAB3DAqw6U1W49LJWzM4WxMvM3tWLFig/ZQox15vn2eSU40U5vf0HQm5vTa6vIPZamIoSlJODxBUVSL4uvrOu7WhQfvOHVwoh2EwpwAAdwAAfmciCndXyjpasvSym/nPmpNkUtlJb1zw3BwNsESm8HSq/0/+kX/7U9GrJuhpxNVwlOhGccyAwHSmJ9t/Najh2eq3jgcQpLHMABHMABrzpQXN85KLUz5vP5XkhRvMzczYRCoU9oIa4OZa/d7ZXwRDu9/SXBWwUFB7SsuU1oyozQRD/Sj8YBf033pcL4wP3s1oktXi2OaDfBAAdwAAdwYC4Hwk7DO0KIv8vcVJuilknLqvx+RcVxAqW3A6VX+n9i9fc2Opa8G4p0XCZ0EbpwILMcKIv138hvPHhyrsKBxykqcQAHcAAHvOpAYay/S2h70ufzfSRFMTPzNmNZ1he0EDdHsl7c5pXwRDu9/SVBR3HREa3qbhGaMis00Z/0p3EgGO2+ML10VdvxHV4tjmg3wQAHcAAHcGAuB6oijaeFEN/NvFSbohbZQry6sbTkGIHS24HSK/0/vmbVZluo+6HI9kuELcIWDmSmAyxdRdE4V9HI47iBAzjgdQcKGod2S21fLS8v/1iK4mbmbEYI8Z9YmorQ7JXgbNrZXlY6qnX8JqEpM0MT/Uq/TjvwaOkqX9vxPV4vkmg/QQEHcAAHcOBJB4LVLSeldHIyJ9WmqCVaiN4dBQUHvBSeaKt3vywYzVrVoYV6UBXZeZGQRcjCgcx2oLyu91pBfN+VJwsGfqeIxAEcwAEc8LoD+U2HdkptT/n9/k+lKHam/2Ysy/pKtWVdNEv2EChh4AUHXl+37qTSzTcITZkdmuhf+nfGgaJY/73c5pFerxdJtJ+ggAM4gAM48KQDgeirY0LZ/vRPtSlqgW1ZxzrzfPu8EJpoI18OjGSt3qalehCK7LowU1jzLyELBzLbgcq6vquFscGpJwsGfqeIxAEcwAEc8LoDvtbhbVLZN8Lh8OdTFD/TdzNKqa/WhkLnOOtMqPTKFwvrK/1nhG7lrHN1ZoclwjD9+6QDxfH+O77mkUGvF0m0n6CAAziAAzjwpAOVNRuGpXaq0zfVpmDPV6xY8SFbylO9vpxerwQn2untLwmOZK3Zbs46ByOd558srPmdsIUDme1AZW33lcLYwK0nCwZ+p4jEARzAARzwugO+ltEOc/bZLF2cghianpuQUv5NQyj4NoHS24HSS/3PWefMDkeEX/p3PgdK4v2385qHh7xeJNF+ggIO4AAO4MCTDpizz0LZ0fRMtknea5/P94It5Zm+nLU9XgpPtNW7XxRw1plgNV+w4u+Z78j02ef4wO0nCwZ+p4jEARzAARzwugPTZ5+1fVMI8fNJjqLp9/ZCiG/UVwXPEia9Gya91vfrKyu515n7nCcJyJkfkOfrY3P22dd0jLPPbRTKXi+UaT+fARzAgScdqKh5c0QqO5J+6TaJezx91lmI032+HM46szyXJ5YnG+ZeZ0IjXxzgwCMHzNnnovgg9z4TntufLBr5nSCBAzjgdQdmzj6HQqF/k8Q4ml5vLaX86zrOOnsiNHrt7PJc7eWsM2cb5zsbyd+95cj02efm4f1eL5JoP0EBB3AAB3DgSQfM2WdL23Z6Jdzk7e3zthAnudeZy7XnCpqZ9jhnnb0VigjB9PdCHHh47/PgzScLBn6niMQBHMABHPC6AzNnn/1+/88lL5KmyTtLKf+iNlT1g0wLSLSHLwPmcuDViorTQrewrjOXLXPZMg68zwGz7nNey+iA14sk2k9QwAEcwAEceNIBf82bI0LZOk0ibvJ205byYGeeb3CuoMHjhNBMcmAk68VtrOvMmciFnInkOd7zpLK252ph475rTxYM/E4RiQM4gAM44HUHHp19ngoEAp9LXjJ1+TtLKf+Pasu6eJpJsrjf2SMOvFFePs5ZZ++FIoIwfb5QB4pi/ffy2sa6vV4k0X6CAg7gAA7gwJMO+GteH5VaV7o84iZv92wh3tpRWHAwk84s0hbOlM/lwNjqVVu0UA9C1bsuLLSQ5nmELhzwlgPldb3XChv3X3yyYOB3ikgcwAEcwAGvO5DfdGS7VPpGaWnpJ5OXUF36zlLK/+AIcW1i9fc2zhU2eJwgmkkObCopHpE6fpMw5K0wRH/T3wk5EO2eLIz13/e1Ht/t9SKJ9hMUcAAHcAAHnnQgEGkbt6R82aURN3m75QjRtLm46EgmhSPaQtify4FTq1dtsoW8H4rsuJhQIc2ESu+bUAl2BFEvOFBe33u9oGno7JMFA79TROIADuAADnjdgfymA7uk0ldCodBHk5dUXfbOwWDwZ20pb46uWdUxV9jgcYJoJjmwvbDgkFZ1t7xQ+NNGAi4OPJsDwZru84Wxvh9mt53c6vUiifYTFHAAB3AAB550oKq68ZQQ4tsui7jJ2x0tZcFrlRVjmRSOaAthfy4HzIR4EUveCUU6LhMqni1UwA9+XnGgLNZ/I6/x0PEnCwZ+p4jEARzAARzwugNF8b69UtlnfT7fC8lLrC55Z3OKXQtx9dArWW/NFTZ4nCCaSQ505vn2aRm945Win3YScHHg2R0I1HRfNPc+Z7ee2uT1Ion2ExRwAAdwAAeedCBs1521LOuvXBJxk7cbUspvxgKB05kUjmgLYf9pDtSErBthZ9MVAsWzBwoYwtBLDpTE+m/5Wo4deLJg4HeKSBzAARzAAa87UNzQ1S+UM5y81OqSd7aFGO3Nzel9Wtjgb4TRTHGgz5fTo2XkrpcKftpKwMWBpXGgsrb7SlF88IbXCyTaT0jAARzAARyYzQHLjk5alvXHLom5S78blmX9TrVlXTT3gGZKOKId9OXTHIgFqy6E7TevEyaWJkzAEY5ec6Ao1n8vt3m0a7aigccoJnEAB3AAB7zsQFn9joNCOduXPrW65B1tIVpYnoqw+bSwmUl/O5z10k4t9YOq6i6WW2LJLRzAgUU5ML1sVePQu14ujmg74QAHcAAHcGA2B3Jbjm8Syr4hhPgll8TdpdsNv9//KS3lrdEslqfKpIBIW+b+MuTViorTQrfd8NqZMtrL2WEcWDoHfrRsVct4x2yFA49RUOIADuAADnjZgfKaDcNSO2rpUqtL3kkLsaqtsvIEYWvusAWbzGEztnrVFi3Vg1Bk1wWCxNIFCVjC0osOlDX03cxvOnLMy8URbScc4AAO4AAOzOaAr3V4m9T2zdLS0k+6JPYuyW48b0v59r7ctV0ExMwJiPTl3H25pbjomNbxm14s9GkzARcHltYBf0335cL4wO3ZigYeo5jEARzAARzwugOBSOu4EHrVkqRWN7yJUuqPakOhHxC25g5bsMkcNmZCvIhQd8KRbZcIEUsbIuAJT686UBzvv+NrHu3xeoFE+wkJOIADOIADTzpQ0LRvj1D2uRUrVnzIDdn3mfchIkTb1uLCwwTEzAmI9OXcfdmZ5xvUsvqOV4t82k3AxYGld4CJwygWnywW+R0ncAAHcOA9B8J23Vml1FefObgu9xuEQqFPMFHY3EGLEJp5bOpC4avhyMarBIilDxAwhalXHfjRxGGtE1solt4rlmABCxzAARzAAeNASaxzn9CRweXOvs+8fSnlyuZA4CQhMfNCIn36wT4dyl67W0v7PstTEfK8GvJod/LcL4313/Q1HT1EoUihiAM4gAM4gANPOjDRbtnVl4UQX3rmALucb2Bb1sEuX04/QeuDQQsmmcdkfaX/jLDXTxEgkhcgYAtbrzpQWdd7pbBx3zUKpicLJn7HCRzAARzAgdPt5bWbjklt1yxn9n2mbYfD4V9xhLhmJlAiKMIg0x0YX7Nqs1meqiqym+Wpqgl4Xg14tDu57hfG+u/ntIy9RZFEoYwDOIADOIAD73cgv3lkq1m2qqys7OPPFGKX68VKiJI315WOZHpoon18MWAc2F5ccFip+luEh+SGB/jC18sOlNX33shvPniCgun9BRM84IEDOIADOGAcCFY3nxRCfGe58u8zbVcLcW7/2pc7CZeESy84EA2Lm+HIlsteLuxpO8EWB5LrgL+m+1JRfOAORSJFIg7gAA7gAA580IGieF+PUM6JZwqxy/Fiy7J+J2pZ570QmmgjXw70Za/dq6Vzj+CQ3OAAX/jiwN7J4tjA3dzm0S6Kpg8WTTCBCQ7gAA7ggNDVF8Ph8O8tRwZe9DZtIfSmkuJjBEuCpRccaK0MvGvZrzFRGPc6TxLuCPjJdqC8vneqoPHgaQpECkQcwAEcwAEc+KAD6+q2HhY60rboIJvqF/p8vh+zpbx69JU1O7wQnGijt78gGM1a1aGl+mEw0nk+2UUz708wwwEcCES7LxbGB+5nt05spGj6YNEEE5jgAA7ggLcd8LWMdkilb1mW9elU5+BFbU8p9Sd1oap3CJXeDpVe6f+OoqJhqeM3CTWEGhzAgVQ5UBLvv+1rHumjQPR2gUj/0/84gAM4MLsDgeq2E0Ko1YsKs6l+kS1lw+bioiNeCU+009tfEkQseTsc2XYpVUUz2yGg4QAOlNf3Xi9oPPAORdPsRRNc4IIDOIAD3nagMDbYJZT9dqpzcMLbW7FixYe0lNePZK3ZTqj0dqj0Qv/35ZiJwiJ3CTOEGRzAgVQ6EKzpuVAU739Acejt4pD+p/9xAAdwYG4HhI6eF0L8fsKBNpUvsCzrj2tDoXe9EJxoI18OtFb43xH269dTWTSzLUIaDuCAcaA43n/H1zzaQ+E0d+EEG9jgAA7ggHcdKK/rOCK1HUtlFk54W8qyIluKi48SLAmWme7A+JpVm7VUD6oiuy8QZggzOIADqXagvK5nKj9+4AyFoXcLQ/qevscBHMCBuR3Ibx7ZKqR9s7y8/GMJh9oUveB5LeWVw1kv7cz04ET7+HLgrYKCA1rV3Up1wcz2CGk4gAPGATPrdlF84B6F09yFE2xggwM4gAPediAUaZ4QQvxDirJwYpsxi1HXhkI/IFgSLL3gQF0ofDXkbLpKkCHI4AAOLJcDRbH+O76Wsb0Uh94uDul/+h8HcAAHZnegpGHPgFDOQGKpNkXP1kKUv1laMuKF4EQbvf0Fgbm6Qkv9oKq6a3K5ima2S2DDARxYV987VdB0aJyiafaiCS5wwQEcwAFvO5DTOr5RamcqFAr9Yooi8cI3YwtxcjDn5S6CpbeDpRf6/82y0hNCt9wgvBBecAAHltMBf0335cLYwC2KQ28Xh/Q//Y8DOIADczvgr3ljVCq7aOGpNgXPDAQCv2BLOXX6RYKjF8Kjl9toHHeEuhuK7Li4nEUz2ya04QAOGAfMklU5bcd3UDjNXTjBBjY4gAM44F0HChqHdgtlX/D5fC+kIBYvbBNCiP+3rbLyhJdDFW33xhcnvbk5vVpW3yG4EFxwAAfc4EBZQ9/NguYjRygMvVsY0vf0PQ7gAA483YGwXXvWsqyvLCzZpuBZjhB7OvN8gwRIbwRIL/dza6X/rGW/PuWGopl9ILzhAA5U1vZcLYzvu0zh9PTCCT7wwQEcwAHvOrCubuthpZ2mFMTi+Tfh8/l+Ukt5+9TqVZu8HKpoe+Z/cWAcZ21nwgqBFQdc5UC0e7Iw3v/D7NZTmygMvVsY0vf0PQ7gAA7M7YCvaXibkPqmz+f78fnTbZKfYVnWn9ZXBc8QHjM/PHq9jzvz8ga1rLntqsK5miBDf+CA1x0oifXdzm0a7qdwmrtwgg1scAAHcMDbDoSchjNCiK8lORrP//aOlKFNJcXHvB6saH/mf3nQGAiet5wN17xeqNN+wioOuMuBcrNkVfOhCQpDbxeG9D/9jwM4gANzO1BWv+OAUM7m+dNtkp9hlqjal7N2D+Ex88Ojl/v4xEurtmilfxiM7DlPcHBXcKA/6A+vO+Cv7bnEklVzF0wUk7DBARzAARzIbR3bIpW+XVpa+skkx+O53z4QCHzOFuImS1QRnDM9WO8sLDioVP0trxfptJ+gigPudGB6yarWE9soECkQcQAHcAAHcGB2B4KR5gml1D/OnW6T/Bcp5d83+f0nMz040T6+HGioCl8OORuvEhzcGRzoF/rF6w6Uxvpv+lqOHaBgmr1gggtccAAHcAAHihs6B4VyupMcked+e0eIVnNGjnBJuMxkB0ayXtympf5hVXXXpNcLdNpPSMUBdzpQUdd7raBx6F2KQ4pDHMABHMABHJjDgZbjm6S2bwkhPjt3wk3iX7SU5w+9vOatTA5OtI0vBrYUFx6VuvEmocGdoYF+oV9wYO9kINp9sTA2cJeCaY6CqY3HcQMHcAAHcOB0eyD6/eNC6O8mMSLP/taBQOAXbCGuEy4Jl5nuQF3YuhZ2Nl+hQCek4QAOuNmBovjA/Zy24zsojiiQcQAHcAAHcGB2B0oaevqUdvbPnnCT+KgQ4u+aA4HxTA9OtM/bXw5wyTZhyc1hiX3Dz8cd4L7n2QslCki44AAO4AAOzDiQ0zq+USr7lpn4OolR+YNvbQsR215ccJhw6e1wmen9bxzXOs4l29WElMdDCj/jgxsdKK/ruV7QeOCdmQKBfykWcQAHcAAHcOCDDgSr205IKf/5gwk3iY/YQrwztDZrd6aHJ9rn7S8H6kPhKyFnE7NsE56ZLA4HXO9AoKb7YlF84DaF0gcLJZjABAdwAAdwYMaBkoY9A0JFepMYld//1uY0txbiBsHS28Ey0/t/NGtVh1bMsu3GM2zsE2d+cWB2B1jvmeJwpjjkX1zAARzAgdkdyDWzbit9u6Ki4jPvT7lJ+s2yrP8erwpOZHp4on3e/nLALMOmVP0tivTZi3S4wAUH3OdAcUPfLV/zyCAF0+wFE1zgggM4gAM4YByoirSMSym/laS4/P63VUJUbCwpGiZcejtcZnr/N1SFLoUjG7lkm8t1XX+5LiHWfSF2ufqkvL53Kr/x4EmKQ4pDHMABHMABHJjbgZJY5z6hnN3vT7lJ+i1iWYO9vpzeTA9PtM+7Xw6MrV61hUu2CSTLFYDYLu4t1oHK2u4rhfF9VymY5i6YYAMbHMABHMABX9uJzVLpO6WlpZ9MUmR++LYrVqz4kJbyjgkXhEvvhstM7/tdBflDWtVxyTZnnTnrjANp5UCwpvt8Ubz/hxSGFIY4gAM4gAM48HQHgpHmCaXU3yY1PAshvhS1rPOZHp5on7e/GGgKBCfDzoZriz37w+s4c4gDOLBcDhQ29N/NbRnrpGh6etEEH/jgAA7ggLcdKK3fOWQppz2p4VlKuXJ9RcUY4dLb4TKT+39i9fc2aql+GIx0nl+u4pftErxwAAcW60BZrP+Gr+noIYpCbxeF9D/9jwM4gANPd8DXMtohlbq9cuXKDyctQGsharcXFx7O5PBE27z9xUBvbk6vltV3Flu48jpCDw7gwHI6UF7fe72gcehtiqanF03wgQ8O4AAO4EDYqXvHsqyvJC08O5Z1tC977V4CprcDZib3/2sVFaeE/erUcha/bJvwhQM4sFgHKmu6LxfGBqcoCikKcQAHcAAHcODpDpTXbj4mlBZJCc+PJgu7O75m1eZMDk+0zdtfDESEvBOKbL+02MKV1xF6cAAHltOBYHTvw0nDWic2UjQ9vWiCD3xwAAdwwNsOFDQO7RbKeTcp4fn/Z+/Ng+PYsjO/GLVHCtsRskf/WJLDIXk0jrFjZizH2NZYMxqHNG1tPTOtkTVU9+vtqSV1t7pb3e1+jwTJRwIoEAsJAsSSlTczqwq1AFVYCG6PBEiQ4AYQxFIACG7YSYIgQez7voOOk8TFSxQKQFWhUKiq/BiRL7Myb968ee6HV+dX595zZVn+5zlG4xDgUt9wGc39//TE8XuKZFo6SMcXzwZ4QQPQwF41kOKsXzAUtlfAKdS3U4j+R/9DA9AANLC7BphiGWOM/S9BB2hK5V2YkfEimuEJ76bvHwbKTqe0SErh9F4dV9wP+IEGoIGD1MAZp3smobC1CU7T7k4TbAQbQQPQADSgbw1kWC91MCbHBB+eRTG7LCW5BYCpb8CM5v53CMZxo/nG2EE6vXg2oAsagAb2qoE0R83UqcKnXXAI9e0Qov/R/9AANAAN7K6B03k1dUyxNAQdni2i+LAmwVAXzfCEd9PvDwPtRw/fVGRlJTunamCvjivuB/xAA9DAQWrgnKN2LMnVOAqnaXenCTaCjaABaAAa0LcG4os6r0uyMidJ0j8KKkArkjTcfOLoHQCmfgEzmvu+MvFUoyI5Zg/S4cWzAVzQADQQDA1k2WqGkl31i3AI9e0Qov/R/9AANAAN+KaBbEv+K1mWvx40eBYE4ZcVSVqIZnjCu+n7R4HijMweo+nzyWA4rqgDAAQNQAMHrYFkl3sl9nxXGRwn3xwn2Al2ggagAWhAvxo4m1f+jMlmV9DgWRTF37Ubje8AmPoGzGjuf7MoLwqWu8MH7fDi+YAuaAAaCIYGUlz1c/GF7VVwBvXrDKLv0ffQADQADfimgVP5T+5JsnkoaPDMGPub4oyMzmiGJ7ybfn8YwBJVgJVgwArqgI7CSQNnnO7phMKWJ3CcfHOcYCfYCRqABqABfWuAlqwyGo3/c1AAWkam7RLAdfTCdXlK0nNJyZ8JJ8cXbQGIQQPQwF40gIzb+nYCAQHof2gAGoAG/NNApvVCpyzLPw0KPJsZu/cgIb4eABm9AKnnvnVmZQ8bLaXje3FUo+Felv9oRLn4fFKw1wx6fR9bzYDl89Yp5eLzCa/Xcz7AjpjrHjJ/3jotFTaNbleOrlmutk2LroaR7crgPOARGghcA2rG7fxHw3Ce/HOeYC/YCxqABqABfWrgtLOykSmWO0GBZ5Movnl28vh9PQMW3j06fzjoivm0VJHklSxLpXdgXAfCcHbijY66QamwaSyQTXDWb8zztt54OeeqGni/HfQac91DdN1xt2d5J3soF56OUzlLaee22cstJR0zVMZ8pQVJ2iJAYzv1N64FDrj7abtMW/Vwkqt+Dk6gPp1A9Dv6HRqABqAB/zRgKGq/Kcny3Pe///1/uCeANhgMv6BI0tLrmMPXAZDRCZB67ld33Mlqk5Qzv59OrLe6bbe6FpwP+tcC2ehebZ0UDSYQDWSzl79e5HVtgWdbzQBFouXzT8aoDOA5PCGJ9x/26J9NGrBWDyQ53atwnvxznmAv2AsagAagAf1qQDTbeyVJ+rd7gmdRFH/DLIrjegYsvHv0/mhwLTW1kynF05uczhBEAu3lrxcCgV26h+7VtpfDc15l3xrBsD+b+VrbxlxvT3gW8tzD9DzHnbdL9Dyv8GytHqBh2tr2IPIMiNPqAccHp4cUV/1iXHHnHTiC+nUE0ffoe2gAGoAGfNdAuu1am2wyJe0Vnr+cm531BgAZvQCp5761C+Kk0XJz27m5oXb8aQg2h+pt5x57wD2HZ9vNV3uKoPsKz7n33q0oxU/GLddfzOXd712h6LngqNsY9u4Nnk2XmyfzKvpWlAvP1PnSGLZ9cEAVak3jeQfX16ed7tn4wrZaOE6+O06wFWwFDUAD0IB+NZDsqqthivnZnuCZMfaDC+lpWKbqCOA52iD75dHDNxRJWcnOqRoIFwd/Ezzbanxq117hmcCWEnzl3nu3TOBuK3s1R5/FgqZRHnmmqLP5Ssu2w8MJnikiTmBNEfD1HwDW6DPNkab66Byf46yB56lsa/XAxubxw0C49AvacXAACNsHbvtUp3vaUND8FI6gfh1B9D36HhqABqAB3zUQd/5lqSQr82lpaf91wABtYiz1ZnJya7SBE94HPwbUGOLqFMk6F07O+UHAM0WP12F307xpS2mnmtSLg7CmzJr9VtcigTA/l22rGSBIdlUNcHDmddG87tXt4Jnfz/fmKy0hH0IfTv2PtgQOirDdVtul5dZOnSp4+hKOk++OE2wFW0ED0AA0oG8NGM25bxhjfxIwPJsZu3w/8VQTYBOwGW0auJqa+oKZLoQVrAUCzwScBJ+BDtum7No0DNtx580i1WO51j6dV9m3yoF8/m6yAAAgAElEQVSW9gTA9tvd6nVttm06T8CsBRdvw7a3g2ca8k3wzjeKgmvrwvFWIIJNYBNfNZBur5lIzH/cB0dQ344g+h/9Dw1AA9CA7xpIc5S2SopyJnB4FsVHlJE42sAJ74MfA+xGcUIw31AzSfvqjO53uUDgmdZLVuG57NWeoujaOc/rw6rVKLIKy7YarwnDCJxpmLbWLv7AMx/Grb0fx4BDaCA4Gsiw14wmuRom4DT57jTBVrAVNAANQAP61kCKq65GUsyPA4ZnE2MDzSeO3gFsAjajSQO09JosyavhNN+ZgCEgeF5fM5kSeO0FOrTwTHOQd8u2zbNvUyIw7XMBz8EBH61NcQybBqKBTGv1cJKzfgGOoL4dQfQ/+h8agAagAd81EH++87okKwsZGRn/pd8ATWs8y5K03BXzaWk0gRPeBT8E1MWdrFEky55gMxBndrd7AoFn6/UXs+pw69LO2d3q3+n6JnjOebgtPNNQbXomH+atXSua6gc8A/R20hmuhVAf1uqBZFc91nou9t1pgoMJW0ED0AA0AA0YTY4extgf+A3PGRkZ/72ZsQnAJmAz2jRQcuZ0x0Gs77wbOAQCzwSvBM/mq217mr/tKzzTs7QbzWfWvpcWnul9lIvPJ3JKO1XA58O0Ndm2MccZGcZ9yiqv1RiOfQfwJKd7Kbbo5W04g3AGoQFoABqABqAB3zSQYb/WJklKgt/wLAjC79iNwttoAye8D34MyBXEMWOYzXcmIAgEnnMretXkXgSte4EKDs9y0eMxqouglyDZceftktq2XPcQfabkXqZLLRO0ia6GYfqce7dnmYZ5UzkOz1SWEoJ9qONDMjLAs+/Qs5e+xL2wM9dAstM9F1/YXgWHyTeHCXaCnaABaAAagAZO59XUSYq5zm94liTpq66szFeATcBmNGmApiGYZHkly/JgkDuY4bL3F54JdAlOaROd9Sq8BvQutpoB281XC7wu2ttudamfPeFZm21bsNUM8OWpaB1oqoMDM6/Lcad7iTKB02fAM6AuIH0iOh9wdP600z0TX9hWD2cQziA0AA1AA9AANOCbBgzFL27IsjJvMBh+0S+AZox970J6Wmc0gRPeBT8E1MWefKhIOfPh6MT7C88bgHu3ZzmQ96HnUcTZc2kqAmaCYQLe3Ls9akIwAmVa+9l0uXmKP0ssaBqlMjQPmrJuc2DOvfduhZa84kC/3VJVHKZ5fdgDrqGB4Gog1emeNhQ0P4XD5JvDBDvBTtAANAANQAOkAdFkf8cY+9f+wvOJq2dOdwA4AZzRpIGylOQWSSnaNE83lA47ZcWm6K23jaBTA6Bey9B9lLCLD6um8gS6gbyDYK8Z5JFiGn5Nc5FpKDbVpb1G8MvyH40wV8PGpl0bmtaApnupXbRutHq/o27QVvZynqLOuffeLVM7aXg3faZnaT/TOdoI5CnTdyDvgnuCC12wZ3TYMzW3djqh4HkbnEE4g9AANAANQAPQgO8ayLBe7mCMHfYLns2MybdSkpqjCZzwLvghID8za8BovjZxUHDAE3xxSA5kb7/VtcijxQSmFBUO9H0Iwmn4tzdo9RzKvV1bpcKmLetlC8764e3K73TeWzsCfTfcFx0AiH4MvB/TcmsnE/OfdMNh8t1hgq1gK2gAGoAGoIFUR8UjUTZf9wueTYxdq0hMeATgBHBGkwbMTF7IttwNfH7wHudfUkSX1kjey0Z1rA+FXvMGrsGCDaPDPURDq223uuZpiLjnZintnFXBexub0LBuikT7ulF0O1htRz2BAxdsFz22S7fXTCS6mgbgCMIRhAagAWgAGoAGfNfAqYKndyXZNOwXPJtFsd4dH1cdTeCEd9H3DwFtx2PKFUkJaH5wOAIFwW04tgttih74Ql9Gdl9m2GtGk5wN43CYfHeYYCvYChqABqABaIA0ICmmaaPR+Os+A7SZsRePTn5WCeDUN3BGU/9XJhgaFMk+CyCIbCBA/6H/oAHfNJBhqx5JcjXMwBGEIwgNQAPQADQADfinAcHs6pJl+S98hmeFscHmE0fvRBM84V30/UPA52lnX4qmiweWLAwOv28OP+wEO0EDwdFAlq1mKNlZvwCHyT+HCfaCvaABaAAagAbSbDdamWzK8B2eJWm2I+ZwGYBT38AZTf1vF8RxwXxjS3IrOOrBcdRhR9gRGggvDWTZqgeTXO4VOIFwAqEBaAAagAagAf80kOysrWWyudEneD506NCXZEla7T4CcIwmeNTzu5CWFUlezbI8GISDH14OPvoD/QEN7J8GklzuNThM/jlMsBfsBQ1AA9AANBB/vqNMkuUF4uJdATojI+NXTIzN6Bm28O7R9cPJo7gTlYpkXoCTvn9OOmwL20ID4aeBZJd7Oe78y5twBOEIQgPQADQADUAD/mlANFkHRFH8l7vCsyRJ/zhHFEcAkNEFkHruz9tJiU8lJX8Gzn34OffoE/QJNLB/Gkh2uhdjz7+4C4fJP4cJ9oK9oAFoABqABjJyijsZYz/YFZ4FQfhtm9HYq2fYwrtH1w8HF85lvDGaPp+Ek75/TjpsC9tCA+GngWSnez6+qKMSTiCcQGgAGoAGoAFowD8NnM0tfy4qJtuu8CyK4u86jEIPADK6AFLP/WkT2JRguTkK5z78nHv0CfoEGtg/DSQ73XOGoo6HcJj8c5hgL9gLGoAGoAFoINlV95Aplue+wPOXczMzu/UMW3j36PnhgJKFyZK8mp1TNQAnff+cdNgWtoUGwk8Dp53u2fjCtlo4gXACoQFoABqABqAB/zRgKH5xQ5KV3ZOGMcb+oysr8xUAMnoAUs99+fjk8ftIFhZ+Tj1AC30CDey/Bk473TPxhW31cJj8c5hgL9gLGoAGoAFogDTATNYhURT/2Y7RZ8bY1wozMl7oGbjw7tHzw8H9xFNNipSHZGE5+++oA4ZgY2ggvDRA8GwobH0EJxBOIDQADUAD0AA04L8GMi2FLyVJ+tZu8PxXRenpnQDI6AFIPfflpbS0LtF8eQpOfXg59egP9Ac0sP8aOON0TxuKWh7DYfLfYYLNYDNoABqABqCBNHtZC5NN2TvCsyzLP7ycntauZ+DCu0fPDwe5RnFMMN8Yg6O+/446bAwbQwPhpYHUvLrphKKWZ3AA4QBCA9AANAANQAP+a+C0s7ZWUsx1u8HzTy+lpnYAIKMHIPXcl4okL2dZKgfh1K879dbqgXP26rE0R80UbXScba1GMjUMa4cGolADKjwXPGuGw+S/wwSbwWbQADQADUADhqL2m5JimtkRnhljP78MeC7RM3BGy7s3nzh6R5FMSwDnD+Ccaa0eTsqrXzU4Hq1+Zn6+RhsdJ+W5VzLsNVjKKwrhCdoPr0hwqPsD8AzHD84/NAANQAPQwN40wBTLeGZm5m9uC9CMscNXUs8g8nwEkedIh+gHCfH1imSfDbXDGo7PIzhOdrnffyJ0vP/R2e5N26fG9vd0jeA6HNuONukbANH/gfd/Wl7d9KmC5y1wnPbmOMF+sB80AA1AA/rVQLYl/5Uoin+2LTzLsnzsKuAZkeco+PHg+umUNqacn9a9822tHqDoMkGyJzjzzwTVFJXGEO7AQUX3OkPkPuyGvqvwXNjcCqdPv04f+h59Dw1AA9DA3jSQbrvaLknSZ9vCM2PsxNUzpxF5jgJ4jPTI8V7bX5iR2Wc0X5vQO9TQvGYans1Bebs9lVHnQAOCwg6C9K5hvH9gP+qk5dZOJxQ8b4PjtDfHCfaD/aABaAAa0K8GUh13Houy+eK28CxJUlwJ4BmR5yj48cBmZNNGS/mI3h1vSgxG85u3g2Z+nspQWb3bC+8fGKjBbuFnN4LnUwXP2+H06dfpQ9+j76EBaAAa2JsGEgsaH0iKuWNHeJZl+T022CDSNSDJ8vtkZ606n5fm9Op5AzyHH9gANtEn+60BwPPeHCY4nLAfNAANQAPQgKH4xQ1JVhYMBsMveAVoGrZ9LfUM1nmOgsjrXoc9R/L9z44fu2uSzIv77ZxGQv0Ytg1IiwSdoo3B12kqhm2XwPGF4wsNQAPQADSwVw2IimWUMfZPvMKzmjDsbCrgGfAc0UPXqxIMbkWyIdM2zV9WE4bVr3rLtM2HbFMyMUoqhoRhwQcYQCFselAaQMIwOIx7dRhxPzQEDUAD0EB3iWBxdUmS9FWv8IylqrBEVSRHnHnbbyYntyLT9hfQQstQ0bB1bxm3CarpGtZ6/sJeBwU7eC76IJgawFJVcHrh9EID0AA0AA3sXQPpts/bKcC8HTz//HJqKrJtI/Ic0ZHnonOZvci0vRlECI4pukxZtWkONG10TEtUYY3nzbYKJsCgLtj2oDSQmlc3nVDwrBmO094dJ9gQNoQGoAFoQL8aoIzbTDZf8ArPsiz/9BLgOaLBkUdf9bxHpu1tgMVaPUBzoCmrNm3q0lTWaizNhOW5oIEo1ADBc2Lh8+dw+PTr8KHv0ffQADQADexdA0nOhiqmmNu2g+cfXk5Pw5xnRJ4j+gcERZJXsiwPBg8q4oPnbgPvUQgo6Gv0dbhqQI08F7U8g+O0d8cJNoQNoQFoABrQrwbWM27PeYVnxthfFaWnd+o5aol3j+x5323Hj5QrkrIcrg4t2gXYggaggVBo4IzTPW0oankMh0+/Dh/6Hn0PDUAD0EBwNCAp5qnMzMxf2wLQjLGvFWZkvABARjZA6rn/6uJOPlQky1wonFM8AxAEDUAD4aqB0073jKGw9REcp+A4TrAj7AgNQAPQgH41YDQ5ehhjv+cNnv+jKyvzlZ7hC+8e2T8c3EtMfKxIzplwdWjRLsAWNAANhEIDBM/xhW31cPb06+yh79H30AA0AA0ERwNZOcWdNEJ7CzyLovjl3MzMbgBkZAOknvvvWuqZTtF0cToUzimeAQiCBqCBcNXAaad7Nr6wrRaOU3AcJ9gRdoQGoAFoQL8aSLNfb5NkOXkLPDPG/rVDyO7RM3zh3SP7h4OCjKx+LFMFoAlXoEG7oM1QaSDZ6Z4zFHU8hLOnX2cPfY++hwagAWggOBpIdVQ8Yorl8y3wLAjCb9uMxl4AZGQDpJ77zyZIU0ZL+UioHFQ8J3pgSLxQPKJUJk6LFwv91k+W4+6gfP/MlFB4ZdibJlipMs7KjBOCrQLLQiHrekg0kOx0z8cXdVTCcQqO4wQ7wo7QADQADehXA7RclaiYW7bAsyRJ/zhHFEf0DF9498j+4UCR5OUsSyWWqQKg+A0olsZP5nL7vvbe5D4+6w2Adzon3zszRffmPP/Rgmc5wX5vwPHu62uO3q+tZTluQ5vQpt/a9NSUL5+Tne7F2PMv7sLZ06+zh75H30MD0AA0EBwNGIrab0qyMr0FnjMyMn7FxNgMADKyAVKv/dd+/PBNRVJWfHEsUSZ6Isb+9qVQ8PkwKzWPbd6UcQJcAmDlwanpzdc8y5rHjJdco9rnCs5bg463H63S/awkZ0x7jZVaxui8teUHi9rzONavBkPR98ku93Lc+Zc34TgFx3GCHWFHaAAagAb0rQFJMc0SK28C6EOHDn1JlqTV7iOAR70CaCS/d0PcZ1UmKWc+FI4pnhG54GOqOz5LMLuXzfbi42X5Vuakue7EDN9y+76mwnfO079f4OdYiXncVHdMfZ6p5uSMkFc+qN1ouDe0FLlaCue+S3K51+Do6dvRQ/+j/6EBaAAaCJ4GRJP9nSiK/2oTPNMHRZJmO2IOl0UyREVi29/GfnZjorKidfhCcYM/7e+XjZUTVZVt/SapyvO+8fJbz0avXn3seX7XzzGflkw9fdo9ee9u85ujh0t3LX/kk5KelMRbvWfP3PEsS+cm3XUvhvIcNZ7Xdvvcc+xIyZS7rnOisqLNs+z4vbstVG/PZ0c32leZYGhUpFwsU4VhsTsOixWv5I0qFUnTfLM0HFaHaxNME+Dy8zvt5VtZE5bnP1zcDcCpbkf3t1a2K2d79fFyOAMY2haZYJ9lqx5McrlX4DQFz2mCLWFLaAAagAb0rYEsS9ELURT/cis8MzbYfOLoFgjyhBc9fu5NMtwcdNhqAtn6ss7d28lmM02NXe/fv3+/trKyOmizVu9UVnttpqXlLd230PN2WHt+rLTkMZ1/v7a2Su3VXtvteLKutlO99/3794OFBe7dyveeTb2zOjs7tzo/v9hnFO5ry09WV3dQXUtDg+Pa874c0w8KdO/qwsKiZ3l6Hl2jPuHXylKSWyTTeXWZKktp54z1+ou5QDZLaaffc14BGZEJGdnWqgFr6/eWCG4tT37q16iFrNzbg4KzdEi+c3aS5knTcHCx+MKI5cnP5sUL50fomqkmboaDs8kdM0ubreO76vMoek1DxKGdCNVOGP9IlWWrGUp21i/A0dO3o4f+R/9DA9AANBA8DWTYPm+XJOnIFng2M/bi0cnPKjmQRPp+vrt78P3q6kogG92rfX+KDHOo9He/2PtOTcQ2VnL18fitsqeeG4dMXq/ndfo8dr30yaZI8Ilj19eWlpboHvWaZrh9T9yJG8vj4zN0bXV+fuFdSlK59l22Ox6+dKGRt2GmufmtthxFgrWf+XHv2dO3CZzVZ83NzfdmZtzl11YmJ2fpPEWK+bnt9hRlnuvoeMe3+Vev+nlb+Dm+5+fnX78e4OfKP786Yy68oyZscj7oX3NVDbwPcFsD0OgDaCi7Nodb2lNSr502AmOtNoSiy8OOno/U4do0t9n00KDWZ2372yWh4CpdU+dBU90E23SvfDttkj6bAM47jhDQ2hnH/v09ZtiqR5JcDTNwmoLnNMGWsCU0AA1AA/rWQKrjVrMkm6St8CyK7rq4k35FKreDoXA4v9DzdoiDlr97ulf7Dhye15aXVwiG/dloiDGBr79t8CzfeyblNm/T8KVLKuhSewh6x65ceaTdeDSb6qC2a6/155i3DPPuV+QHa8vLy1R+4V3P8JtjMRtDognO36+srAwXFnqNRA/kmB/Sdbp3ZXp69m3siTKKePP2r87OLiyNDE943YaHJgjuVyYmpnn5QPbXSm+8t5c0qAnDCJ5pY/mPRrQbRZUJqGmvPc+P8yr7CLoBz2EcVQsWSLFrtjECZQJZe9e3VyhT9nYbwTCV02bTpmWneBTZ8uiTOWoXZda2tv+NWpbKazfxUr66BBbNh6bztHxVsN4F9fgHl9Furwx7zWiSq3EMjp6+HT30P/ofGoAGoIHgaSAlt7JBUsy3tsCzibFrFYkJjzigReuehvtyQKPhwb68J4fn+Zcv+3wpv6WMBp5pnrI/GwEytVcLzzwyO9vW1rMyM6MOY+bvtNvec5g3zZleXVhQo9hLI8OTPadiN817n2ttVYeHEyAP2r0PK1+H+bWF3nfDPSePX1ej/rs15MP1tf5zZ+/Qu/UJmfcJ4ocLXHW0p8s0lJ3Oazcecae28PN2yTQj2u+pmY4JnHMrelelwqZR8+et03yzl79eJHimPT/H90ZH3WDe/d4VwHP0gwhlxObZtQlk5funp3YCKoowUzktPJvcHxKB0fBrbeIvgmTtPGdL46fqnGqaJ03PyHn24wWqi+rc6Zm4Fv063K8+TrfXTCS6mgbgNAXPaYItYUtoABqABvStgcSCxgdMtrRugWeLJEm3UpKat4CfZkhwNFzTwjOBni/vFCx4Xl1cXPLledoyK+PjalSWwzMB49rq6hrBJUWDx26VPZusrencaZtqqH9JQ6OpzOjlS428/n6zUkVtorqWRkemehINt/g1vicbLfT3jakwu7S01C8zr0P7CXgpYk1QS2XpH0Wl6RwNWafPC93dA2pUmyLbfNPoa+HNm0ECZrI3/UDgOXyc2jT19Ek3XdP2nYnJS9mWiiFySDk809xnX4duE2gDnqMfWFiJZRM4E8gSAFse/Xx+uy2n+Ycq8HJ4pozZ6trN776+RkO5eRSZIs/27m+qQ7VpSDhpUbxqV5eqoizc2vtovvV+wRPqjX4d79THabm1k4n5T7rh6Onb0UP/o/+hAWgAGgieBgwFreWSYhrfAs+MsRNXz5zu4NAUrfuDgOd+yVix2N83RkOiaZi1PxtFcZdHRyY4tM53dW3MB+YJxgg2l8ZGp3gZz74jCKW5yVSOrlGm6on7d1v5UG0C2+HPrzQRjBNcU9IxgnI1s/XDqvaZ58/fqDS8Po+akqDRPGiqY/JhVTvfes8kly/29Y5sgPI6GNOwcTpHbfdsm/bzfHf3xlD7+a6uAYqCr8zMzFP0fbttYWR4Wpbl1eycD0DC4dnocA8RFPPNev2FOmyb9vwc32dbqwcAz9ENHYK9YoBHnHOa/25RvndmiuDZ143DswrFFwtHKGJN99Lwb1ZmnOCfaTg312JWbvkgn0dtqolXh2wTjO8EP7gW3Trc7/5Nza2dTih43ganKXhOE2wJW0ID0AA0oHcNdJVIkrwsCMIvbQJoxtj3LqSndWphJhqPA4TnNhX+Ahy2Pdve/o7DZ6D7mebmNwTL2vs5PPNh0tONDS+99dnq7Ow83UfZtOn6YI65SluPv8fL09NzfdlZ9zzvGyxwufm79svsAW/LbvBM86Qpcq0uUdXY8IrXq86dpqRvFBkfG53SbgTVdH58YGDBJJkXuVP6BTzXDebee7ece+/dCm10niLR6vX1c3TeUtKhLnEFeI5+aKHM2NaWHyxSlFi+na4m71Iqk6fUSDBFg71sYvHFEYJkLTxzrXFg5us8UzmKbvPrtKdM3lpA55FqbRkcR7/2QtXHqU73tKGg+SkcPb07enh//A1AA9AANBBMDTAlZ4Qx9k82wbMkSV91ZWW+4sATrftA4JlnxKbszoHYhdZwnnrU+Gq7bXliQs1MTdHp7cpQVHhxsF8dPr0Bl+tLW/HlqWj+s2f7+pixkpentaHV6zGflhAA0zzmpdGRSZqrzMvQsTrM++nTbjpHEWuC3+Hi8/Xqc1ZXV+k82YKSiVGEemVyUs3uTfD8JubTEjUCHvNpCR3TNnLtahPdQ9Fkfm5jf+STkvU53Gs8uRo9j9aqprZStnQapu75XpTZm+rs7uiYU5hVTdpEDqoWnh13ewie1W09IRjB8yo/R3vLtXZ1iC3gWQcAw+FYzXz9AZ7Voddl4gTbZqM1n7eDZ9KbUnlqI2u3tXPr2s3iNccoh2f762+vYMi2DnR2gEn3TjvdM/GFbfXBdBhQFxxQaAAagAagAb1rQDDlvmGM/cEmeBYE4XfsRmHTEkWewBINnwOBZ4roEqjR8OW92oBAkeYQa5Nv0bBqqp+Wpdqpflr3+P3a2hpfiopHnml4M80Vpjr4OV4Pn6+9MjExw8/RXk2WRnC7PrSawJbupyHldK737Jk79JnAnpeh/diN608p2zifg03n+L0Ez/yHALrXl38UQaZ5zLwsDfvuSTq1Mfd6O3jmScWa6+tnFMmpRo+18Cy6Gkb4sGzabzdsWyxoGqX7AM/6ghoeeeZgu9veW+RZheeKFO3w7zWCcDrPN1r3mddt7fjusmCr3LjGy2D/hb1gi73ZItnpnosvbK86aCcn7eqbm1cbRhpyH/QfeFvIFs6qwaqnb2a6Tl99e8Mf21S1jbeUPRlpSr3aXaa9T7zVe7f57cxrek/teV+Py5+NP2l+N/NavNN719d7UA7wAg1AA9DAwWkg21rcyRj7ziZ4NhqNv25ibFILStF4HAg8T61HYaeaGrv2YhMC1vfrkVtv8EwR3z6jcN9z6zGcULOCz3V29hJo8qHRWlDmADv9+NGm0QM8qqxGdTXJuTzfgzJtE8CqSb52gGfP++gzfzbBM62/TNFs7cbXgqYIsvY8HdM8Z6qDotrqDwBra2tq8rH1tm4Hz6NXPyQhc9+9M81MxWr0mBxvHnleh2Gf1num+dGA57057ZEGPRyeLU0fkn7RcGpvGx+a7Q2eKYs2B2NKPEbH6hzo9aWohMLPh3kSMV6OEpPxOdGRZjO0N/z/RpJd9Utx51+UH7SDVfpoRM1zMTy1dODLZp27/vbW2tp7Ncnmm5GlgfgLvjlfws1e9Qdk+l50VQ0+1Np0ZmFVHS32dmR+yNf6tPf3ji+o+T2u1I9glECxb/2htR+OYTNoABoItQbSbVfbJUk6vgmeDQbDL8iStNwV8+nGGr/eQCnSzwUCz5Toi75AJ6sftu/l/YdcubVUD0GkdpksHnmma97+8bnK1HbKMu0NntX1mNfXWuZt7Ik/WcZhXQuk/DrfvzXE3iRIpWf3nk29Q+e3izzze7R7LTxrz/Pj3eY883IE7jS3m9aEHi4ubqDzG/B84th1itrT/G5aMkyNwr9//74sP39ENF/ZWG6Iw7PpcvMkX4qK9t6WquLZuAV7DZaq0kRL9QBJHJ4Jjnd6X1Zq+ZAx+/mPNhJ9UfTYVHOSEoCpa0UrFR/mTfOlqCjCLF7OG3V0f3uFoNna+r0let5GwrLnP1oQnDfU7PA7PRvXwh9Ww6qPrNUDya761VA7FN6e5y88U4S6qHao1t9NG9m23O2ruNs6/tTbtrC0usi/W9v7Zt96K+Oo6n+gfZfqzkk118nswuqcJyDT/by++leTndr7fDnm8Px6eL6PnrPd5m+k3JdnowygAxqABqAB/zWQ7rjVLCkmcRM80wcTYwPNJ46q8MSBJtr2gcAzj5zSesZ7sQctF0VfuOqSVbRU03p0lcMzzR2myK3nxodS8/Le4JkyXROXU/086zafa+w59JrXw/fjt289V9s1NzdPSbvo/Hbw3JsQd5PWqe43ChX8fk94Hsy11WiHXvsKz7R81dL4mLo0Fw3fpvo34JnWyl4HfO600HudF4wDOZdqlsxXWiYpazaHZ0+nlq4TLJs/b52Szz8ZU4qfjFNZ2qgsIs/6ApWd4JmSfFnbvrdEycUcPR+pgGx6GK9ODaAM2tb2v1nikWRTVcLGqAda89lUe3LGVBM3QxFoKqMuU2W/pw7VFq/axnh9FJEW8ksA0Dr70cbz/0vB/JxprR5OctYvhINT5C88L6+uLfP/r/uzp/v4+za+mlK/Xxi/VaEAACAASURBVP25X1u2tXfmDa+L9uMzy1N0va1v9s2NprFHm7bHI2oeD7o+Or08sela09ij5Ms7Dw/n8Kx9vrdj873++9o24dh/hxc2g82gAWggGBpIdVQ8khTzlS3wbBbFR+64k9UciqJx7y8882gxfbFRhulAbULLQy2Pj6lfxlSXdgg4h+fd5jzzZ3uDZ7q2NDw0QXVTgjP6zKGWhoPzez33ZA+e8IuSlfHr28EzJR2jZ9AyV7wsfw79uMDfhSLh/Lqv8Dxeca+F6qZ/lGmb7t+A5yOflFBf0A8JVF+/Saqi67lMGXeUPaPh2Wu+wDMlCeMRZ9rbyl7OA571Bc7U3zvBs63jCzim6HJO8w8WhcIrw3SfYKsYIHh2vP1odbvM2da2v1Xh2lx/eM4zQZjxYv6o/c03VukZmP+sP90FE5Y968qw14wmuRomguEk+FsHRYBpCPKpS29K6V5PeE640FVK58Rb77zO8e0dWxgmCPV3o/t4Wzk8908sDW8XyfV2vnt4Xs33oYVna0XfRqLNxq7pF+tfSz7vXFUD1bxd3vYcnpvfzXR7grf2M7entzpwDkAADUAD0EDoNJDiqquRFHPdVnhm7PL9xFNNHHqice8vPPNloCgiuhd70Fxkz2/esZs3nlKklwPnXuGZMlTTkOZBZ24tLf/EI7UcND3bT3Opl4YGx9V2ra6u0FxrXobD88rk5KaEYUN5jhoqT0nLeFk+rF37fpP37jbz677AM0XOV5eW1OgDvQO/VwvP/Jx2b1PM87nlHe8JismZ3C3ybLn+Ys564+WctezVHA3nNua61egfIs/6AhnBWTZEy0oJzutbor9ZubcHBeetQSGvfJCiyZ6QQkOuhfzSLffxcnRdLs+Y5J899wTiQsFVFcY9r+GzvnQYzP5Ot9dMJOY/7gu1M2W40FU6t7iqLh34oG2ymZ7vCc9P3kyr339dQ/P71j4OzxVt42obfLUDwSp9d2nh+cXArLq85Mj08rjpTt89Gpq92/b4zexLXobmWfPnp159c9NzG5xcGqVn3nwy+tjzGn2mHxv4/diHzjmGrWFraAAa2E4DiflNFUyxvNoCzybGUm8mJ7dq4SQSjykrNsGut41gkEMeAaC3MnSOkoTxYc9UfvJO+QYM+muT4aLCev5MGvI829HRyz+vTE9Te9Th1pO1NZ39onCfItzqnhkraa4yrcvcm5F2lz+XR55p+SoCcG/bzJPHXfwZm66Xljx+c+xIyfDnV5pWJibUIdJUjj7z+mlP2bTpPM3P7jNmq0O0e+JO3ODJ0wiYqVxPSuKt92traqZvtfzKyur47fLn2rp8gWf+TgTLvelnN96VItxq+2gO9Ilj17UbtdFizlnNu/fmve3mK3VOKsEzRaGVC0/HtRsBM0Waaa89z4/5fcF0ZlEXQAgagAZCpYG03NqpU4VPXmz3xb9f5z+vH2lQ/9+/9n41+/q72/QcT3imzNtUhr5SrBX9lcFuCwH8o+7pF6MzyxN1Lyc7rjWONPq6VXdOto7NLE09ezvz2nChu8Re0f+Afyf3jn+IbBNAU7Kxzr7ZHm9tF8reUXKxtaHJpTFuAyrnqhp4+OG1/ftvIPOovbUL5wAC0AA0AA0ERwOnCttuSYppYgs8M8Z+cCE9rVMLPpF4TEsp+fdVtbX0Qs/b4dWFhSW6QsOaKVFXoLZYB+T3tI6zOqf4WEzpeiRaheatT996RruGMwdNSmC2teTuZ+jHAW2pyYdVXhOh8SWxtGX5MY8sa39goDnI3hKT7QbPdM9GvetDzrmt+ZBwfl27p8TlsqzQ2s3vaQ4zOanrEOxTlm3t8O31Y3X+c6icXTwHYAUNQAPB0kCq0z1tKGh+GmpHqWdkaZD+v/xycO4df7YnPNP5sZlldUUHGibNywVrr9zuu6f9bgj0OLvs3W0CZn4/h2calk7nVtfer3pbnurO8w8JxFZW369ok3zlPxxQR2qtrb1f7Z9YHN1tW1haW6Dn0A8BwbIN6gmO4ww7wo7QgN410FUiSfLqoUOHvrQJoEVR/HJudtae1zLm4HNQexqO/C4lqXwvG9VBUWJaV5kSYO3lXSj51dry8kpvZsZGRJXq6z939g49Y6619S0t2UTLSs339Y7SOtA0nJrmMC8ND43TMZ/HTPdxeKaM1LSOsz8bRdD5MOuFnrdD3mCXvysN0aYh1BSh5hu1Tc3+vZ7wjH5UoHYvjY1O0ZB4fq92vxs8U/Sa3p9GBXj+SNEnZN6fefrktWqHD/Ygm6jb+Ns3k2aLdZUya3MHlMOzNtO2L8cUrVbnTSOBEdYhhgaggQjUwGmneza+sK02lA4eRVz5MlB5mjWdvcFzyaORRg6lnpmt99pmAtbH3dMvaXi4t40ixvzZ3q7Tuabu6Zc0b5uXoz2HZ2ofX57q9rPRLT9QvB6a76fyr4fn+7XvwuG5f2JxRHt+u2Oak031AJ717qTj/bf7G8F5aOMgNSAp5inG2K96wvNvmEVxXAs+ej8mAN+rDWj5J0p2tdd6+P39ZqVq7Mb1pzSvmZ/zZ0/vREPB/blnx7IE0jSkept1pOmHCAJx7dBzb2U9wdlbGe25ptiTFQozbywhRABNEWjKps1h2te9XPR4LJD7fK0f5RBhhAaggf3UQIqrfjGuuPNOKB0LgjyCPRqurH2uN3im5Z54BmuKVmvLB/OYgHV8dnm6rXd2I3t2dlmvOg1pfnF1x2zkFa3jzfQ+E3PL6ugsLTw/7p5V31V7jtpN85OXVj5kCy97PNKkfRfAMxx9rR5wDD1AA5GtAVGx9guC8Nub4JnWelYkael1zOFtQUgLLzj+RF3WCXY4GDvUGuJqFck6u58OKeoG8EAD0EDYa8BaPZDkdId0jWdKisWXmKKkW1qn0Bs803VKkEVwSv+cDwYeau8J1nFj14clq/rW5ytTvRyel1fWVsz3+u57buKtXjULOC0Ntby6tlJcN1RLbdSC8vpc6Pera2traSVvb/L2FlQPVlPZldW11dOfd5fx87Tn8ExrRd94PNK020bzqqkuRJ4j28HWagDH6EtoIHo0IJpdrxljf7QJnumDSRTfPDt5fCPrMsDwYMAQdt/d7hWJCY8UKU9dfzfsndsIHAYazTYViy+MiJfzRoP9jsZLrlH5VtYEZeoOdt2oDxC/nQYybdXDSa76uVA6aZRdmkCPMm17ZofeDp5p6SWemVsLpsFs9+DE4pgngHJ4pvPb/Fvjy0LRvGfp9jt1DrVnG+cWV+fo/vKnY495m3lEmsCXn+N7Ds/bPHPb04Dn6HG2uRawR59CA5Gvgaycok7G2Edb4NnM2L0HCfH1gLfd4Q02Olgb3U5JfCYphdPbOZQ4D9jYTgO2Fx8v5/Z97b1grwjq/F7Lk5/NU73iVZvfUwe2ayvOQ8e7aeCcvWY8Kf/RxprH++2kZV5/V04RWqI/mqfr+bzt4JnK8Xm9dC9FbT3v3cvn5Mtvb1BSL6q7qn2ildelhWeCXM+ta2i+l4aV8/LbwXNr72w31a1NejY5vzxD5yiqzu/new7P80urC97WmKZzdS+m2vg1SihGdQGev+gLbkvsYRNoABo4aA1k5FzskCTpx1vgWRbF7LKU5BaA4cGCIey/u/2vn05pY6YLgGdEtf0GYE94NtednHG8/cbqrlv3t1d2AhnAM0B3J33s17U0R83UqcKnXaFyLO63jD8nyKPs0tohzPz5O8EzZaum4dO0tBNfF5rft9c9zTmmdtG/xeW1JeFmrzoHnMPzbnOe+fO3g+fL9SNuqpveO+nKm+v2iv5K+kzAnnp185BtqouAemllbYmW86K20Fzvl4NzvXSNQL9vfHGErvMM3WQPqk8b2eZtwh7gAA1AA9DAwWog3VbSzhg7sQWeGWN/U5SeHvHLVQE+d4fPSLfRldTUV6L58tR+OaSoN3pByBOeTQ/jZ+xd31nx3CiKTBs/T/ftpAsOz1Qup/kHi942pSIZmsUPPn7/4LOT7s443dMJhS1PQuVY0XrIlHX6Qdt4i7dn0hxogsDhqc2JxHhZglDL3b4KWmKKMlHvZSMAJTimzN8EzPRc/m94ammChmEHC54JmOl5jV3TL+iY9vSsNyPzWxKgnbvec2tpZW2RrlMmcPFO7106puzktBY02ZAPA7/bOq5m8G5+N/OaykwtrMycuvj6OrcX9gfrMMP+sD80AA2QBtIcN1uYbMrYAs+iKP6u3Wh8F+lghfZHPzyfT8/oMZqubixTtZNziWvRC8K+9q3JfWTO/uo7K7RtQPHrb6ufTTUnvc6dd/R+bc3x7us+r//N4ZnX721vafh0ztc2oxx064sGUlz1c/GF7VUH6eARENJGQ7pfDMy+Iwgc9MjC7dm+wupBdR1kKruXf7QOM2X8pjrml9bmi2uHaik6TJ8pwdfw1NI4HS8ury2uQ/t9052+e5Q4jD5TMjBKYGa40FVKbdRGngvrhmpoHWdvG1++it5Te91yr7+ChoKvP3OJR+dHp5cn6Fx156Q6pLzx1YfkZmMzS1P0XHU4/Ieo/PvaF1uHw3vaD5/h0EMD0AA0EDoNpDpuPxVlc94WeBYE4ZcVSVoAfEY/fEZ6H+dnZQ8YLaXjvjiXKAMIsTz6+Twfls2h1tHzkTpU2+Q+5jVre6DwzEosY9nWqgGvW05VUKOO0Da0nexyr8Se79qU6TmUDhVFWflcY4JD/o+Sae3UjsQrr69fqht0720brit/NvqEP5PqomfSWtLT8yuz/Lwve6qH7tXCM0XFfblXW+b10Jy67jOdoyHu3AYExHSOltKic5Tlm4LRdI6vk82BmjKZ048R/F7sQ+cgw9awNTQADXjTwGlnZaOkmEu3wDOdUCRpuPnE0TuRDldof3T/AJAnGEcF8w0kZsIQWL9h1HPY9nYAGig8I2EYgHY7TQX7fKa1ejjZVb/o7Ys+VOdoCDKP9BIIEkj3ji8M0VDlULShqPbD0lKU0Ev7PMoCfuXRSP2ztzNdr4fm+/snloYpKRdl5KYh5SPTy+O0UWSaPtMQb7pfC890P0WK/dkqWsaf01zmgYmlEW17aJg6RaufvpnZmJ/e/Hbmdd3LyQ6aC05labmrhaXVxcm55Rkqr70fx3DooQFoABo4OA0kO2trmZJT4xWeLaL4sCbBUAf4jG74jPT+tQnSlNFSPhJsZxT1RT/47AWelXtnJy1NP5v3ttm7v7lKUW1r6/eXvF3n55SKJCS6w48+fv/o4+3/TecctWNJrsbRg3aoKOkVDU/OLH1bzhNghbJNNM86WM+l+cYUhaZh5YG+Aw3B5sO1/a2DIs6ey3/5WwfKH5yDDdvD9tBAdGogsaDxAZMtrV7hGRm3Ac2RANYWUZoTLHeHvTmUOBf9ALyXPubwzK7Zxkz1R2etHd/1mgjMW+TZ8uSn6nJUfOh3IHtryw8W99J+3At9cw2EOtM2nMLodArRr+hXaAAagAZ21sCpgqd3JcX8zjs8y/K3CzMyXkQCQKGN+gV9kyQvZVkqB7kTiT2AYncNVA2Il/JHHN3f2kgaxuFXnZ/sEQ31Bs+C89agUHhl2Ntmro+ZJTBnpeYxb9c3zjnLhnZvK/oTNtpdA2ec7pmEwtYmOD07Oz2wD+wDDUAD0AA0sBcNGIrab0qyMrkdPP/zHKNxCGCqXzCNhL6XZXktG8mXgjL0M/ohpWqA1nK2d317EzTbXn28bKo6NU1Q680G3uDZWzl+zvLkJwsE45Ynf7/AysQJb0DOy2K/OxjCRrvbKMVZv2AobK/Yi0OAe+FQQgPQADQADUADu2mgq0SW5RWv8Hzo0KEvUcbtl0cP34gEiEIb9Qf5XTGfln6A592dSzjgsBFpwP76Azjb33xDnZdMkCvY7+3440Og8Myj2QTncnnGpGCr3PE50Cg0GogGsqwPB9czbatLLMHx2c3xwXVoBBqABqABaCBwDUiyvGwwGH7RK0CbRbG5LvbkQ4Cp/sA0Evr8xbHDZYqsrATicOIefYKKdFOYYKXKOEWD+ZxnwV6xI9QGCs85T38y7+j+IspN4C7fTp9EJFqf2tuv/+ecs1WPJjkb1DWC4QwF7gzBdrAdNAANQAPQgC8akBTTbGZm5n/rFZ4Vxuy3U5KeRQJIoY36A/y240fKZaZ4TfK0X44q6o0e8NlveBavOUYJzOV7qVPa+dUUiVYB3mNuNbQVPdoKZV+m5dZOJuY3vfXlCx9l4BhCA9AANAANQAN70wCTTZOZmZm/5hWeJUn6/sX09A6Aqf7ANBL6/Nnxo3dNkhkZiwFhO0aOtwOZUMAzfzYNDad51Y6ej9ZoOLfJfWyWX8Me0LwXDaQ63dOGguancIb25gzBfrAfNAANQAPQgC8aYErOiCAIv+UVnhlj/5tVFAcjAaTQRv0BftPJ4xUKMy/sxfHEvfoFFz7/2XPY9oe5yVUqkItX8kYJdh09X1/zVSs8YRhFnj3vEZylQ6aqhOksx11kiMePPgH96OOpqaQ890J8UUelL1/4KAPHEBqABqABaAAa2JsGmGLtNxqN/8IrPK8nDZvviDlcBjjVH5yGe583xp18oEg5857OJD7rF4h363taPsrW8d0lWtOZoJgSh23O1l41sJ5MbI1HialcTvMPff6RZid43q19uA7t+qOBLFv1h2RhxXtzBOBIwX7QADQADUAD0IBvGhBN9neCIPyOV3imkxZRbKg1xNWGO0ihffqDe3d8XLXCrHP+OJsoq284kW9lTRAM82iyUnlq2lMTfDg3L2dt+/6ityiy5338M+BZ3xrjOgjF/py9eizJ1TgOh8c3hwd2gp2gAWgAGoAG9qoBwZT7xmg0/v628Cwzll56OrkVcBo5cPrk8Imbz46c2HW0QPeRT0tqjpy63X0kct5Nq8OaBEOdItkwdxTDX30e/kpDsgXn9SEhv3Ro2yWqrFUDajlbhbr3F4LEz+1j8u20ScF5C0OzoU2ftemvzqh8Wm7t1Kn8J6/26gjgfjiT0AA0AA1AA9CAbxoQzM4uURS/si08i6L4567srC4ttOA4NLB590jKvT81dC94274R+2TYsx+yjhY9/k9xHVNfThhY+3JC/9qfx7VPFsawGs9yTTGxN78b29D/xwl9S19OGHj/J4Z3iz8+WfnmZczhUs+y4fy5MiGhQZFyZwJxOnEPooPQADQQ6RpIyaubNRS2NcDh8c3hgZ1gJ2gAGoAGoIG9aiDbUvBSluW/2BaeKRW3wth0OENUtLbt1pG0CoJbAuGvGLrntZsnPJ89fuHZOjSvfhT7bGQdot//UULfyqUjxo21uikqza/9e8PruW/FPh76Q0PvCj3nu3GN/ZFky/uJp5oUyQl4RnRvX6N7kQ5YaH/0/kiQ7HIvx51/Ub5XRwD3w5mEBqABaAAagAZ800BWTnGnJEnf2hae6YKJsR7KbBxJYBUNbeXw/K2Tj4d2ep+OIzHXKXpMAMyO5j2isjQUm2CYzv11bP0GFJ/67FornfuLuNaJ9iMx16ns5Zjsqi8b+lbp/PWY9MqdnhVO1+4lJT6WJBfgGfAMeIYGdKeBTFv1cLKrfg7Ojm/ODuwEO0ED0AA0AA0EQwPZORc7ZFn+693g2Xk7JfFZOIGTHtriKzwbjzmbCHz/Mvb5mNYut4+cvU/nCYwp4kzX/iz+5TSdcx1TNiWB+15sXS+dP3Li9ktex6vDh0u7jnxaQp9pT2DdcDT2Fr9Oe5o3TefvHjlzj5fVXt/P4ztJSU9kOX9LwidE2qI30oa+Rd9CAx80kOaomUzMf9wTDEcAdcChhAagAWgAGoAGfNNAZs7FDsbY93aEZ0mSPi7MzNyAqv0EItT9xXxqX+H5JycfdBP4xn1W2uZpv/9g6Jqja5ePClX1RwzldEzDtDuOHFGjzrx8xvGiJ3SNhnHTufojCWrZr8R3z9Nc6j82vFPnR9PQcCpD96cev/jsTwxv1Yg33fvVuBczBOy8zv3e305KfCop+Yg8I+qou6gjABI/IpxxumcMRS2P4ez45uzATrATNAANQAPQQDA0kGm92CFJ0t/tCM+ZmZm/aWJscr9hCPV/Ac5kCw7PNNf5/ztx//XJYzfaaVg2DdPW2ooPzzYdy23Unqfjj2KfjhDYWo/a60tjzlXSMc159ixHicXo2l/EtU3QNcrCTZ8/bP1rfxtb1/uN2KfD/Nyh2JYxAmmq/69j6/u+nNCvDvv+RuzzLYnMPJ8VrM+3U5KeSUohIs+A5z3Bs3z37BQtYeUJpNJNYUK+lzq1eR1oQJunnfD5YDSR7KpfiivuvBMMRwB1wKGEBqABaAAagAZ800BGziWC5x/vCM90UZGkwaefHb0XLPBBPZtB2Zs9ODxzYOX7fx/3au7q0ewqfs86yL7Pj9k8FJuu03xnui/jWPHTvKM5dXT8tdhno/xevqeh13SNIs10TgvPR07c2hh1cOr41Rbejm/HNg3yZa6oPfx8e8yxTXDPnxHsfXlK0nOmFAGeAc97gmdaz9ne9e0VTwjk6z0L9gqv9SsVKVOmmriZQDalInnK83n4fDAQGol2z7RWDyc56xfg6Pjm6HA7xZ1/WZpY0PjgbG758zT79fZUx53HpwpabvPr2PtnT9gL9oIGoAE9auCc9TIN2/7ZrvBsZuz83aTEJ8EGINS3PURThJnmJtOQa9MxRyMtJ/UVQ/cCQep/iH812xJz7AbZj6LFdM47PNf10bWMY0VPrces9XTsDZ45qH8l/vUWeC6JyXjA+2ljHnXCwHvxqEtNTsav8SHcNP+Zn9vP/a2UpGbAM4DDH/ihKLO57sQM30y1n80SPDt6v7bGz/G9o+fra3TN5D42y8/RnqCZnmnv/uYqXQ9kc7z9aNWfdqMsdK7VQLqjdiIxv6lXj05LoO9sKGgtlwRlypp6dqnk44+X7/zl/7t68Sc/XTIJxpVzpksdscVdJYHWjfsAENAANAAN6EcDGbbP2yVJ+mRXeGaMfacgI+PVfsIQ6t4epLltKCL8x4Yedf5xYYysruFMQ6UJigmOeTm+pyWt6JrjuMVdHMOq6ZgPzeZlaH8hRlSvHYprGafPPPJMc515dJmX50O0ab1ofo72fxb/Qk1GVhaTFpLM7GUpyS2S6Twiz4g8e40Ma2GDH9s6/mYpENjV3mN79R01Sk3wbH/zjVXxQvGIdjM9ODVN5WmvPc+P6T7AM2CYazKQPeY7++eknSp4fF+W5fflX/uLteF/+VvvtVvv//4/vbclJ69KzDIFgPbProAF2AsagAb0qIH0D/B8ZFd4pvWeTYzNeIKUFp5wvDv8BsNGH8c2DhAE09rOVN/3Tta+037WPoMDLc13pogwlftTQ/eCtgwd01xqusbXeubw7K0sX9aKR755XX8W1xlSeL6ZnNzKTMWAZ8Czz/AsOK8PCUWXh8XiiyPGi/mjdEygSxBMx9rN0f3tFbomXjg/oj0v5JcOEfCo8PzqOytUl1x+bpJvlqafzdN9lkc/n+fn+D7LcXfQ9urjZcAz4DkQaOb3YH1n3x1WQ/GLG7JRnn/4lf9nCzhrIZrgOj3nSqceHUG8s+96gq1gK2gAGki3XqWlqo7tCs9UwMTYq8a4kxtDeDk0YR8aaOZ2/svYZkrWpSYBo3Oxx0ra6fPHJxsGeBnaV8ck36Hzf2R4t0ygS+s6/5Ghd5nOlR49t2k95x+efPiWzlNddG8kwPP10yltzHQB8Ax49hmeOXyY3EfmCJhZqTJuefKzeVP90Vl+je9NdcdnLU9+Op9trfJaP4dnU1WCGmkmYN5tIxAHPAOcucYC2WfYa0aSXA0zcOB8c+DO5N5tyo85uqQFZW/Hr/+Pf/peFsTl2KLO67Ctb7aFnWAnaAAa0KMG0u1Xac7zCZ/g2SxJwvXTKS1aQMPx/oEzJfF6duREGbcxraPMl5SiodMEuHStOibpzpcT+tcoInw55otEYj86WaUC8c9OVLzmddC8aYLk78Y29PNRBOVH0u5/gOr+VVqiispGBjyfbhdNFwHPgGevcLsTmBAwc9A11R2bFWyVA9bW7y/ZX31nZbvN8vyHi9o6OTwLzrIh8XLeKN9MtSdnqG7a83N8TyAOeAY8a3Xk73Fabu1UYuHTLj06LIG8c7ZS0FP9J1/eNFTbGzzTOVtS8lKSs6EqkOfgHkAENAANQAP60EC6vaRdluV4n+BZFMWv5GZnveEghv3+gTPZ9icnHnT/cULf0vdia3u1ycK0EWLeBzxyTHOU/y62uofPg/5Tw5uFiiOn7/JyNB+ZR58pSzfdR2Wozk9O3N2Y0x4p8MwAz36Do7/OelSVt1YNCPklQ7T8lOmhgSLGlBRsTbxYMEKRaIJea+d3l7UbwS6d53OduT024Nl+j8B7keBbBfDXH4Z7219/e4Wfo718/7SaaAzwDHjmGgpkf9pZNxdf0OqGk+abk8aEnOGm3/+/fILngpiji6fzHtTDtr7ZFnaCnaABaECPGvALng0Gw3+lSNL865jDIVmKiAOfXvfqslCGPnX9ZIJb2mjNZ4o+86gxtw1FpX9y8kH3Hyb0rayXXaPEYN4yX1N0+qvxr2Z4nQTcx47d6OR10b7+iKFcfd760lXaa+vPWPNckurP49qn6B6KZGvL79cxhm0DQvyFD8qc7Xj39TX5dvok3UvDtuXyTHWNZ4Jnb3ORKbKsQnX73yxpn8fhmeYxWzs/XqalrWijOqg87fk52isPTqmjJADP0K1WR34dW6sHklzuldjzrzG0uNg3pzVbLniHyLNvttKjE4x3hjagAWjAXw2k20rafR62TeFpC2OVlQkJDfsFRKh3czSb5irT8lBXj2ZVNRyNvbWbfV7GHC6l5GBPDp/YlAnb230UXSbQ7T7yaYm36+F+Tk0YpiDbtl/Ot86HeJtqPgypJri1PPpkjsCX229beC68oiYVy2n+u22GbV8fEgo/H+YbQTLVT3t+jvbGAop4P8SwbZ1rkOstkP05e814kuvRiL9f9Hou5pM83AAAIABJREFUT3OeXUePYc6zjz826FkreHdAFDQADfiigXTbVRq27VvCMIJnxtjfF5879yLcwQrt2wzh0WgPLFWFCF4gACLdZOO0hjOt7SycvzTM69gOnlmJZUyF7Sc/m+dlac8jz3xYN5XZZVtDtm1oVqshf49T8+pmEgufP/flyx1lPjiBlG1bEqXl+n/3eztm2847eXIF2bbhOOPvBhqABqCB3TTg81JVfFJ0Zmbmb5okacpz2HA0whneKbwB/FZKUjNTipAwDJE8v+d9ixcLR0xVp6Zznv9oQbyUP6LCMB+2ba0aoGzc5vojc5RxmxKIERTLtzLVod4ceDg8y+UZk0pl4jTfcp7+/QKVpz0/5+j5iOZWv0fCMMAz108ge3WJquLOO7t9seP6ZufPUNBaTktRPfjKH20BaFrn2ZKZucZE8yTWed5sN+gI9oAGoAFoYKsGMj6s8/wJZ2Of9rRkVUPcZ1WAy/CGy2jvn/KUpOcS4NlvcAzEaY/Ge6wtP1hUIffZjxfo/b6IPFcNOHo+JA+j67TRnGXBfm/A5I6ZpXnSavnub64SWHvaRr6VNUH30Lxq8eL5EdocPR+tUv1UFnOeAdCemvHlc4atehRLVG11Ynx17E4VPL4vC6Ypa+rZpZKPP16+8a1vrDoSTq2YBONKllL0xtd6UC7wPoDtYDtoABqIBg1kWC/TsO2f+gTNvJDCWNrVM6fboh3O8H7h/ePA7ZSkZ5JSiMgzIs9+/4DAyowq4KqZti8VbI485zwcEK85RgmS2Q1xgtZmJrihIdcExRRFps888uwJPhyeOZxzAKdINpUFPAOePTXjy+ezubVTpwqevowGx+Og3iHu/MvSxILGB2dzy59n2C6/Zibr7KmCltsH1R48FyABDUAD0EDkaSAj52KHJEk/5lzs095oNP4buyD0AS7DGy6jvX9uJyU+lZUCwDPg2S94znLcHnR0f1hOytLwqQq0BC9fRJ69wx3Nj1aj0B0fsm7vBs+mmrgZc/3hOUpMplSkTAnOm2pyMsCzd/v6ApB6LpPsdM8bijoewtEKjqOV6HpUaTTnTsCewbEn7Ag7QgPQgF40kPkBnv/OJ2jWFPoHiiSNPTt+bGP94GgHNbxf+P1QcCcp6Yks5wOeAc9+wbOp9kPGbYogC87ragZsFZ67v6kuMSUWX1AjzVpQE2yVA+a6D/dZHv1cTRxG8Ox4+41V8XLeqHZbXz/6Pe215/nxh/s+Uodwa5+BY0D1dhrItFYPJ7vqF/XimITiPQHPcPRDoTM8AzqDBqJPAwTPjLHvabjYt0NZFC1lKSnNgMrwg0q99Mm9pMTHkuSa2c7hxHnAiKcGhILPhynLNkWQKRqsvU5QzIdY05znTdv6PXRdvGobo/sIgnl5f/fe1pPWtgXH0K5WA2mOmqlTrseYlxvE5ZYAz9Hn0AJS0KfQADQQCg1k5hR3SpL0Xd+IWVNKFMUv2wWhVy+ghvcMvx8J7ieealIkJ+AZkWefI89CXvmg5cnfL1g7P16mzNdaQCGwpuza1ra/XbK2b90sT342L5dnTvB71Ajyu6+v8Yzavu4p4g14BhxzHfmyT3G55w2F7TWhcAr08gzAM5xsvWgd7wmtQwPB1UDWB3j+lgaLfTs8dOjQlxRJmnx+/OhtgGX4gaUe+qQywdCgSLmAZ8DzJgj2BUYEW4Xf93jWy0rM46wkR41Ce17b6bN41T5Ga0fvVAbXANdcA1m2miFaogrOT3CdH8BzcO0JfcKe0AA0oBcNCJbCF4yx/+wbMXuUMklS3o2U5Od6ADW8Y/j9QFCTYKhTJNssdzKxB3BAA9BAtGkgLbd2MjH/cY9enJJQvSfgGY5+qLSG50Br0EB0aUAwO7tEUfyKBxb79lGW5T92CNk9AMvwA0s99Ik7Pq5aYdaNbMnR5jTjfQCC0AA0cNrlnjMUttXB+Qqu8wV4Dq49oU/YExqABvSiAcGU+8ZoNP6+b7TsUcpgMPwXJkkabz5x9I4eYA3vGF4/EjTGnXygSDlq5mNABiADGoAGok0DlGU7yVW/FHu+q1QvTkmo3hPwDEc/VFrDc6A1aCC6NCCa7O8EQfgdDyz2/aOJMeX66ZQWgGV4gaUe+qPp5PEKhZkXos1hxvsAAqEBaIA0kJZbO5WY/6QbjlfwHS8Vnk2OSdg2+LaFTWFTaAAaiGYNMMXabzQa/4XvtOxRUhTF37WK4qAeYA3vGF4/EDw7fvSuSTIvAjQAGtAANBCNGkhx1i/EF7ZXRbMTclDvBniGc39Q2sNzoT1oILI1wJScEUEQfssDif37qDDW/+jkZ5WAy/CCy2jvj7bjR8plpixHo9OMdwIMQgP61kCGrXok2VU/Dydrf5wswPP+2BV6hV2hAWgg2jUgKeaJzMzMX/OPlj1Ky4ydvnr2TFu0wxreL7x+HOiIOVymSMoKIEPfkIH+R/9HowZSc2unTxU+eRHtTshBvR/gGQ7+QWkPz4X2oIHI1oAkK3Nnzpz5bzxw2L+PkiT9UxNjk91HwguuALvR3R9dMZ+WyrK8Fo2OM94JQAgN6FsDSU73UlxRxz04WfvjZAGe98eu0CvsCg1AA9GuAUmWlw0Gwy/6R8teSptE8UmVIc4NYI1uYA23/v0Az1UDAA19gwb6H/0fTRo456gdS8pvnIh2B+Qg3w/wDAf/IPWHZ0N/0ECkaqCrhODZCwr7f0qSpO8XZma+Cje4QnuiG+ZNkryUZakcjCbHGe8CEIQG9K2B03l1s4aC5qdwrvbPuQI8759toVvYFhqABqJVA4ai9puSrEz6T8pe7hAE4ZcVSZptP374JoA1uoE1nPrXIkpzguXuMGBD37CB/kf/R4sGsmzVg0nOupXY811l0ep8hMN7AZ7h3IeDDtEG6BAaiCwNnCp4eldSzO+8oHBgpyyMFd9KSXoWTnCFtkQ3yNsEacpoKR+JFscZ7wEIhAb0rYG03NrJxPymXjhU++tQJeY3VRixznMJdLa/OoN9YV9oILo0kFjQ+IDJltbASNnLXbIs/zu7IPQBWKMbWMOpf/ME46hgvjEG4NA3cKD/0f/RooEUl3veUNheA4drfx0uwPP+2hf6hX2hAWggGjWQ7KytZUpOjRcMDvjUPzBJ0tvG+JNV4QRYaEv0wnx+VvaA0VI6Hi2OM94DEAgN6FcDGbbq0SRX/Vw0Ohzh9k6AZzj24aZJtAeahAbCXwOnnZWNkmIuDZiUvd2oMHa4+Ny5FwDW6AXWcOrb4nMZb42mq5MADv0CB/oefR8tGkjNq5s5VfC8BQ7U/jtQgOf9tzF0DBtDA9BAtGkg1XH7qSib87wxcMDnMjIyfgWJwwDOoQLsK6mpr0Tz5alocZ7xHgBBaECfGthIFFb08ma0ORvh+D6AZzj14ahLtAm6hAbCWwNpjpstTDZlBAzK291oYqzoRkry81ABFJ6jX1i/fjqljZkuTAM49Akc6Hf0e7RoAInCQuswAZ5Da28AAewNDUAD0aCBdFtJO2PsxHYMHPB5URR/N0cUh7uP6BfqAPSh6fvbKYnPJKUQ8JwDiIoWiMJ76FPLyU73Ynxhe1U0OBeR8A6AZzjykaBTtBE6hQbCSwMZ1osdjLEfBQzJO91oZqytNj6uFhAZGojUq50rEhMeKbIT8Ax4HgB06hM6o6Hfz9mrx5JdDdNwkkLnJAGeQ2dr6Bq2hgaggWjRQFZOUSdj7KOdGDjga4yxv3JmZnbrFerw3qH50aDWEFerSNbZaHCg8Q6AP2hAnxo47XTPGopaHkeLcxEJ7wF4hjMfCTpFG6FTaCC8NCCaXa8ZY38UMCDvdKMgCL+kMDb+9MTxewDJ0ICkHu3cFHuyQmHmBUCHPqED/Y5+j3QNZNqqh5Oc7qXY86+vw0kKnZMEeA6draFr2BoagAaiRQOiYu0XBOG3d2LgPV2TGTt1KT2tU49Qh3cOzQ8G7ceO3FIkZTnSHWi0HxAIDehTA6lO93RC/tPOaHEsIuU9AM9w5iNFq2gntAoNhI8GJMU8xRj71T0B8k43Z2Vl/XcmSZppP3r4JmAyNDCpNztTUjpZlteyc6ow5xXznqEBaCCiNEDLUyW73Muxxa9uwTkKrXMEeA6tvaFv2BsagAYiXwNdJZIkrx46dOhLO/Hvnq+ZGSvAslUA5/2EepMkL2VbKoYQudNn5A79jn6PVA2oy1MVNL2LfIci8pxCwHPk9Rn+TtBn0AA0cJAaOFXYdktSTBN7huPdKpAk6X81MzbRFfNp6X4CFOrWL6DnGKUZwXJ7JFIdaLQb8AcN6FAD1uoBmutsON9ZcZDOgF6fDXiGE65X7eO9oX1oIDAN0PcGUyyvdmPfoFw3MXbvTlLiEwCufgF3P/s+VxDHBPONMQCIDgEEw5Qjapgy/ka/+BtNc9ROJOU/GoYTE5gTs1e7AZ4Pxu577Tfcj36DBqCBg9JAsrO2limW2qDA8W6ViKL4f+eI4jDNT91PiELd+rRvQUZWv9F8bQKO+ReOOWwBW0AD4a2BZKd7Mb6wvfqgnAC9PxfwDAdc738DeH/8DUAD/mkg1VHxSFLMV3bj3qBdN0nSk8oEQwMAV5+Au5/9fiU9vUs0X5kCLIQ3LKB/0D/QwAcNnHPUjSflN07AcfHPcQmmvQieRZN9Kph1oq6D60/YHraHBqCB/dZAuuNWsyybjEGD490qkiTpP9mF7L79hCjUrU8wv5mc3MpMxdNwzAFn0AA0EAkaSHG55+ML2+r3+4se9W/vTAKet7cNdAPbQAPQADSwVQPptqvtsiwf2415g3n9H5gYe1UXd7IGkKtPyN2vfr+XmPhYkZwzkeA0o42AO2hA3xo4Z68eS3I1zMAx2eqYhNImgOeDtX8o+xrPQl9DA9BAMDSQbS3uZIx9J5hwvGtdkiR9w5Gd9W6/IAr16hPK6QcZhVnnACX6hhL0P/o/EjRw2uWeMxS2PgrGFznqCNwhBDwHbjvoDraDBqABPWpAMOW+YYz9wa7AG8wCBoPhF0yMddcZ4hB9RvK0oCWPe3b82F2TZF6MBMcZbQTgQQP61QBFnZNdDbN6dDrC7Z0Bz3D+w02TaA80CQ2EtwaYkjMiCMJvBZONfaqLMfbNXESfgwaOiLZ/UkJriMuyvJadU4Vle7B0EzQADYStBtSoc0FLExykg3eQAM8H3wf4O0AfQAPQQORooKtEkuRlQRB+ySfgDWYhNfosSW8w91mfQ6z3C/ZNTF7KtlQMIaqn36ge+h59H84a+DDXuX4uchyF6HbqAM/R3b/4O0P/QgPQQDA1YChoLZcU03gwmdivuiRJ+laekPV2v0AK9eoPzG1GNm20lI+Es/OMtgHuoAH9agBR5/By5ADP4dUfwXRyURf6FhqABoKtgcSCxgdMtrT6BbzBLHzo0KEvKYy9rjHE1QF09Qe6+9Hn+VnCoGC+Pg440S+coO/R9+GqATXq7KzHXOfi8HHoThU8vo91nsOnP4Lt6KI+9C00AA0EUwMpeZUNomy+GUwe9rsuWZb/wi4I/d1InIX5z0HQwOX09Nei6cpUuDrPaBfADhrQrwaS89wLhsK2hmB+kaOuvTmGgOe92Q/6g/2gAWhATxpId9xqlmUz8xt4g32DibHmygRD435EIlGnviLaZSnJLZLp/DQARb+Agr5H34ejBs456saTnA1TenIyIuFdAc9w/CNBp2gjdAoNhIcGzlmvdDDGDgebhf2uTxTFP8wRxWFEn/UFuvvxwwb9CKNIuTPh6DyjTYA6aEC/Gkh2uhfjC9tq4QCFhwPE+wHwHF79wfsFe/QLNAANhKMGsixFL0RR/Eu/YXc/brAwVnMnKfHxfgAV6tQPlDfEfVZlknLmASn6hRT0Pfo+3DSQ5qidSHQ1joWjI6D3NgGe4aDr/W8A74+/AWjAdw2IJvs7URT/1X6wsN91Msb+T4sojr+OOXwdsKsf2A12X7cfP3xTkZSVcHOe0R4AHTSgUw1YqweSnO4lQ3HnAzgovjsoobIV4Dn8+iRUfY/noO+hAWjAXw1Iimk2IyPjV/wG3f26wcTYpdIzp1uCDVSoT18wrkjycpalchCwolNYycF7Q/vho4GzubVTifmP+/z9gkb50Dh1gOfQ2Bl6hp2hAWgg0jVgKGq/KcnK9H5xcED1iqL4GwpjM23Hj5QDePUFvMHsb5vApgTzrVEARPgABPoCfaFHDWRZq4eSXe7luOLOO5HuNERr+wHPcOijVdt4L2gbGgiuBpKcDVWiYm4JCHL38yZJFM9dSE/vDCZMoS59gXhBRla/0XxtQo/OOt4ZkAoNhI8GUp3u6VP5T17BgQmuAxNMe6rwbLYjC3oYrb0dzP5FXeH7t4e+Qd9EmgbO5N5tkhTzlf3k4IDqFgThlxXGxptiT1YAevUFvcHq72upZzpF00UsV4XhywMAyfABSb31RYateiTJVb8Ue76rLNIcBD21F/AMB15Pese7Qu/QQOAaSLNfb5NkOTkgwN3vmyRR/HFeVubbYMEU6tEXhN9LTHysSE4sVwV4BjxDAwemgdPOurmEopZncFQCd1RCYTvAc3j3Tyg0gGdAA9AANOCLBrJyijsZY3+13xwcUP2HDh36komxDlqzF+CrL/ANRn/XxZ18qEiWOb1FuvC+iLJCA+GhgXOOuvFkV8O0L1/GKHOwThvg+WDtD/3D/tAANBApGjCaHD2Msd8LCG5DcZMkSf8WS1cBnAOBaUo4p0jKMkAiPEAC/YB+0JUG1pemii9sr44Uh0DP7QQ8w3HXs/7x7tA/NOC7BiTFPMUY+9VQcHDAzzBJ0sVrqWdaAwEo3KNv8FYkeSXL8gDLVWHY7oEN29UVMEJnGzrD0lS+OyLh4LQBniOrv8JBM2gDNAMN6E8DhuIXNyRZmQsYakN1o9Fo/HWFselnx4/eBQzrG4b97X+bkU0bLeUjABhEPaEBaCBUGsi0Vg+rS1Odf1EO5yoynCvAc2T0E/6e0E/QADRwkBqgZaqYYm4LFQPv6TmKJB0vyMp87S88oby+YbvoXGYvlqsCNIUKmvAcaI00cDqvbjah4HnbQX7B49n+OZiAZ//sBX3BXtAANKBHDaQ67jyWFEvxnqA2VDd///vf/4cKY68qEwwNAGJ9A7E//X8zObmVKeexXBWG024MpwXgAnD3UwPn7DXjSa6GmdjzXaV6dCwi9Z0Jno0mB5K7YZ3nkkjVMNoNmIUG9l8D6bbP22VZPhYq/t3zc4xG478xMzbx8ujhG/4AFMrqF7arEgxuRbLN7qezjLoBY9AANEAayLI+HExyupcMRR0P4cTsvxMTTBsDniOrv4LZ96gLfQ8NQAO+akAwu7okSfrqnqE2lBVYJMlxKTW1A0CsXyD2p++fHT921ySZFwE3gBtoABrYbw2k5tVNJxY8eevrlzDKhY/DBngOn77A3wX6AhqABsJVA6JiGRUE4bdCyb57fpYkSf9IkaSxxriTD/yBKJTVJ2x3H/mkRJHk1eycKgzbxdBtaAAa2DcNZNhrRpJd9YuxRS9vhuuXPtq1vUMKeN7eNtANbAMNQAPQQHfJeqbtBYPB8At7BtpQV8AY+6ZdEPoJjADFsMFuGkDGbUQc9zviiPqhsRSXe95Q0NIEByMynUzAc2T2G/7e0G/QADQQKg0kFjQ+YIqlPdTcG7TnmSXpfmlKSvNu4ITrgOvCjMw+ZNwG3ABwoYH90sBZR81UUv6j4VB9geM5wXcWAc/Btyl0CptCA9BANGmAMm2Lsvli0GA21BUxxv4HhbHJZyeP3wcgA5B30sD10yltyLgNcNovcEK9+tZWpo3WdK5fij//8nY0OQl6exfAM5x8vWke7wvNQwP+aYAybUuS9FmomTeoz5MZ+4FDyO7D8G3A807w/CAhvl6R7Mi4jfmu+zbfFQCtX4Cm4doJBc1P4YT454SEm70Az5Hdf+GmJ7QHeoIGok8D2Zb8VxGXadsbeZsYqy5LSXm2Ezzhmr7huvnE0TuKZFoC4OgXcND36Pv90EBabu1kUn7TKJykyHeSkvKf3BOxzjPWOMY619AANAANbKMBpljGjUbj/+iNRyPqXGZm5m8qkjRFSxIBkvUNyTv1vyLJy1mWysH9cKBRJ8AMGtCfBjKtH4ZrxxV33gE8A56hgcjXAPoQfQgNQAPbacBQ1H5TUkwzEQXJOzVWYexHdqPQ3xXzaelOAIVr+oXrXEEcE8w3xgA5+oMc9Dn6POgasFYPqMO1i1qebfdFi/OR5YQh8hxZ/YW/L/QXNAANhFIDp521tZJirtuJRyPumpp9+8xpZN/G8l1ely+7cvbsK9F8eSroTjTmEWMeMTSgOw2cza1Fdu1thrWF0pkJ5rMAz3DEg6kn1AU9QQPRpYE0e1kLk03ZEQfIOzWYMfariiRNNMadfIAIs34jzNv1/f3EU02KlDcDeEYUEhqABvaigQx7zUiSq34p7vyLcjhH0eMcAZ6jpy/xd4m+hAaggWBrINNS+FKSpG/txKIReY0x9p9zRHHkdczh69tBFM7rE6wfnzx+X5HMC3txmnEvoAsa0LkGrNUDyU73oqGotTHYX8yo72CdPcDzwdof+of9oQFoIJw1wEzWIVEU/1lEAvJujVYYO385LbUDkKxPSN6u32k5M1mSV7NzqnQ3xBTAp3Pgw7DyoP3Np+bVTSfmN/WG8xc82haYAwp4Dsxu0BvsBg1AA9GuAUPxixuSrCwcOnToS7txaEReFwThl02M9T44FV+/HUjhvD7B2iawKcFycxQwCZiEBqABfzVwzl4znuR0z8ee7yqLdkdBj+8HeAYA6FH3eGfoHhrYXQPJrrqHTLE8j0gw9rXRgiD8jkmSplqPH70NUNYnKHvr9wvnMt4YTZ9P+us0ozxACxrQtwaybDVDya76pf+fvTeBjyu763zTyZAAeSGEMDBkhmF4j/nwhnkzwwAvQAgBskxgYIaQYMiQFxJIpvPYJg/SS9zxUlptteSSXHXPufdWabO1q7vT3Zbl3d221Vpty7tkybK877JlSd63fp+/5OtUqyVbSy13+frzKVfVrbuc8z2/e///n8695yytO9xCovHkRMOLjLKZ55m5XX02CJ4Xz0PK7M/rq9fb9cVVmw4Yll0+Ux/q2fVsrV9YtbLktNyuO5WRYlnwuGzOzdlnmjVjGKFgGyHan/afrQaWVXfeyKo90Ov1BIDyT5+YYp6nZ4NuYIMG0ECQNVBc+nKfUupbnjXFsyj4U7ZSLWuZvoo/Hjz8A8ruRS9sZ9AwjNNsjRPrB1sz49NSVe+6HOTEIQh1xzxjDoKgc+qIztHA7DVg2GXnDcP4lVl4UO+uOj59lVJDnUsWtdLTHLye5sltLnchWNq8XxLfcQFDFGxDRPvT/jPRQLii7XJedddtpqWafbLhtQQN8+z/NvaaJikvmkQDmdfA0oa+9do0/TtY2FQ23zCMz9hKjfQufHbTZDPF9+AZ6oqIMRyJrbsyk8SZdTBYaCC4Gigpa72YW9V5Z2ldbzsJTOYTmFS3AebZ/22cag2xfzSEBvyngbyq9nZlxnZN5TF9vcxUKrRqZckZnn8Onlme/AeS1158ccCwX+a5Z6YvStr0RRhsfxrsZVUdN7Nq9/eRDPkvGZqqTTHPwWjnqdqeZbQ9GkAD02mgsHxdjzLtsK+N8jSVeyqm9Zuvv7i8d7KZ4nuwDPX2rNBOS1dcx/D40/DQrrRrMjRQsKp9LLdm96XpginL/ZdoYZ7916acp7QpGkAD89VAJFY9aJrml6bxl/5ebBjGRy2tz+3IYv7nIP/BoHfhc5ssbd1NRoLNPjBqaMB/GpD5nPOqu24uaRjYMN+gy/beSdwwz95pK84r2goNoIF0aUBb9lg0Gv2Yv13yY2on8z9bSo3sX/jdrUE2kEGve0yZt1bGt17C+PjP+NCmtOl8NFBc1nqJ+ZyDmZRhnoPZ7ulKwDkO+kID3tNAdu2+rcq0Lz7GWgbjJ20Y3yyNRocGnn9mXdBNZFDrX1Nccj4aW3N1Pkk222LS0IC/NFBS9taFvKrO21l1h/aS5HgvyZlvm2Geg9fm89UM26MZNOBvDRRUbtttmLHmYDjkJ9TSUipWW1x8nAHEgvW8s/PHgvX5eYe0Vc+gYQwaxqBhaOCRBpZVdV7Prt5zgmTI38nQdO2LeQ5mu0+nB5ajBzSABsJl3+9TSj3zBFsZjJ+ffvrpH7KV6lqzfNkhx1DxHhwj3bF40VuWLr1Jz6G/eg5pT9pzrhp4cVX7aG71ruHFDYNrSZiCmTBhnoPZ7pzvtDsaQAPTacCwK04rpT4RDHc8g1qapvlTtlLnd2QzgFjQ/nAw+Nx31lqmea8kvuPCXJNttsOooQF/aEAGCMut6rq1uPHoxukCKMv9n1xhnv3fxpzHtDEaQAMz1UCo8cg607RuhkKh98/AVgZnFdM0/7MMINa9eNG2oBnIoNd3VcS4Eo2tu4IB8ocBoh1px7loIFzeOjQ+QFh93/aZBlTW82fyhXn2Z7tyvtKuaAANzEUDy1a3dWgr1hEcVzyLmiqlvhhT6qpMYRR0Qxmk+jctX9anrEaee+aZ10fPvM7FfLGNd017SXnbxdyqzjuhut6dcwmsbOOvhAzz7K/25PykPdEAGpiPBsIVa3q1trJmYSmDtaqt9QsV0cj5Y8890xwkAxnkunYsWdRm6fgNzI93zQ9tR9vNWQNlrefzVnfeyqo90Duf4Mq2/knOMM/+aUvOS9oSDaCB+WogaleeUkr9XrAc8SxrG1Oqti4cPsYI3MEYOEz+UGJq8/7K0hZ6Hul9RgMB08Cy1R3Xc2q7T883uLK9fxI0Mc9Ru/wabeqfNqUtaUs0gAbmooGlDf3N2rRuhcPhH5mlnQzW6vJAuK1Ux5qC5T1B7pENUt0rosbVCM89YxwDZhzn3FvrE04FEyNrX2FkbZKqxKQK84weEvXAZ/SABoKrgfzqjjZlxbuD5YTnWFut9UdspY5vys/dGySu/enTAAAgAElEQVQTGdS6rikoOKLsl3ju2SemKOimkPo/+Tb2wsr2q7lVXdcX1w9sIDEKbmI0VdtjntHDVLpgGbpAA8HTQGHl2h6treVztJPB28wwjJ+zlBrakcUUVn431W2hJR2WLuO5Z8wzve8B0IBMSZVX3XV7SWP/FpKh4CVDT2pzzDOaeJJG+B2NoIFgaCAaW3XCNM3PB88Fz6PGSqlflimsOpYsesvvBjLI9Rt4/pl1lmnd47nnJ/fY0asJIy9rIFzRdpkpqYKR9Mw1ucU8o4+5aoft0A4a8I8GljQMrNWmdbOwsPCD87CSwdxUa/1ZW+vRfd9b+EaQDabf614RMUai8fWXvWwMKDvGFg1Mr4Hi8tZLedWdd5fW9baT4PgnwUl2W2Ke0UayNcX+0BQa8J4G8qo72rQd3xdM95uEWptKfSVuGMMHFj6/2e8mMqj1W1NQ0M98z9MbD0wZbLysAZnLOb+663ZW7aFukhjvJTHpbDPMM/pIp944FnpDA+7UwPj8zpaVkwQbGdxdWEp9u9Qwhg5/99mNQTWYfq633Jpv69KbXjYIlB2DiwberYGSstaLeVWdt7Nq9x8kSXFnkuKmdsE8oxE36ZGyoEc0kBkNGLGKM1rr3w6u801SzU2lsiuikfN9zz2z3s9GMoh1G3zuO2stbd4riW+/gAF5twGBCUy8qIGS8tYLeas7b2XX7u8jAclMAuI17tm1+7YazPPc5LV2o7yc32gADSRLA6H6wxu0ad0IhUL/LEkWMti7MbXWq1aWnD723DPNQTSZfq5zVUnkYjS+dtiLJoEyY27RwCQNlLWez1/dcTO7Zu+xZAVU9uP/5Azz7P825jymjdEAGnicBpZVbd+lrPiWYDve5Nb+KVvruleXL98tvZV+NpNBq9um/NwD2qq5hgmZZEICMH0Rbe6zNi9rPb+squNGTs2+/scFSH4jgZqsAcwzmpisCb6jCTQQLA0Ul73Ur7X+h+Tax4DvbcGCBe+LKfVaTXHxCQz0PzX5xWTLiOqWtu9gpHxmpDD/wZq/+pFx3nOWhCdYCU8y2hvzjGaSoSP2gY7QgHc1oKz4Fa31Lwbc7ia/+nIffEyp5rri4mMYaP8Y6Jgyb0XiWy9hoDHQaMCDGhDjvLrjek5N9/nFDYNrSV68m7xkqu0wz2gmU9rjuGgPDWReAzJopDLti8l3juxxnMDTTz/9QzGlNtWUFJ/CQPvDQDcUhU9F7ddGME4eNE70MAerh3mK9hbjnFvTfQHjnPkExKtJIOYZ7XhVu5Qb7aKB+WvgxdWb9iszVo3VTSEB6YG2tG6vWlly7viz/jCQfrkNey712J6TvcvSFdcxz5hnNOAhDYzfqt15K7dm9yWM8/yThyAnYJhn9BNk/VN39B90DayM1xxVSv15Cq0juxYCoVDovTGt36wLhwfpgfb2HxBkGjLLtO6tLG0JfC8e5tFD5nGKXtjAtJ+Mql3deTunZs+poAd96j//xBfzPH+G6BCGaAANeFEDS+v7m2WKKq31R3C4aSAQCoXeL7dw8wy0t82z9FZXRqLD0VjzlcCYjyAbL+ru7T8SPXrGefdFepxJ1pKRrGGe0VEydMQ+0BEa8J4G8le1dCoz3pUG28ghHAIPn4FuZhRubxvo9fl5h7RVN4Z5pucVDbhYA49G1WZwMJK05CVpmOfksUSXsEQDaMBLGigue6VPa/2s4+t4TxOBh6NwvybzQB977pnmuTx3yzaZNd9MWeViw0RPsbd7ipPVfmWt5wtWdw7nVHefo8eZ5CyZyRnmGT0lU0/sCz2hAe9oQFnx4Wg0+n+myTJymEQCMg+0rXXdqpUlp+UZWsxwZs3wXPjHlb4ZiW8eoucRI40G3KWBkvLWC8uqO2/k1u45TVLinaTEK22FeUZTXtEq5USraCB5Gsip6d6mTPtMop/jc/oJPGVqrSuikfOHv/vsxrkYOLbJnOn+flHRMWW/Mopxcpdxoj2C3R4lZa0X81Z33squ3XeMpCF5SQMsf8AS8/wDFugCFmgADQRFA4UV6w4p01Lpt4sc8V0ETKWySw1j6MDC5zdjhjNnhmfLvn3pknZLl97ErAXbrNH+7mn/kvK2i3lVnbeza/f3BSWYU8/0J66Y5/QzR+cwRwNoINMaiMYqTxmG8bl3GTkWZIaApdS344YxLM/SztbEsX5mDLdMOWZp815JfPsFDJR7DBRtEcy2KC5vvZRf3XU7q3b/wUwHWI7v7yQP8+zv9uX8pX3RABqYrIGldb0btWldl4GfM+MUOeqUBEylvmJrPdqxZNFbGOLMGOLZcq8tLjkfja25imELpmGj3d3R7uGKtst51Z13s2oPdU8OeHwnCUq2BjDPaCrZmmJ/aAoNuFsDy1dt7VZWfM2UBo6FmSWgtf6spdTIjqylXbM1cqyffsP9Zk52t2VWXsdEucNE0Q7Ba4cVFW3DedVdd5bW9baTfLg7+fBL+4ybZ6vsul/qQz04b9AAGkADj9dASbxu0DTNr2bWJXL0aQkopX7ZUmpoU37uXgxx+g3xbJjLSOkTt27v4NbtZE0xxH6YamqGGiisbL+aV911e2l933YC/+MDP3ySxwfznDyW6BKWaAANuF0DocYj67Rp3Vy+fPmHpzVv/JB5AoZh/Jyt1PE1Bct7jj/rbgM5G7Ppx3VXr4wMReNrh+n1DF6vJ22euTYvWNU+mlvVdX1JY/8Wtwdeyuev5BDz7K/25PykPdEAGnicBpZVbd+lzNi2zLtDSvBEAlrrj9hKddSFw8eOPfdMsx+Npx/qtDU3Z69pruLW7Rn2FmI4M2c4fcG+rPX8stUd13Ord11ZXD+w4XEBj99IiFKhAcwzukqFrtgnukID7tTAynj9gNb6m080bqzgDgKhUOj9MaVqZS7o3oXPbfKD2fRbHQ4vfGaDZVr3Vpa2cLstBhoNpFAD41NRre68lVu75/TihsG1JBruTDT83i6YZ3Tnd41TPzSOBiY0sLS+v1mb1o2ioqKfdIczpBQzJmBr/UJMqavdixdt85v59EN9VkWiVyKxZm7dTqFx8kWvKXzm/MeFcHnrUG5V553s2gO9BHUSu0xqAPOM/jKpP46N/tBA+jSwbPWOLmXF22Zs2FjRXQSUUl8cH4k7m5G43Wa4N+fn7Les6msYPG5JRgPJ14AzonaorncnSUP6kgZYT80a8zw1F/QCFzSABvymgeJ4w4BS6m/d5QgpzawImKb5n22lzq9ZvuwQA4m5ZyC13oXPbrI0t25jHJNvHIPO9MWJgcFuMaI2SZlbkjLMM1p0ixYpB1pEA6nTwJKGgbXasq8rpf7FrMwaK7uPgGmaP2Ur1VVbXHx84Pln1rmtFzao5amMGlejsXVXgm52qD8GOhkaKCl768Kyqk4ZGGx4cePRjSQIqUsQYDs7ttl1+7com3me0c3sdAMveKEBb2lg2eq2DtOK7XafE6REcyLw9NNP/5ClVKw0Gh3av/C7W4NqWN1U7/X5uQe1VcOt2zzXO+fnepNhOv2wj+Ky1kt5VZ23s6v3nGBgMG8lG0FIDjHPaDIIOqeO6DzoGgiXNvYrZX17TkaNjdxLQBvGN+U56JasUKebjGQQy8Kt2/S4+sG4ZroOzvPNWXWH9gY9cFN/dyavmGd3tgvnC+2CBtBA0jQgo2xzy7Z7DfB8SxaJRD4uz0G//uLyXp6Dzuxz0KtXRi5HYmsZdZveZ3qf56CBglXtY3nVXTeX1h1uSVoAbCSZgGVyNYB5Ti5P9AlPNIAG3KaB/FXbdzLK9nwdqsu3NwzjozGt31y1suSM9IAGsefXDXV+Izdnj2muup7p3juOTy+4lzRQUtZ6cVlVx83cmt2XljQMbHBbEKU8JHaJGsA8o4dEPfAZPaAB/2lgZWndUdM0/9rl9o/iJYHAU6ZSIVupkc4li1rdYCaDVoYj331mvWVa90riOy54ybxQVsx2pjQQrmi7LPM3Z9Xu7yMB8V8C4sc2xTyjUz/qmjqhazQwoYGlDX3rtWndWL58+YeT4M3YhRcIGIbxGUupobXLlx3kNu7038ZdU1xywYituZopM8JxMcJe0YBMQ5VX3XV7aV1vO0GbxM0rGsA8o1WvaJVyolU0MHsNFKzaskeZsXVe8HyUMYkEZE4yW6mWVStLTvcsfH5z0HqAM1nf7VlZOy1dfsMrBoZyYrbTrYGS8raLy6o7b+RW77q8pOHIJoL77IM7zDLHDPOcOfboHvZoAA2kWgPReNVxpdSfJtGWsSsPEXjK1voFW+vRHdlLuzJpKIN07GPPPdNsafPuyvi2i+k2JRwPI+x2DTwaTbv2QG+qAyD7J8lKhQayapjnORVc2SfnKxpAA5nWQKi2Z5M2rbFQKPTDHvJ7FDXZBB6Oxn3m+4UFfWLsgmRkM1XXhhXh04b96qjbjQzlw2ynTQNlrecLVneM5VZ1Mpo2I4A3ZTpBms/xMc8k+PPRD9uiHzTgXg28WLnhgDbjNcn2YuzPgwQikciPWUo1lBrG0K4li3ZkylQG5bjtS5e0W7r0ZtqMyRymBaJsGOd0aSBc0TaUV9V5O6em+8zihsH1JA7uTRxomye3Deb5yYzQEYzQABrwogYMu+K01vqzHrR6FDlVBOQefkvrqzKY2OBz31kbFDOb7nrKQG0xZd6KxLdcSpdB4TiYYddpoKz1vAwKllvddSdU37PLi4GUMpMATtYA5hlNTNYE39EEGvC+BnJqurcp074YCoXemyofxn49SkAGE5M5oSuikXP7F353a7qNZVCO9/ry5UeUVT/mOkNDL/V52iT1f2goLmu9lF/d+XDuZgYFI7HyfmLltCHm2T9t6bQp77QpGkAD4fLXDmvTzvOovaPY6SBgKfW3ltaj6/Pz9zOlVfKntNq/8Pmtlrburixtwaxh2AOlgcJV7SN51Z13s+oP7SchISHxmwYwz2jab5qmPmg66BpY0jCwVlux0Ugk8n+kw4NxDA8TKC4u/je2Uq2VkZVn9y9a+GZQeoXTVc/KSHQ4Emsepqcz9T2dMM484+Jyp7e5+/KSxv4tQQ/G1N+fCSnm2Z/tyvlKu6KB4Gpg2eodXcqMdXnY0lH0dBMwlfqWpdTI2vz8g/RCJ68X+o2cnD2WWXkdY5d5Y0cbpLYNXqxsG82r7rqTVXtwHwlIcBOQILQ95hl9B0Hn1BGdB0kDK2M1x7TWX0u3/+J4HieglPrZ8WehI5FzjMidHAPNnM+pNWwY4szzlZG0nWeblzYMbA5SsKWuwUwuxTwbVtkN2j+Y7U+70+5owF8ayK7r3ai0fa2wsPCDHrdyFD9TBJRSX7G0vvJKQUHfwPPPrEvXLc5+PU5DUfiUsl8dwehl3ujRBslrg5Kyty7IvM151V23Q7WHukkm/JVM0J7TtyfmeXo26AY2aAANeE0DhTK3s2VXZcp3cVyfENBafySudWVMqavbs0I7/Wps01GvjiWL3rJ0/BbGLXnGDZaZZbmiom04t6rzTk7t3pOL6wc2eC1QUl6Su/loAPOMfuajH7ZFP2jAXRow7LKL0Wj0t3xi4ahGpgmImCyljtaWFB+T0aPTYTb9eIy4oW9E45uGMH2ZNX3wnx9/mX5qWVXn9dzqnddC9X1vkQC4KwGgPdLTHpjn9HBGz3BGA2gg1RrIrdrZoi37RKb9Fsf3GYGnn376hyytF1pKja0pWN4jz/H60eCmsk4b8vJ6tFV9DfM2P/MGvwzxK2s9/+Kq9tHx6adqD/Qubhhcm+qAxv5JmtyqAcwz2nSrNikX2kQDs9NASWnjEa31sz6zblTHLQSi0ejHbK1fjhvG8Pas0K5Umk2/7fvwwmc2WNq8VxLffgEDmCEDyFzTc5prekVlx8Qt2jV7zi5pOLKJwDy7wAwv//HCPPuvTTlPaVM0EDwNhOoPb9Cmdd0wjI+6xWtRDp8S0Fr/tq1U3+qS4pPdixdt85vRTVV9GlYUnzHs749injHPXtBAuLx1aFlVx4286p1jS+sOt5JYBC+xoM2nbnPM89Rc0Atc0AAa8JIGXqzccEBZsQaf2jWq5TYCCxYseJ82jL+zlBp+qaiov3fhs5tSZTr9st+OxTJwWOy2F4wTZQyuwS8pa71YUNU5JgOCZdUf2u+lQEhZSdzSoQHMMzpLh844BjpDA6nVgLLKLimlPuE2j0V5fE4gEon8mDaMFZZS19YuX3aI56EfPz90WVRdi8bXX8acBtecurbtE55rzq7Ze3Rxw+B6AndqAzd8vck3u/bAZuZ59mbbcc7RbmgADYgG8qs72rQV6/e5TaN6biZgGMbP2Uq9Is9Db8nN2XP82cebSL/0Js+2Hpvzc/ab5qrrrjVQPBc8p+eCvd6ehRVtV8ennpLnmhv7t5BckFyggek1gHmeng26gQ0aQANe0EA4XjdomubfuNlbUbaAEFBK/d9xpdpKDeOSDCqGiX7nHxEGnn9mnaXNuyvj2y563XBRfu/3nstgYHlVnbdzqnddCTX27/BCwKOMJGaZ1gDmGQ1mWoMcHw2igblrIFTbs0lp+1pBQcGHAmLPqKYXCBiG8TlbqYMVkci5ttCSjtn20Pp5/ZdXhE8o+2UGDqOXO2O93CsqWq/kV3fezK3aObq0rredIDz3IAy74LHDPAevzTnPaXM04B8NFFY0H1JmrMwLfooyBpCAaZpfspQ6tjpScrJjyaI2P5vimdZt96IXtlvavrOytCVj5oleY+/3Gs+lDcU0L6vulBG0r4fqeneSDPgnGaAt09eWmOf0sUbXsEYDaCC5GhhsMuzSy5FI5D8F0JZRZa8QGB+ZW+v/x9b6xKqVJac7QksCb6IrI9HhaHzt8FwMENsE0/jOp90d05xb3XUjq66nO7mBiMAOz2BpAPMcrPbm/Ka90YB/NLCsavsuZcV3esVDUc6AEwiFQu9VSn3FVup4pZjoAPdEb88K7bR06c35GCK2xUQ/SQOOaR7vaa49hGlu9E8CQDKXubbEPGeOPbqHPRpAA/PRQDS26pTcFRtwS0b1vUZATLTW+i9spY5WRFaeFSMZtIHFpL5xZd6MxjcNPckA8TsmebYaWFHRNjz+THP1zmuhup7d8wk0bEuiggbeqQHM8zt5oA94oAE04AUN5NTu2qFM+5zcEes170R5IeAQeEpr/QVb670yOveW3Jy9g899Z+1Mnx32+nrr8/MOWVb1tdkaI9bHTE+pgbLW84WV7Vdl9Ozcml1Xs+oPd3khmFFGki6vaUDMs7LKbnit3JSXcw0NoIEga6A43jCglPWMY0J4h4CnCRiG8SlbqTdiSl1dl5934PDzz2zwujl+Uvn7nntmvUxbFYm/ybRVjLw958HjSspbLxSuah+ReZpza3Zfymrsaw1ycKTuJIep1gDmGY2lWmPsH42hgeRqINQwMT3V8uXLP+xpw0ThITCZgNb6P8aUqrW1vvZKUWH/vu8tfONJJtTLv79SVHRcWY1jU/YkYijnbCiDwLO4vPVSQVXnWF51592c2u7ToYb+bQTb5AZbeMJzKg1gntHFVLpgGbpAA+7VQGH5mh5txczJvoPvEPANgZKSkp82lcq2lBquKi4+3r50Sbsfn4vev/C7Wy1t3WXaKm7FnqnhHx8ErKrzuvQ0Z9Xs61/ceHQjAdu9AZu28V/bYJ7916acp7QpGvCvBpbW9zcr0x5TSv2Cb4wSFYHAdAQikcgHlFJft5U6LM9Fj9/SvdBft3RXlay8GLVfH5mpeWK94Blt59ZseZ45r3rnWKj+0J7FDceaCfb+Dfa0rXvbFvPs3rbhvKFt0AAamKyBglVb9ioztnk6r8FyCPiWgGEYv2krVW9pfb1xxYoju5YuavHyLdtO2WXea0vHb2GKg2eKn9Tm4fLWywWrO67lVnXcy6npPrO07nDL5KDAdxIFNJBeDWCe08sbfcMbDaCB+WjAsMvOm6b5ad8aJCoGgScRCIfDP2Ep9Yyt9cmKSOTsxvzc/Yc93htdHlGj0VjzlSeZKX73v8F2epknpprqupFde+DQ4vqBDfMJHGxL4oEGkqcBzHPyWKJLWKIBNJBKDeSvbunUVuzQk7wFv0MgKASekr8kxZVqlN7ouuLioy2hJZ1efDZ6e1Zol6XLbmKO/W+Op2vjFZXtV5ZXdT7qZQ7VHW5LZUBh3yQsaGBuGsA8z40beoMbGkAD6dZANLbqtNZ6QVCMEfWEwIwJRCKRH9NaP20bxl5bqZHXX1zeu3vRC9udW6Pd/i6GP27oG5H4hsvTmSuW+89Yh8tbhwpWtY9NTDO162qo9uC+xQ2D69MdXDgeCQ0amLkGsmsPMc9z48x5oS1YoQE0kAkN5FV3vGVasVOhUOi9MzYUrAiBIBLQWv+iqdQyS6lzZYZxoXlZ/qGD33t+i9sN9ObcnH2WWXkdk+w/k5zYpsVlrZcKV7WP5ld13cqr7rqZXbf3yJL6vjcyEVg4JgkNGpi9BjDPs2eGzmCGBtBAujWwsrTmmFLqW0H0QtQZAnMm8HCQMcvWergysvKUjNZ9YOHzm91opI8990xzTJu3I/EtlxLNFp+9b6ZLytsuFq5qH1lW3Xkjt7rrTk7N3uMM/kUike5EguMlR3OY5+RwRI9wRANoIFUayK7d86Y2rSsya8+cTQQbQiDIBEKh0D8zTfPzttarLa1HKiKRM+vz8w/KPMtuMtLNy/J7tVV9DcPsfcM83sNc2Tb6cOCvOzk1e06F6no7FjcMrk1VsGC/JCJoIPUawDynnjE6hjEaQAPz0UBxvHHA0PqFIHsf6g6BpBFYsGDB+wzD+IxpGHFL6ysyYvfry5f17lzyQkumBxvre+6Z9ZYy70ZK37yIgfaegR6fWmpV+1heVefNvOqu29nVe04w8BcJwHwSALZ1n34wz+5rE84T2gQNoAFHAzKoo7bs0eXLl384aeaBHUEAAo8IPBWNRn/LUqrQVuqorfWozCG9PStrp9xGnYle6dcKCweUVT+GefaAeS5rPb+iom1Y5mLOq+68m1u981p27b6BUH3fW85FnHcCOhrwlwYwz/5qT85P2hMN+EsDK8q+36dMu+hRps8HCEAgdQSKi4v/jVLq7+NKbbe0vrlqZckJGXBs15JFO9LVK334u89uNJV5tyS+/QIG2n0GOlzRNiQDfi2r6riRW915L7d691Co9sCBJY39WwjA/grAtCftOZUGMM/oYipdsAxdoIHMayBUf3iD9DqXlJT8dOrcAnuGAASmJBAKhX7UMIz/GtM6Mt4rrdS12nD46NbcnL37Xnj+jVT2Sr9SVHSc3md3GGd5drmosv2qzMHs9C7n1O0bXFrb07m44VgzwTLzwZI2oA3SqQHMM3pLp944FnpDAzPXQLj89V6lY+aUiT0LIQCB9BIoLi7+GaXUX8aUarC0viDzSdcVFw9szs/Z371o4bZkmunehc9tsjS9z5noeZe5lwsr20YmzHLXndyqrls5Nd1nQvWH9ixpOLKJIDbzIAYrWPlRAxPmufSmH+tGnThn0QAa8KoGHvY6XwuHw/8yvQ6Bo0EAAjMiILd4a62/ZitVZSt1ylJqrHplyeDaZXk97aEl7TL413wM9SsrpPe5gWefS1PXA11S3nphRUXrlYnbsDuvT/Qsd90YHxlbzDK3Yjd5NYhSbhLAVGkA84y2UqUt9ou20MDcNVBU/nqvYdn2jJJ4VoIABDJPQHqmDcP4E1Oporhh7JRnpssM48LLRUV9m/Nz93csXvTWwPPPrJupoe5Z+Pxmep+TZ5xLyt66sKK89bLMt1xQ1TmWX9V1a+KZ5V3D44N81fXupGd57kGLgA+7oGgA84zWg6J16onWvaIBp9c5Eon8q8w7AkoAAQjMiYBMiaWU+mWt9dOWUhUxwzhoaX2rNBq9WBcOH1mfn3eoLSvUcfB7z2+ZzlC/vGLFCXqfZ2+g5TnlFZXtVwor20bl9msxynkyuFfVztGcmu6TodqD+5bW9233SlCgnCQwaMA9GsA8u6ctOC9oCzSABkQD0uusTTs+p4SdjSAAAfcSEENtmub/ZZrmV03DWBk3jLcsrS+Jqa6IRk83hsP9Yqp3ZC3t2r9o4Zv7F353K73P05jnstbzxeWtl2SqqIcmeSy/uuuGmGSZYzm3etfl7Lp9g1l1Pd2husPbCLAEWDSABpKhAcwzOkqGjtgHOkIDydHAeK+zaY8ppX7WvQ6AkkEAAkklEIlEfswwjN9USn1DTHVMqTdswzhhaX3H1OatktKX78itxvJsblFF29VwRdtl6V1dWdZ6PhODaqXlmGKOy1ovSV2lzlJ3YTA+RVRV553cqs77udVdN3Jrdl+aMMmH9i6tO9yyuGFwPQEpOQEJjnBEA+/WAOb53UzQCUzQABrIlAbGe52tWGlSE3N2BgEIeJNAKBR6r5hqbdo3sqq7D2bX7T2SU7PnbG71zqsyCnReddf9vOquO3lVnTeWVXVeE3NZsKp9THpixXDKYFgyerSYUBkcKy2m9zEDfEkZxg1xeevQI1Nc2TYqZZ4wxp3XpC65VZ13pG5SR6mr1FnqLrdbh+oOtzGQF0E6U0Ga46I9zDMa4DqABtCAOzTg9DqXlJT8a29m+pQaAhBICQF5jmNF+ZqeqS7WMsiV9LgurevtEnOZVXugN6dm7/Gc6u7zudW7ruRW77w2bkKrOu7lVnc+kBGl86o6b+dVdd58aLqvi/GW13Ix36s7Hr0KV3eMjb/EkCe+Hi5PXFe2dfazrKrzuuz74TFuT4xi3fkgV8owYYiv5VbtHJYySlmlzOPPIdf1do33HtcPbJ6qrixzR7CiHWiHIGsA84z+g6x/6o7+3aQByY151jkl1oOdQsDbBKLR6Me0aY1lNfTMf57h+oENixuObJUBs0L1fW9JT26orqczq753l8xlnFV/aH9O3YEDWbX7D2bXHjiUXXewR8xtdu2Bw/Ia/1x3sEd+k3XG160/tH9i295dsi/Z57ihl0G5Go5sXSzHbCTgwAANoE/a+aEAACAASURBVAHva0Cuw8pinme07H0t04a0oZc1EGro2aRNe0xyZG9n+ZQeAhBICQFl2uHislf6vHyho+wEajSABryuAcwzGva6hik/GvaDBiQnltw4JUk3O4UABLxPIBwO/4Q27ZHs2n1b/XDRow4EbzSABryoAcwzuvWibikzuvWTBiQX1pY9Krmx9zN8agABCKSMgNaxJSWl9Uf9dAGkLgR0NIAGvKQBzDN69ZJeKSt69aMGJBeWnDhlCTc7hgAE/EGgsLDwg9q0ruTUdDNvMc9QN/kxIFInEj23awDzjEbdrlHKh0b9rAHJgSUXlpzYH9k9tYAABFJKQCn17ZXxmuN+vjBSNwI/GkADbtVAqs1zVcuFln0nrg0ue/3kutkwaOkdPrR+71B3wevH3zHXvbHxzNaDJ68dK3z9xBMHbvx+11Dnjt7hQ9Mdd0XzqY17jl8/8lLHpY7p1plued73T67rODLau//ktcHp1klcnv3ysealLyXvPChee3LTwIUbZ6SOicdxPq9cf3rzqct3LrzaNdTlLOM9efxhCctkaUByYMM0/1dKk212DgEI+IdAKBR6vzLt83nVHW8l60LEfghqaAANoIGZaSCV5nlF88mNDx68/eDtt99++8TQnfMzNY+RDWe2yDbyr7rlwjtiw7Vb96/L8pNDNy9Ot7+Vzac3i1k/OXTnvKyb9dLgWmPj6XeNryH7lt97zlyf9R9wV64/s1m2lX+N7RfbH6e30q1nt9+4ff9m/9nrp5z15I8Ap6/cuvik18CFG6edbRLf3+obPiTHvv/g7Xt1HRfbEn8rbDq5YfjG3VH5/dad+7cTf+PzzM4LOMEpHRqQ3FdyYMmF/ZPZUxMIQCDlBLTWX4vGVj9KKtJxweIYBEY0gAbQwPGmZJjn+Naz27b2DO+b6iXmbdxhvv3224fPXj851TqVLed2JLZFa/9Ir2xz/db9G5MNsmzv7K/r6Eh/4nbyuWrHeTHED1r7R3oc81y27ex2Z5u79x/cdV7OMnl3lsn7nXsP7kqdZH+b9l/eK+Z6qpez/djNe9en+l2WSQ/wxr2X9zrr7js5Nj7OR3XLhVZn2ePepTxOHbNfObE2sv70FnnpzaffGL1175qzrbNc3o9dvHnOWf5a19BO5zcx1c6+eOf6hwYyrwHJfZVSf5nyRJsDQAAC/iIQCoXeq61YX/6q7Tu5mGf+Yk4b0AZoIDgaGJ9b1J7fPM+7jo72O2ZtLu89Z66dSNTc8LWJXtPes9dPrOu+svsdrz1D3c4xLo/dvfqO37qv7I69ce5N+X1o7M5VxzzvOXF9QJZduXZ3RG5ldl7yXZbfvvvgtrPMeRfDKWVy9uEcc7bvNW+dH+8Vlj8cONtu6xk+4JjnwYs3z4ReGlw71csx9A6bLQd+8IcDZ1+zeb80eueKsy/eg3OO09bubGvJeSX3lRzYX1k9tYEABNJCwDCMzxhW6eUlDQNrudC780JPu9AuaMB/GkimeT539c4l6TWe6ev4pZvjt1UnmufEXuJdg2NHZmMOZd3qlvOtjim+euPumCyTW6alN9rafPaNI+dunBLDKi8xk/L7zdv3bznL5P3NQ8MHHK075nnroeH9FdvObe8YGDks28jt1vLdea3aca5Flss/Z5m8hx4+5yy9xueu3h66d//te9Ib7JjngfM3zjjHmvwuPeCJPc+rd5xrkVu/J78uX7t7VY4rt8j3n3v378760hs/+Rh89985TZu6v00l15WcV2v92bQk2RwEAhDwJwFlxbe8WLlxPxd+91/4aSPaCA34QwPJNM/beocPzkYX0msspi/RPB85f/20LBsauztsbzn7htya/aSX9Cw768hz1lP1hIuxz331RPO9+w/uy/4f9y/xOWPHPB+7dPPcrsHRfnnWWraVZ4rlu/Pac3xsvHf7/oMHD5xlnUdH++R5a4eJDH5mbDkz/uy1Y55lX2KSp3rJb4nmWfYjBlqecU58HTh17bizbuLyxM9OD7hTFt79cf7Sjt5sx4KKjfu1Gdvqz2yeWkEAAmkjoJT6d8q0x0L1h3kui6mrmLoKDaCBNGhgvuZZbjfefXzsiPR+dgyM9K3ZNbRrpi/pCb1y7c7o/pPXjkkPbcW2czukA1WM4JnhW5fEGIiBlsHGEgfbSjQMcnu1bHNx5M4VGShM9iPPUMstzheu3h7vWZbPMiq19EqP3+a9Z6h73Z6hbud2btlWvj96dV/ZnazbtuvbLrZKPZ2X1FHK75hnGfBL/lAw1csxxIn1dQZgk99m+08GYkvcF5+9abxoN2+3m+S42oqNRiKRX0pbgs2BIAAB/xLQVqy0qOzVwwQHbwcH2o/2QwPe0MB8zbPcCj1bEzfV+jKwlhhm5zfHPDu3Q99/8Pb9qaancp4DltuhZYTtDXsv73H2MZ935xZnp+dZBv0S4yu9ybJfueVcvjsvmZJLlt+59+COsyz+xrlt8geFxHLsPDraJ+eG9EDLHwQ277+8T8o91Uum+JKpsGSaK+d8kt799iMjvc7r/NU7l2X/0uPdeXT0sLN88rvUJ+fVH+zH2R/v3jhPaSf/tJPkuJLr+jeTp2YQgEBaCUQikX+uTWssu3bfu6YVIXj4J3jQlrQlGnCHBuZrnsX0yS3Le0+MHZ3qJQbRMY9T/S7Luo+PDch8xM568u6YZ9GJMz2VGM3JunFGlpbbquU3Ma5yG7hjemVfMliXLJNeZ5niSUzm414yv7T0Ysv+TgzdvCD7kFG85XvT7qFd8l1GET8zfOui8zr70Phfu3XvRmIZxSSv3zPUPXDx5hnZTsyzmGH5Y4B8n8k/eYZbbjlfu+fyrrW7h3YnvpzntuWPB4nLp/vs9KgnlpHP7jgXaQf/t4PkttqyR03T/Km0JtccDAIQ8DcBZZrfK4nXDxJI/B9IaGPaGA1kVgPzNc+J7SfP1Q5fvzvWe+b6o9GznfmQZVCuxHUnf97WM3xQjKQzyFeied5z/Pr4wGGJy2R7eZ5YnhWW7cSgJu5zz/Gxo44xrU+Yh3kmzzwnDhgmt3TLfqQHXPbvmGdZdvf+g3vOS26/lmWTzbNTJhlwTH4X8yy3usuo3meHbw85r5t3HsigZuMjfzvLnHeZ8kqedZbf5/uv48hor1Mm3jN77sE/ePwlt5Uc199ZPLWDAATSTiAUCv2wsuzzMnk8wSV4wYU2p83RQPo0kEzzLANlibmTXlinDR3zfPfeg3uxN86+OfllbJwYQEummBIj2thxsV32kWiUpTdZlsmtyYlzFde2TsyVLIZ42WvH1zvHlHVkoK1Eo7mjd/iQ/C49vmJ0nUG9Et9lNGzZRqaScvZ14/b9G7JMbk+XuZWlh1zq19I3clC+Oy/5XXq/ZXotZ1AwZx/ynmieE5c7n52e98GLN886yxLfpX6yjzcfvg6evnbMqZ8MYuYsf9K7tfnsm4n75XP6zjVYB5u15LSS20qOm/bEmgNCAAL+J2Ca5pcNu+Lc4sZBBg1Kw6BBBPVgB3XaP7jtH6rt2aSs+GN7hWeqD2eALhlAzNnGMc+O0Zvi/YFM4yTry3PPYkZlnUTzLL85JnbTvit7nH07PdIyoJizTN6nGm1b9inm07ldWgY4m/y6c+/BbVnPMc8y+JgYdhmkS5ZNUfZpF8lAZ4llSjTPcuu4GPDElzO3tewwcbnzWcy1s78Vzac2Oreyy/qv7xzaKb3+j3sVN5/e5GzPe3DPd9o+U20/2CQ5reS2/s/gqSEEIJAxAtqMdRWs2rKXi32mLvYcF+2hAb9rIFnmOe/7J9c5xrTl8NVH8wknmmcxuZNfMq/y0odzIQvr6cyz3LosRlEG6nLaZOTm3WuyTAYJc5ZJD60M2vXgwdv3ZTop+V2elZZ36dmWd/knt4dPfjm3gDvmWZ57lnXFuEvvt4wK/nDO6PF9yLPUskxechv2+MKHg4ZNNquJ5lnmmnbWnen7jt6R8WnAitee3CQjc890O2c9GXzMYcQ71zU0kF4NSC6rrXhnxhJqDgwBCASDQDQa/Q8ynD9TV6X3Ik9QhTcaCI4GkmWe5Zljx6jdvvvgjjMtkmOen/TMs6O56cyzTDUl+5eBsWTwrIpt57bLdzHsMn+ys73cni3LD5+5dtIZNEyejd60//Jeuc1b1pd9dAyMHJ78kt5u2dYxz3WtF9rkuzz37OxfbjN3en2lt1h6mMW8O8ZbnvmWW7id9Z13xzxLr3hr/0ivfBejLy9nvms5lvwTgy4Dezm/y7v0gsugZY55l+PJrduJdZBbxmV7+S1xuXyWabqcsvAenPObts58W0sOK9OwSk4bjOydWkIAAhkloEzbKi57ZXxqD4JA5oMAbUAboAF/aSAZ5lmMnhjmCes38f+l0TtX5TbsZJlnMcwygNauwbEj8lne5UgyGnaiJsUoyq3W8txxonl21nF6xxPLOvmzY56dEbIHzt8442wv71IvZ2CzxG2PX7p5Toxu4rrOZylX4rrOvNViah3jve/k2FGnN13q6tzOLvsQg+6UXQx02baz2519O+/y3LgcQ0bndpbx7q/zlfb0XnuGy17pMyzbzmgyzcEhAIHgECguLv5xbdnDOdW735UoEES8F0RoM9oMDbhLA/M1z9Kr64xILSNGN7ZfbJeeXTFxYmIvjd4Zv8X49t0Ht+Nbz26TAaukt1YGDpPvcju09KjKCNSijcSe57qOi20yj/NUL6f398LInSuJv6/ZfXmnTJ0l+5rOPN+8c//W5IHL5LtMZyXlFvMs5luedZbvL3Vc6nB0K+UXIyxTVclvif/EyEtZZFvpKXa2kfdEsy2Dmcl6Uk65vVz2cWHkzuWHPeo7nBHBxUi39A4fkgHQ5DlyWe/y2J0R6dle0Xxy4+SX01M+cuPutcm/Od8Ty8Tnd7YRPOCRbA1I7io5rNb6I8HJ3KkpBCCQcQJKmf8zGqt8x1/+k32BY38ETTSABoKogfmaZxnAyzGQr3Rc6BSGlS3ndozdvHfdWT6Td7mtWrZNNM/O6Ncz2d5ZR+aNdtpxOvM8cvPemKxT8PqJDTJCtjyHLes6PcBrd1/eJc8Iyz4vj9292jEw0ie/37rz4JZzHHmXPwjIs9jym/yhIPE3McByW/crD423MxWVmGi5Pdw5lmwjPdyJPdYPbwN/1JOfcJt5n8yrLWVOPNZsPle3XGAWCwbhfMcfdpzzhffkx0DJXbXW38x4Ik0BIACBYBEIhULv1Vbs4PLKbbu5uCf/4g5TmKKB4GpgvuZZ5lAW8yYmMlFH0iP96u6hrv0nrw0eu3jz3Lmrdy6du3r7sozIfWn0zhUZ9Epe0jMt3+VWaNk+0TzL9q39Iz2zecl8yE45nmSeZVCvycbzyrU7ozL4mUxFJb+t3XN518WRid7zt99+W3rSr3YdHemf6C3/gW5kcDEZRVuMrfNcskyJJculPNKL3nl09LCMlH391sT0VzKStvyhwSlv4nvh6yfGe5tlii/pAXf+MCHrbOsdPihTWs3lZWw8vTXxOHz+QRvCAhbJ1IDkrJK7Sg4brKyd2kIAAq4gEIlEPq7M2Eio8ci6ZF7c2BfBEg2ggSBrYL7mWdjJgFfSI5oMjtkvH2uWXmi5BXm++xODu3b30Dv+6ComtqrlwiODLc8JOy95djvxmNIDLLdfy+/r9w51y0jXib8/7rOY5tKt734uWbaR265nWj8x29UtFxjsi95ieos9pAHJVSVnNQzj112RRFMICEAgmASUGasOl7/W+7iEhd8wQmgADaCBmWsgu653Y7LmeYb7zLnDClZowL8akFxVctZgZuvUGgIQcA2BoqKin2TwMP8GGxIJ2hYNpF8DmOf0M0fnMEcD/tWAM0iY5KyuSaApCAQgEFwCSplfj9oV5xY3DnILk4duYSJR8G+iQNt6u20xz95uP84/2g8NuEkDg02So0quGtxMnZpDAAKuI6CtWEdB5cZ9BAw3BQzKgh7RgBc1gHlGt17ULWVGt27UgOSmkqO6LnGmQBCAQLAJaK1/UZn2WFZDz4wHb3HjRZYyEfzRABrItAYwz2gw0xrk+GjQDxqQnFRyU8lRg52lU3sIQMCVBJRp55bE6wf9cMGlDiQOaAANZEoDmGe0lyntcVy05ycNSE4quakrk2YKBQEIQCASiXxAW/aJ/NUtnX66+FIXkgk0gAbSqQHMM3pLp944FnrzowYkF1WmfVJyUzJ0CEAAAq4loJT6PWXFh5c29Df78WJMnUgy0AAaSLUGMM9oLNUaY/9ozM8akBxUclHJSV2bMFMwCEAAAg4Bbdp1zP1MYPZzYKZu6DuVGsA8o69U6ot9oy+/a2B8Tmdt1zt5Ke8QgAAEXE0gHA7/hDatK7lVO1v8foGmfiQhaAANJFsDmGc0lWxNsT80FRQNSO4pOahhGB91dbJM4SAAAQgkElBKfVFZZUOL67l9OygBi3qSnKGB5GgA85wcjugRjmggYBqo729Wdtkl0zS/lJiT8hkCEICAJwhoM/Z6UfnrvQSvgAWvRuqL5tHAfDSAeUY/89EP26KfoGpgRfmaHmXF13giSaaQEIAABCYTME3zp7RpXc2p2b09qBdy6k0SgwbQwGw1gHlGM7PVDOujmaBrQHJNyTkl95ycj/IdAhCAgGcIaK3/wrDLLi5pGFgb9As79Se5QQNoYCYawDyjk5nohHXQCRqY0IDkmJJrSs7pmQSZgkIAAhCYjoC27I2FFWsPcZEn0KMBNIAGnqwBzPOTGaEjGKEBNOBoQHJMyTWny0NZDgEIQMBTBIqLi39GmdZITk33NudCxztBDw2gATQwtQZSYZ5zY50bc0t3bnwy88GmfLNl8+LGwaYnrZtbvntDduXe9U9aj9+nbme4wAUNzF8DkltKjhmNRj/mqeSYwkIAAhB4HAGtrb8y7IpzM0nICCbzDyYwhCEa8K4Gltb1bjSs+O35tuHSqsPNL339H/t3f+o37uz75K++La+dv/vJm6v/Ln//5H3nlu3asPGP//ycs+7u3/nN201/9lcnQrV973rkpvwfC/e0ffYzo/s++asP9v7Wrz5o/dznRqJZ1W2T98l372qQtqPtvKGBwSbJLSXHfFwOym8QgAAEPEnAMGObCsvX9HjjgkzgpJ3QABrIjAaSZZ7rv/Hc4Yem+cG2P/ijy22f/fSYY6LFADvtKz3IrRNm+O3O3/vUja1/9MWL3Z/6+D1ZVwy1s568i/EeN82f/LX7b/7Bfxtytuv+5MfvleQ0vJW4Lp8zox+4wz0oGpCcUnJLTybFFBoCEIDAkwiMj75t2cMygX1QLuzUkyQGDaCB2WogGeY5t7RzY/enfv2uGGC9KN7plGHNl79xXJa9+Yd/fMlZVvv0oh5ZtuO/fP5qdtWhZllekvdSy95P/tp9WV5UtGZ8xgTpyZYeaVkWfyaye2L7wSYx2LJsstF29s875wAaQAPJ1oDkktqyhxld+0nZN79DAAKeJmAYxh8bdunlUOORdcm+kLI/gjMaQAN+0EAyzPOKZd/fIYZWeoQTH5cp+6cV3bJ8++//1ysOq7bPTPRIqyUV7c4yeV//J39xRtZ95av/MCDfS78THt922x/80aNtZfmL4fVvynpitqUXe2Ifg01Lxm/5nnh2Wp63ljItbjzyjmep5XZxMepZj7ZDwxP84AAHNDCdBiSHNKzSy1rrL3g6KabwEIAABGZCQJlWdbjs5f7pLoosJ2CiATQQZA0kwzyLcd39qd8Y73k2vxd72PM82LThC18+K0a37psLe4VxXqx9k3yX27SlZzmRe8X/V7hXfpPbuGX5mi9/c7zXuv6b3x3fNnHdzk9/6oasW5zXOH5nkdPDXfv093rk9m651Vt+3/k7n7htP2vsEjMtt5I7y+X9pa99+0jiPvnMdQANoIGpNCA5pKHtmpnknKwDAQhAwPMECgoKPqRN+9yy1W0dU10UWUawRANoIMgaSIZ5Fn5iXMWwSo+wGNM3/nDcxL7d/unfvTYxovbxphUFr2+XdWQAsMnMI1nVbfJby+c+f1V+c27Pjj1r7Jq8rrNve6HZJb/JYGOy7fi+P/071+W7GGf5LoOSybPS8t70Z984IeVx1o1kVbdO3jffuR6gATTgaEByR8khJZf0fEJMBSAAAQjMlIDW+reVGRsJ1R9+eIsfgcEJDLyjBTQQbA0kyzyLjmqfXnzIMabyLqNty63Sjsb0orIOWb7t9//osrPMeZdnneW3rt/95E1ZJrd6y/fo0sp33N4tvznGuuIf8vfJd8c8y23jzvGkZ9sx0LKfHwwwNti0+b//6XlZ9vJX/9f4LeJOGXgP9rlA+9P+iRqQnFFyR8khZ5pvsh4EIAAB3xBQph0uKa07lnhh5DOBEg2ggaBrIFnm2X5e7dz5O791S0ypMwWVfN76h1+45DybbC40u2TZVOa5MLxum/zW9Xu/PW6eW/7L56/K96nM84Yv/I/x28Er/mHZO8zzpv++4Hxie274k6+MP0ctz1knLq/6+5wDsu91X/rq6cTlfOZ6gAbQgKMByRkld/RNIkxFIAABCMyGQCgUer+2Yn0FlW88HLWVAOEECN7RAhoIrgakd2W+8zwXFazZLrdryzzMcsu29PpGsupaWz/7WZmf+W1n0C+5TVq+izGerDlZX37b8fnPD8tvMkK3fBfDPXldMeTjvz0c2dvpea7+m9DBxHXr/vq7vbLea//jW+/4w2n8n0p2y/JNX/jy2cT1+Rzc84C2p+0TNSC5ojbtw5I7zibXZF0IQAACviIQiUR+SZv2aHbN3jcSL5J8JmiiATQQVA0kwzy/+pW/OypmdPN/+9KFRI5Ob7IM0CWDhRWUbHxD1pMe6sT15LNjaJ0pqKRXWNZd/Xc5+yev2/7Zz4zPIS3PUMtvjnmWeaET15WBymQfzgjezm+lz0Z2yXLMM+e9owne0YKjAckRJVc0DOPf+yoJpjIQgAAE5kJAmea3DLv8wpKGgbXOhZJ3giYaQANB1UAyzLPzDHL9Xz93eDJH51Zued5Z5nV25oN2jK+zfvOCvzophrb+GxP7kH3J942TbsVebry5RZbL6N6hqoPj0xBinjl/HR3xjhbmowHJDSVHlFxxLjkm20AAAhDwJQFt2WvC5a++K8mbzwWXbQnYaAANeFEDyTDP3//q34/3PLd95nevhcbnW57QgloyMUCYmF0xvcLHMboTPcwT8zIXhte/KaZabv3Os1o3yXrL1fYtchv4nk/+2n2Zm9lh27zgr8dNduKt2M4+6XnmHHR0wjtamIsGJDeUHNGXyS+VggAEIDBXAsXFxT8uUw/kr255OB8pQWYuQYZt0A0a8L4GkmGex83vJz9+72GP8B255VqmkxLzK8tk4C5HK4WFzduc3mcZUVt6nHf+zifGBxqT27+d9eTd6Y2WAcjW/ulfnnKeg5b1X4xs2eqsi3n2vg6dtuSdtsyUBiQnlNxQcsS55pdsBwEIQMC3BAzD+E1txUazGnrGezkydbHmuCQKaAANZFIDyTDPUv5oVnWbzN8sZtl5ya3VL339H/vldu3EOkpPcuJ8y2KOZb3EdSY+H2la8+VvHN/z2xPGXJ6dlsHGXizZ+I5xK9Z8+ZvH5ZjO1FXOfpy5p1/+y28fcZbJu/2sMf7M84Yv/MUjU5/4O585J9FAsDQguaAy7RGl1Cd8m/hSMQhAAALzJaBMe2k0VnVqcePErYMEy2AFS9qb9kYDx5uSZZ4dljIwWHHeKy3L9I7NixuPNDnLp3rPN1s2S6/1k67Bciu4PCPtTHk11b5YxvmMBtDA3DQw2BS1V582tLVkvnkl20MAAhDwNYFQKPReZdltRRVr3zG9ydwuvgQtuKEBNOA9DSTbPKMB72mANqPNgqwByQElF5Sc0NdJL5WDAAQgkAwC0Wj0Y9q0h/KqO94KcvCg7iRPaCCYGsA8B7PdOd9pdzRwvElyP23ZlyUXTEZOyT4gAAEIBIKAYRifU2ZsJLuudyPBhIQCDaCBIGkA84zeg6R36oreHQ1Izie5n+SAgUh2qSQEIACBZBJQpp0dja0+/aRn75yLLu8EYDSABvygAcwzOvaDjqkDOp6dBgabJOeT3C+ZuST7ggAEIBAkAk+Zlr19RfmantldgAlY8EIDaMC7GsA8e7ftOO9oOzQwNw1IrqfM2Daecw5Smk9dIQCBpBMwDOOjyrLPM//z3IIRQRxuaMB7GsA8e6/NOM9oMzQwdw1Ijie5XlFR0U8mPZFkhxCAAASCRsAwjF/Xlj2aXbd/C8Fp7sEJdrBDA97QAObZG+3E+UQ7oYH5a0ByO8nxJNcLWn5LfSEAAQikjICyrG9H7fLzi+v7mwlW8w9WMIQhGnCvBjDP7m0bzhvaBg0kUQP1/c2S20mOl7IEkh1DAAIQCCoBbcVeDZe90kfgSmLgamRf6AkNuE0DmGc06TZNUh40mQoNSE4nuV1Q81rqDQEIQCClBAoKCj6kLXuwYNXW7lRcxNknyQEaQANu0ICYZ23Fb7uhLJSBcwINoIFUaEByufGcrqDgQylNHtk5BCAAgSATUEr9gjKtkdyqzpZUXMzZJ0kCGkADmdYA5hkNZlqDHB8NplIDksNp0766cuXKfxvknJa6QwACEEgLAaXU7yszNpLV0LMplRd39k3ygAbQQCY0gHlGd5nQHcdEd+nQgORu2opd1Vr/QVqSRg4CAQhAAALveY/W9gtRu+IcA4gR7NMR7DkGOkunBjDP6C2deuNY6C1tGhgfIKzinORw5LIQgAAEIJBmAtqMvV5S+tKRtF30GVyrCdYkWWgg9RrAPKeeMTqGMRpIvwaKS18eYICwNCfLHA4CEICAQyAUCv2otmJ9Bas27iUIpj8IwhzmaCA1GsA8p4YreoUrGsicBiRXk5xNcjcnj+MdAhCAAATSTCAajf68tuzhvKr2VoJi5oIi7GGPBpKnAcxz8liiS1iigcxrQHI0ydUkZ0tzmsjhIAABCEBgMgHDMD6jmt8g5QAAIABJREFUTHsku/bAZoJk5oMkbUAboIH5aQDzPD9+6A9+aMA9GpDcTHI0ydUm5298hwAEIACBDBEwTftvDKtsKNTQt56g6Z6gSVvQFmhg9hqYMM+xO7CbPTuYwQwNuEcDkpMpu+ySsqy/zVB6yGEhAAEIQGA6AqYVU5FY1aklDQNrCZ7uCZ60BW2BBmanAczz7HihL3ihATdqYLBJcjLJzabL21gOAQhAAAIZJLBgwYL3KW2/ES57uZ9A6sZASpnQJRqYiQYwz+hkJjphHXTiZg1ILqZMe4vkZhlMDTk0BCAAAQg8jkBBQcGHlBk78mLlhn1uDiqUjaQHDaCB6TSAeUYb02mD5WjDCxqQHExyMcnJHpez8RsEIAABCLiAgGEYP6ct+/Ky1W0dXggylJFkCA2ggUQNYJ7RQ6Ie+IwevKQByb0kB5NczAUpIUWAAAQgAIGZENBa/4a27NGcmu5tXgo6lJUkCQ2gAcwzGuA6gAa8qAHJuST3khxsJrka60AAAhCAgIsIKKX+XFnxK0vrejd6MQhRZpInNBBMDWCeg9nunO+0u5c1ILmW5FySe7koFaQoEIAABCAwGwKGtpZE7fLzocYj67wclCg7SRUaCI4GMM/BaWvOa9raDxqQHMuwKy4o01w8mxyNdSEAAQhAwIUElGmXReLVJ5nCiiTFD0kKdfC/jmVuVG0xzzNa97/WaWPvt7HkVpFY9SmlrVIXpoAUCQIQgAAEZktApknQZmxDcWnjAIHa+4GaNqQN/a4BzDMa97vGqZ9/NF5S2nhUm9YGpqSabXbK+hCAAARcTCAcDv+INu29heVregja/gnatCVt6UcNYJ7RtR91TZ38p+sV5Wt6tBXbIzmWi1NAigYBCEAAAnMhYBjGR7Vpnyyo3LyHIO6/IE6b0qZ+0QDmGS37RcvUw79allxKcirJreaSk7ENBCAAAQh4gEA0Gv15bVpX8le3dBLU/RvUaVva1ssawDyjXy/rl7L7X7+SQ0kuJTmVB1I/iggBCEAAAvMhYBjGr2jTHsmt2tlCkPd/kKeNaWOvaQDzjGa9plnKGxzNSu4kOZTkUvPJxdgWAhCAAAQ8RMA0zc9rKzaaU9O9jaAfnKBPW9PWXtAA5hmdekGnlDF4OpWcSXInyaE8lPJRVAhAAAIQSAYBrfUCZcZGsmv3bSUJCF4SQJvT5m7VAOYZbbpVm5QruNqUXElZ8auGYfxZMnIw9gEBCEAAAh4koLX9tLLiV0INPZtICoKbFND2tL2bNIB5Ro9u0iNlQY+SI0muJDmTB1M9igwBCEAAAskkoK3YQsMuuxiqP7yBJIEkAQ2ggUxrAPOMBjOtQY6PBh0NSG4kOZLkSsnMvdgXBCAAAQh4mIAy7XA0tupsqPHIOidg8E7ygAbQQCY0gHlGd5nQHcdEd5M1IDlR1K48p0y7yMMpHkWHAAQgAIFUENCmXRmJVZ1aXN/fPDmA8J2kAg2ggXRpAPOM1tKlNY6D1qbVQH1/s+REyrQqUpFzsU8IQAACEPA+gadMK/ZacbxhYHHjYNO0AaWRYAsbNIAGUqcBzHPq2KJb2KKBmWhgsGllad0xbdmvvuc973nK++kdNYAABCAAgZQQCIVC7zcte0tJaeNRDPRMAizrkIihgWRrAPOMppKtKfaHpmaugcGmktKGQWXamyUnSkmyxU4hAAEIQMA/BCKRyAeUGdtRXNpIDzS97NyBgAbSrgHMM0Zn5kYHVrBKpgbEODceNS17u+RC/snsqAkEIAABCKSUQDgc/hFl2m3FZS8doQc6mYGZfZHooYEnaQDzjEaepBF+RyPJ18BgU3HpywPKjLVKDpTSJIudQwACEICA/wiEQqEfVWZsV3HZK33JD1IEfpiiATQwtQaWNvStV6Z9Fz5T84ELXNBA8jUQLnu5X5uxzsLCwg/6L6OjRhCAAAQgkBYCSqn/TZv23nD5q4cJ1skP1jCFKRp4twYwz+9mgk5gggZSp4Fw2ff7TCu2u6Cg4ENpSa44CAQgAAEI+JfA8uXLP6xN+0BJrPYswTt1wRu2sEUDExrAPHMucC6ggXRpoKjstcPKjO2TXMe/mRw1gwAEIACBtBKIRCI/pk3zxsp43Zl0BTSOQ/KEBoKpAcxzMNud8512T7cGiksbj2vLPqS1/khakyoOBgEIQAAC/icgUzYoy+4Nl7/em+4Ax/FIqtBAcDSAeQ5OW3Ne09aZ0oDcTSedAkxH5f/8lRpCAAIQyBgB+eustuyDPANNwpOphIfj+l97mGf/tzHnMW2cSQ1IDiOPo8lddRlLqDgwBCAAAQgEg8DELdz2XhmZkmmsSIAymQBxbH/qD/Psz3blfKVdM6+BwSaZQURbsT084xyMnJVaQgACEHAFARmFW5n2TuaBJhnKfDJEG/itDTDPaNpvmqY+btC0zOP80hHJXRhV2xWpJIWAAAQgECwCE/NA223FpY0D9EC7ITGgDCSo/tBAqPHIOuZ59kdbck7Sju7QwGBTcbxxQJmxduZxDlauSm0hAAEIuIpAOBz+EWXGdpSUNh7FQJMkuSNJoh283g6YZzTsdQ1TfjdpeLBJchRt2S2Ss7gqiaIwEIAABCAQPAKRSOQDhhnbWhxvGFhc399M0uCmpIGyoEfvaQDz7L024zyjzVypgfr+5pLS+qNK229IrhK8DI0aQwACEICAKwnIVA+mFXstEqs6JYmvK4NoI8kN7YIGvKABzDM69YJOKaO7dSrXEclJJDdhOipXpo4UCgIQgEDgCTylTbsyGlt1NlR/eAOJhbsTC9qH9nGrBjDPaNOt2qRc3tCm5CCSi0hO8p73vOepwGdnAIAABCAAAfcSUKYdNuyyi6GGnk0kGt5INGgn2slNGsA8o0c36ZGyeEuPkntIDiK5iHszJUoGAQhAAAIQSCCgrdhCZcWvZNfu20ri4a3Eg/aivTKtAcwzGsy0Bjm+NzUoOYfkHpKDJKQkfIQABCAAAQi4n4DW9tPKjI3k1HRvIxHxZiJCu9FumdAA5hndZUJ3HNPbupNcQ1nxq5J7uD9DooQQgAAEIACBKQhorRdoKzaaW7WzhcTE24kJ7Uf7pUsDmGe0li6tcRx/aE1yDMk1DMP4sylSERZBAAIQgAAEvEPANM3Pa9MeyV/d0kmi4o9EhXakHVOpAcwz+kqlvti3v/S1bPWOLmVaI5JreCczoqQQgAAEIACBxxAwDONXtGldKajcvIfExV+JC+1JeyZbA5hnNJVsTbE/f2pKcgpt2Zclx3hMCsJPEIAABCAAAe8RiEajP69N+2Rh+ZoeEhl/JjK0K+2aDA1gntFRMnTEPvytI8klJKeQ3MJ7GRElhgAEIAABCMyAgGEYH9Wmvbe4tHFgScPAWpIbfyc3tC/tOxcNYJ7RzVx0wzbB0I3kDpJDSC4hOcUMUg9WgQAEIAABCHiXQDgc/hFtxjZE4tUnJUkm4QlGwkM7084z1QDmGa3MVCusFyytyLVBcgfJISSX8G4mRMkhAAEIQAACsyCwYMGC9ynTLova5eeX1vVuJAEKVgJEe9Pej9MA5hl9PE4f/BZMfUiuIDmD5A6SQ8wi5WBVCEAAAhCAgD8IGNpaoqz4FeaCDmYyRBJMu0+lAcwzuphKFywLri4ezuF8RXIGf2Q/1AICEIAABCAwRwJKqT/Xlj26bHVbB8lRcJMj2p62dzQg5lmb9j3nO+9oAw0EVwOSG0iOILnCHNMMNoMABCAAAQj4i4DW+jdkuokXKzfsI0kKbpJE29P2ogHMMzrgWoAGRAOSE0huIDmCv7IeagMBCEAAAhCYJwHDMH5OmbEj4bKX+xmJm8SJ5Dm4GsA8B7ftOe9p+wkNDDZJLiA5geQG80wv2BwCEIAABCDgTwIFBQUfUtp+IxKrOhVq6FtPIkUihQaCpwHMc/DanPOcNnc0ILFfcgDJBSQn8Ge2Q60gAAEIQAACSSIgo2iaVkwZVtlQdu2BzU5A5Z3kCg0EQwOY52C0M+cz7TxZAxLzlV12SZu2ZkTtJCVV7AYCEIAABIJBwDTtv1GmPZJX1d46OcDynaQLDfhXA5hn/7Yt5y1tO50GJNZLzFeW9bfByHKoJQQgAAEIQCDJBAzD+Iy27OGCVRv3ThdwWU4yhgb8pQHMs7/ak/OT9nySBiTGS6yXmJ/kNILdQQACEIAABIJFIBqN/ry2Yn0lpS8dWVzf3/ykIMzvJGpowNsawDx7u/04/2i/GWugvr9ZYrvEeIn1wcpuqC0EIAABCEAgRQRCodCPajP2etSuPJfV0LNpxoG5kSQGVmjAaxpY2tDfzDzP6NZruqW8s9OsxPKoXXFOYrvE+BSlD+wWAhCAAAQgEFwCWtsvKDM2klvV2UKiMrtEBV7w8ooGMM9o1StapZxz06rEcG3FrkpMD25GQ80hAAEIQAACaSCglPp9ZVojBau2dpO4zC1xgRvc3KwBzDP6dLM+Kdv89CmxW5v2Va31H6QhZeAQEIAABCAAAQgopX5BW/ZguOyVPp6Dnl8iQyIIP7dpAPOMJt2mScqTBE3W9zdLzJbYvXLlyn9LJgMBCEAAAhCAQBoJFBQUfEhbsVejdvn57Lr9W0hukpDc8Ix4EzrKvI4wz5lvA84D2iCZGpAYLbFaYrbE7jSmChwKAhCAAAQgAIFEAsqyvq0tezR/dUtnMoM9+yJ5RAOZ0QDmOTPc0TvcU6EBic0SoyVWJ8ZuPkMAAhCAAAQgkCEChmH8urLs8yvK1/Qsbhyk95AeZDTgYQ1gnjFxqTBx7DPduhpskpgssVlidIbSAw4LAQhAAAIQgMBUBAzD+Khp2dujsdWns+t6N5IopTtR4nhoLjkawDwnhyN6hGOmNCAxWGKxMmPbioqKfnKqmM0yCEAAAhCAAAQyT+ApZdrZMp1VXnXHW5lKHDguSSsamLsGxs2zZd+D4dwZwg52mdKAxF6JwRKLQ6HQezOfFlACCEAAAhCAAAQeS8AwjM9p0x4qqlh7kNu4SSIzlURy3LlpD/M8N27oDW6Z1cBgU1HlugPasi9LDH5skOZHCEAAAhCAAATcRSAajX5MWXZbNFZ1KquhZ1NmkwqSOvijgZlqAPOMVmaqFdZzh1YkxkqsVWasXWKvu7IBSgMBCEAAAhCAwIwIyC1jyrSXaivGaNweHkCKBNkdCXK62gHzHKz2TpeuOE5qdCWjaSvTltu0l3Kb9oxSE1aCAAQgAAEIuJuAYRi/qU37XLj81cNLGgbWkkSlJomCK1yToQHMMzpKho7YR2p1JLFUYqrEVqXUJ9ydBVA6CEAAAhCAAARmRaC4uPjHtWWvMezyC9k1e98gsUptYgVf+M5VA5hntDNX7bBderQjMdSwy89LTJXYOqtgzMoQgAAEIAABCHiHgDLNb2nTHi2ofGM3iVZ6Ei04w3k2GsA8o5fZ6IV106sXiZ0SQ6Na/7/eifyUFAIQgAAEIACBOROIRCK/pK1YX0lp3bFQ/eENJF/pTb7gDe/HaQDzjD4epw9+y4w+JFZKzJTYaRjGv59zAGZDCEAAAhCAAAS8RyAUCr1fmXZY5qNctrqtg4QsMwkZ3OE+WQNL6/ubTeZ5bprMhe+cK5nSgMRIiZXasooldnov4lNiCEAAAhCAAASSQkBr/dvjg4mVvdwfajyyLlPJCcclMUYDExrAPHMucC64QwMSE8NlL/dLjJRYmZSgy04gAAEIQAACEPA2gYKCgg8p06o27NLLuVU7W0jc3JG40Q7BbAfMczDbnfPdXe0usdCwSi8b2q6RGOntKE/pIQABCEAAAhBIOgHDMP5YW/ZwYfmansWNg9w2ydzQaCADGsA8u8tEYWqD1h6DTRIDJRZqrb+Q9EDLDiEAAQhAAAIQ8A8B0zR/yjBjmwy74lxOTfc2EsegJY7UN9OaxzyjwUxrMKjHl5gXtSvPKtPeLLHQP5GdmkAAAhCAAAQgkFICWlt/pUxrpLBi7aElDQNrg5pMUW+MTLo1gHlGc+nWXNCPJzFOYp3EPIl9KQ2u7BwCEIAABCAAAX8SKC4u/hlt2RsNu+xiTs3u7UFPsKg/piYdGsA8o7N06IxjTOhMYpvEOIl1EvP8Gc2pFQQgAAEIQAACaSOgtf4LbdpXi8pf711c399M0kVyjwZSpwHMc+rYolvYPtJAfX+zxDSJbRLj0hZQORAEIAABCEAAAv4nIM9/aTP2urLKhhiRmwT0UQKagQG1fH/s+v5mbVr3fV9PtMOAfBnSgMQwZZddkpjGs83+z1+oIQQgAAEIQCBjBJRSX9SmdSVc/lrv0gZ6oTE4/CEh6RrAPGMqM2Qqk65ll9VjfN7m8td6JYaZpvmljAVSDgwBCEAAAhCAQHAIhMPhn9BmrE5ZpcP5q1s6/Z5wUT8Mclo1gHnGPLvMdKZV/ymqu8QqZcWHtWnXSQwLTsSmphCAAAQgAAEIuIKAUur3tGWfKInXD2Y19GzyQ4JFHTDKGdcA5hnznCIDmXFtZ6BeEpskRkmskpjliuBJISAAAQhAAAIQCCaBSCTyAWXaucq0xwoqN+5b3DhI4puBBDGISbFv64x55hrCNSQJGhhskpgksUlilMSqYEZpag0BCEAAAhCAgOsIaK1/UVuxjqhdcS6nmmmtfGvsSOqTkNQ/oXcf85x6xujY14wlBkkskpgkscl1AZMCQQACEIAABCAAASGglPl1bdnDMqCYDM6CiXyCUSKJ93USPyf9Y57RBNeFOWng0YBglj0ssYioDAEIQAACEIAABFxPoKio6CeVGatWZmxkeeW23XMyECSPc0oeYe2DP1ZgntE+179Za0BijcQciT0Sg1wfKCkgBCAAAQhAAAIQSCQQiUQ+rq3YwWis8gy3cvvA1JHQzzqhn8sfM5Y0DKxlnmfOl7loJ4jbjN+iHas8I7FGYk5iDOIzBCAAAQhAAAIQ8BSBUCj0XqXM/ym3cheXvdIXqj+8IYgJHnXGDM1UA5hntDJTrQR5PYklElMktkiMkVjjqeBIYSEAAQhAAAIQgMB0BIqLi39cmbalrdhowaotexmVG4MQ5MT/cXXHPHNuPE4f/DbYJDFEYonEFIkt08UdlkMAAhCAAAQgAAFPE4hGo/9Bm7Euw644l1fd8RaJIEYBDbxTA5jnd/JAH/BwNCAxQ2KHxBCJJZ4OhhQeAhCAAAQgAAEIzJSAaZpfVpZ9viReP5hdu2+rkxzxTqIcdA1gnjkHgn4OTK6/xAiJFRIzJHbMNM6wHgQgAAEIQAACEPANgVAo9MPKNL+nTWusqOzVwzwPjWmYnDQH8TvmmfMgiLqfqs4SEyQ2SIyQWCExwzcBkIpAAAIQgAAEIACBuRCIRCL/XFuxUmXaYy9Wbtwv5mGqRIplmIogaADzjM6DoPPH1VHOAYkFEhMkNkiMmEtsYRsIQAACEIAABCDgWwJKqX+nrPgWwyq9nL9q+87HJVf8hsHwqwYwz2jbr9qeSb3k2i8xQGKBxATfBjwqBgEIQAACEIAABJJBwDCMz2gr1heNrT7FoGIYiZkk3H5aB/OM5v2k55nWRa71cs2Xa7/W+rPJiCXsAwIQgAAEIAABCASCgMzZqbX+mjLt8yvjNcdzarq3zTQJYz3Mh5c1gHlGv17W72zLLtd2ucbLtV4p9XXmaw5EiKeSEIAABCAAAQikgkAoFHq/Uurb2rSulJTWH2VkbozFbJNzr62PeUbjXtPsXMo7PoJ2af1RubbLNV6u9amIIewTAhCAAAQgAAEIBI5AYWHhB7WOLdGmPVJc9kpfVkPPprkkbGyDMXG7BjDPaNTtGp1P+UINPZvkGq4te1Su6XJtD1xAo8IQgAAEIAABCEAgHQTC4fBPKNMOy9QlK8rX9DC9FUZjPom8G7fFPKNpN+pyvmWSa7Vcs7Vpj8k1XK7l6YgZHAMCEIAABCAAAQgEnkA0Gv2YNu24JGKYaMzGfBN7N22PeUbPbtLjfMuSaJpl2im5dgc+gAEAAhCAAAQgAAEIZIJASUnJv1amXSYmuqj89V56ojEe8032M7095hkNZ1qDyTi+XIvlmvywp7lMrtWZiBEcEwIQgAAEIAABCEBgEgGl1M+O90Rb9jVJ2JbW9W5MRgLIPjAy6dYA5hnNpVtzyTzeo55my74m12S5Nk+6XPMVAhCAAAQgAAEIQMANBMLh8L80LNvWln0tTE90UzKTYvaVHlMn5tk0rQfwTg9vOCeHs5hmuebKtVeZViwSifwrN8QEygABCEAAAhCAAAQg8AQC8lyd0jFTRnRdUfb9vuzaA5tJkpOTJMMxtRwxz6nli36Ty1eurXKNlWutMm1L/oD5hMszP0MAAhCAAAQgAAEIuJFASUnJTyvTLpLErjjeOJBT072N5Dm5yTM8k8sT85xcnugzNTyza/e8KdfUh6a5SCn1L9wYAygTBCAAAQhAAAIQgMAsCSxfvvzDhtYvaMu+vDJeczyvuuMtkurUJNVwnR9XzPP8+KG/1PKTa+fK0ppj2rSuyDVVrq2zvByzOgQgAAEIQAACEICAFwhEIpEPaK2fNq3YqWhs1en81S2dJNupTbbhOzu+mOfZ8UJf6eEl18qoXXlam/ZppdS35FrqhWs+ZYQABCAAAQhAAAIQmCeBUCj0Xq31Am3FDhl22fmCVVv2Lq3vbyYRT08iDufpOWOep2eDbtLLRq6Jcm2Ua6QyYz2GYfyZXDvnefllcwhAAAIQgAAEIAABrxIwTfPTyoxtUqY9tqJ8TU+ooWcTSXp6k3R4/4A35vkHLNBFZljINVCuhXJNlGujXCO9en2n3BCAAAQgAAEIQAACKSCglPoFbdpaplopKW0YyKndtYPkPTPJe5C5Y57RXKb0L9c8ufbJNVCuhXJNTMGlll1CAAIQgAAEIAABCPiFgAyAY5rmd5Rpn5Nn/JZVbd+1uHGQOZMbMTXpMTWDTczzjNbSozXhPNgk1zi51sk1T659DALml2hGPSAAAQhAAAIQgECaCCxYsOB9SqkvGmZ8p2GXXi6saD4UquWW7vQl9UE1UJhnNJZ67cu1TK5pyopfkWucXOvkmpemyyuHgQAEIAABCEAAAhDwK4FIJPKflBkrk9sZw/G6wfzqjjYS/NQn+MFkjHkOZrun53ySa5dcw+RaNn5N0/o/+vW6Tb0gAAEIQAACEIAABDJIoKCg4EOmaf6NtmL9yiq79GLlhgOh+sMbSPbTk/gHgzPmORjtnL5zRq5Rcq2Sa5Zcu+QaJteyDF5KOTQEIAABCEAAAhCAQJAIKKU+oaxYgzat6yWljUdyq3a2kPSnzxD4lzXm2b9tm97zQ65Jcm2Sa5Rcq+SaFaRrNHWFAAQgAAEIQAACEHAZAcMwPqq1flaZ9klllV0orNxwILuudyMGIL1GwT+8Mc/+acv0nwNy7ZFrkFyL5Jok1ya5RrnssklxIAABCEAAAhCAAASCTkAp9Ult2VXyPOHKWM2xZat3dMnUQ5iB9JsI7zLHPHu37TKjc7nGyLUmEq8bVNq+JtcguRYF/XpM/SEAAQhAAAIQgAAEPEAgFAr9qNb6a8qMdWkrNhouf+1wTk33NkxBZsyFt7hjnr3VXpnTtFxT5Noi1xi51iilvl5YWPhBD1wiKSIEIAABCEAAAhCAAATeTUBr/b9r085Tpn3RsP//9u4tNo6zigO4VChUQmq5PFDxBJQHJBCCB3iAIqgEQjyUh1ThIqVUhcpIQYBQi7hU4CFpfImdXXtnzjnfzHi9vscxocV1bk7dUpPWduqQS5PaXiexiJqgNlyStA0pCgj0H7vigTpOanu9u/N/iBQ53p3v+51zPvX0m5mvcDZ5yRiPvOK52Yuem83mmc3z4g05jpjCGoK1BGuKOleXy+Xu+P+Vhz+hAAUoQAEKUIACFKBAhQp4nneTqn5JLe4Vda/5UdeZxs6Ro7U7invZLCzeLKTPhs1z+mJ+7fzHGoG1AmsG1g6sIVhLsKZU6HLIYVOAAhSgAAUoQAEKUOD6BDzPu8XM7gks2q3mrrTE2+fqu0cP1fbP7mbjcO1Govp92DxXf4yXznGsBXVdo5NYG7BGYK3AmoG14/pWGf4WBShAAQpQgAIUoAAFqkwgl8vdqqr3q4ufUQsvZ/O/ma3vGpvgi8aWbjCqs8li81ydcV06n+df/DU2gTUAa4FY9KyZfQdrRJUte5wOBShAAQpQgAIUoAAFlicgIreLuB+Zi/6oLrycjXecwlt0uSO9dONRPQ0Xm+fqieXSeYvaRo2j1lHzqH2sAVgLlrea8NMUoAAFKEABClCAAhRIicB8Iy0bxcVjau4fLW3bTzd0jx7yBk7uSVNzkb65snmu9pijhvGYBmoatY0aF5GNbJhTsrhzmhSgAAUoQAEKUIACqycQBMH7ROS76uLf4z+2cZ5rY8fIkdrt08PV3mikb35snqsx5l7/zL6GzicPv/EMs1j0NGoatb16Kwe/mQIUoAAFKEABClCAAikWaGhouE1VNwQWDaq5y35YONvUvmeK50gvfYtsZTRlbJ4rI05L5xtqErWJGlUz7DA/bmb3ooZTvIRx6hSgAAUoQAEKUIACFCi9QE1Nzc3J8VcuDMSic+LiC5n8ztm6rgMH+Zz00s1NeTZpaJ7tP+U5tko1Lc24kzdkdx44iBpELaIm1YUBahS1WvoVglekAAUoQAEKUIACFKAABd5UwPf9jwaqPxGLnsPxNq1x7+mtnfuPb+o9+hSbsdI0UMt3ZvO8fMPSxRq1tbVr//OoteT5ZYufQw2iFt+0SPlDClCAAhSgAAUoQAEKUKC8BLLZ7LtF5Bvqwm6x8Ly4+O84Aid56Vj/zL5KalDSNVY2z+Ucbzy7jJd9oZZQU2rRebGoJ6k11feU1yrA0VCAAhSgAAUoQAEKUIACNyyAnTBV/YFY9ASev/TDwp8zhcen63omxnimdOl2KpduDNk8L21UunihNrb0TIyhVoKocG7h7dgjqCXuLt/wMsQPUIACFKAABShAAQowkzaeAAAF80lEQVRQoLIEPM97u4jcqc5tFouP4RZvP+o809SxawrNdO2O2d3l1MCkayxsntcy3sh91EBzYWgaNTHfLEfPo1ZU9fOoncqqdo6WAhSgAAUoQAEKUIACFFgxgaampneZ2VfUuQZx8WEz908/7HixuX1wpr5rbKJ2R3HvWjY06bo2m+dSxhu5jRxHriPn1dzrqAGxsB41gdpYsULjF1GAAhSgAAUoQAEKUIAC1SXged4tInJXoPprddGEmbsShIWzmfyjRZxVu6nv2JOlbHDSdS02z6sZb+Quchi5jJxGbiPHkevIeeR+dVUzZ0MBClCAAhSgAAUoQAEKlEwAx+yIyGfN7EF10S618GV14au5uGeuqWPPVH33+Dh3p1fqOVw2zyvVPCe7yt3j48hR5CpyFrkbWIzjwB5ETvMIqZItI7wQBShAAQpQgAIUoAAF0ing+/4HRGSdmDWLiyfV7HVx+ZczbQOzOB5rS8/EM97AyT0r1Qil6Xt4zvON/48I5BpyDrmHHEQuzudkPJnkqMg65Gw6q5WzpgAFKEABClCAAhSgAAXKRmD9+vVvE5FPqmpN4MJ2cfHx5PnRMH8+G28/1VTY+wJ2qHHUT5oa4bcyVzbP126e54+LGh9HTrW09Z+UMH9+4Vnl48g95KCZfQo5WTYFwoFQgAIUoAAFKEABClCAAhRYTADNSxAEH1PVDWJhK54tVRe+Ji6+0Br3ns60D840dowc2dx36A/cpf5fw8jmed4COYHcQI4gV5AzyB3kUODig8gpM7sXOcZGebEq5M8pQAEKUIACFKAABShAgYoVyGazH1TVr6m6nwcW7RSLZ7BzGLj4b37cM9fc/ruZxs6RI490Tx5IY1OdtuYZMUasEXPEHjmAXEh2ky2eQY4gV5Azvu9/qGITnwOnAAUoQAEKUIACFKAABSiwXAHP827K5XJ3iMjdZvYzcfGAWDyFc3bVRa/gGKHW/MBsU2H3NN6WnDTWVXoLeDU2z7jVGjFD7BBDxDI5GspFryycpTyNmCexF7kbuYCcWG5e8fMUoAAFKEABClCAAhSgAAVSIyAit/u+/zlVvc8sfERd9Ji4+ISae1VdeDkI28+1xP0nt+UfKzZ3DJ+o6xydTG4F75va/8uBuaG38tzxWn6m8prnuSGvb2o/zGHf2DF8ArFATBAbxAixClz0AmKXxFD1PhG5E7FNTSJzohSgAAUoQAEKUIACFKAABdZKIJPJvDeXy30mCIKvi8hD5iJRFw0nu9YuvKBmV8W1/dWPOs9gt7O5fXCmuWPfCeyAbukeH9/ce/jpTdunh8upyS6f5nluCDYwghXMYAdDWObCzjOwVbWr6sIL8+bRsFqoiAVigtggRmuVH7wuBShAAQpQgAIUoAAFKEABClyHgOd578AtwL7vf1FEvp3cFmyhv7B7PS4WnlYLL6rav3F7eODyL/lR159a2vpnM/mdxeb8YHFr+76pxo4njtV3jx7CG8Oxw7qp9+hTtavQdDcVdhXxZ2V3vueGcNs0xoyxYw6YC+aEuWGOmCvmjLnDABaJiYUXYSQuHk/MYKf6U1iKyF0i8pFcLvfO6wgFf4UCFKAABShAAQpQgAIUoAAFKl0Ab2tuaWl5v6p+IgiCL4vIt0Rko6r+QtVtE4061UW7xOJncfuxuehFdeFF7Gyb2b+S53YtuoSd2CDMvxSEhbPYmfWj7jm8JbqlbWA22zYwizOIs/mdxUzbb4uZ/KNF3N6c3G6eHyw2FwaLTYWhYmvU8xf8HU3tG/+O38Vn5j87/134zta47xSugWvhmrg2xiAWXVJzV+bHZlfV3CWMGWPHHJK5YE7qtmGOmKuZfRNzhwFup+YbrCs9qzl+ClCAAhSgAAUoQAEKUIACZSRQU1Nzc0NDw21oOFX1w2b2cRH5tKp+QVW/KiLrcFyXqt6vqg+IyPdU9ftm9kMR+TFucV7YzX1YVX+FPyLy8MLLsx7C7+B38ZmFzz6w8F0bzOweXAPXwjVxbYwBY8nlcrdibGVExaFQgAIUoMAqC/wXzV5krSK8AMAAAAAASUVORK5CYII=;" vertex="1" parent="1">
          <mxGeometry x="-182.07" y="3971" width="299.07" height="246" as="geometry" />
        </mxCell>
        <mxCell id="or-_LWsJeg-sRYdWCB0p-433" style="edgeStyle=elbowEdgeStyle;rounded=0;jumpStyle=arc;orthogonalLoop=1;jettySize=auto;html=1;fontSize=12;fontColor=#FF601C;startArrow=none;startFill=0;endArrow=classic;endFill=1;dashed=1;" edge="1" parent="1" source="or-_LWsJeg-sRYdWCB0p-431">
          <mxGeometry relative="1" as="geometry">
            <mxPoint x="316.66666666666674" y="4362.5" as="targetPoint" />
          </mxGeometry>
        </mxCell>
        <mxCell id="or-_LWsJeg-sRYdWCB0p-435" style="edgeStyle=elbowEdgeStyle;rounded=0;jumpStyle=arc;orthogonalLoop=1;jettySize=auto;html=1;fontSize=12;fontColor=#FF601C;startArrow=none;startFill=0;endArrow=classic;endFill=1;" edge="1" parent="1" source="or-_LWsJeg-sRYdWCB0p-431">
          <mxGeometry relative="1" as="geometry">
            <mxPoint x="180.9799999999998" y="4446.666666666667" as="targetPoint" />
          </mxGeometry>
        </mxCell>
        <mxCell id="or-_LWsJeg-sRYdWCB0p-431" value="新增地址&lt;br&gt;（工厂地址、办公地址、会议地址、其他地址）" style="rounded=0;whiteSpace=wrap;html=1;fontSize=12;strokeWidth=1;" vertex="1" parent="1">
          <mxGeometry x="112.59" y="4331" width="136.78" height="63" as="geometry" />
        </mxCell>
        <mxCell id="or-_LWsJeg-sRYdWCB0p-432" value="移动端实时定位速度比较慢，导致经常存在小二定位失败的问题， 所以为了解决此问题，采用 &lt;font color=&quot;#ff601c&quot;&gt;连续定位缓存、ip定位&lt;/font&gt;，提高定位成功率，因此&lt;font color=&quot;#ff1736&quot;&gt;定位也会存在误差&lt;/font&gt;" style="text;html=1;strokeColor=none;fillColor=none;align=center;verticalAlign=middle;whiteSpace=wrap;rounded=0;fontSize=12;" vertex="1" parent="1">
          <mxGeometry x="-196" y="4234" width="220" height="87" as="geometry" />
        </mxCell>
        <mxCell id="or-_LWsJeg-sRYdWCB0p-434" value="&lt;font color=&quot;#ff1736&quot;&gt;强制刷新定位&lt;/font&gt;" style="text;html=1;align=center;verticalAlign=middle;resizable=0;points=[];autosize=1;strokeColor=none;fillColor=none;fontSize=12;fontColor=#FF601C;" vertex="1" parent="1">
          <mxGeometry x="320.63" y="4353.5" width="82" height="18" as="geometry" />
        </mxCell>
        <mxCell id="or-_LWsJeg-sRYdWCB0p-452" style="edgeStyle=elbowEdgeStyle;rounded=0;jumpStyle=arc;orthogonalLoop=1;jettySize=auto;html=1;entryX=0.5;entryY=0;entryDx=0;entryDy=0;fontSize=12;fontColor=#000000;startArrow=none;startFill=0;endArrow=classic;endFill=1;" edge="1" parent="1" source="or-_LWsJeg-sRYdWCB0p-436" target="or-_LWsJeg-sRYdWCB0p-451">
          <mxGeometry relative="1" as="geometry" />
        </mxCell>
        <mxCell id="or-_LWsJeg-sRYdWCB0p-436" value="算法地址回流融合" style="rounded=0;whiteSpace=wrap;html=1;fontSize=12;strokeWidth=1;" vertex="1" parent="1">
          <mxGeometry x="113.84" y="4447" width="136.78" height="63" as="geometry" />
        </mxCell>
        <mxCell id="or-_LWsJeg-sRYdWCB0p-437" value="&lt;font color=&quot;#ff1736&quot;&gt;选择「是否见到工厂」&lt;/font&gt;" style="text;html=1;align=center;verticalAlign=middle;resizable=0;points=[];autosize=1;strokeColor=none;fillColor=none;fontSize=12;fontColor=#FF601C;" vertex="1" parent="1">
          <mxGeometry x="502.82" y="3950" width="130" height="18" as="geometry" />
        </mxCell>
        <mxCell id="or-_LWsJeg-sRYdWCB0p-446" value="公私海列表" style="rounded=0;whiteSpace=wrap;html=1;fontSize=12;strokeWidth=1;" vertex="1" parent="1">
          <mxGeometry x="-82.31" y="4634" width="120" height="60" as="geometry" />
        </mxCell>
        <mxCell id="or-_LWsJeg-sRYdWCB0p-447" value="客户详情页&lt;br&gt;地址信息管理" style="rounded=0;whiteSpace=wrap;html=1;fontSize=12;strokeWidth=1;" vertex="1" parent="1">
          <mxGeometry x="112.94" y="4634" width="120" height="60" as="geometry" />
        </mxCell>
        <mxCell id="or-_LWsJeg-sRYdWCB0p-448" value="客户地图地址" style="rounded=0;whiteSpace=wrap;html=1;fontSize=12;strokeWidth=1;" vertex="1" parent="1">
          <mxGeometry x="300.69" y="4634" width="120" height="60" as="geometry" />
        </mxCell>
        <mxCell id="or-_LWsJeg-sRYdWCB0p-453" style="edgeStyle=elbowEdgeStyle;rounded=0;jumpStyle=arc;orthogonalLoop=1;jettySize=auto;html=1;entryX=0.5;entryY=0;entryDx=0;entryDy=0;fontSize=12;fontColor=#000000;startArrow=none;startFill=0;endArrow=classic;endFill=1;" edge="1" parent="1" source="or-_LWsJeg-sRYdWCB0p-451" target="or-_LWsJeg-sRYdWCB0p-447">
          <mxGeometry relative="1" as="geometry" />
        </mxCell>
        <mxCell id="or-_LWsJeg-sRYdWCB0p-454" style="edgeStyle=elbowEdgeStyle;rounded=0;jumpStyle=arc;orthogonalLoop=1;jettySize=auto;html=1;entryX=0.5;entryY=0;entryDx=0;entryDy=0;fontSize=12;fontColor=#000000;startArrow=none;startFill=0;endArrow=classic;endFill=1;" edge="1" parent="1" source="or-_LWsJeg-sRYdWCB0p-451" target="or-_LWsJeg-sRYdWCB0p-446">
          <mxGeometry relative="1" as="geometry">
            <Array as="points">
              <mxPoint x="-22" y="4569" />
            </Array>
          </mxGeometry>
        </mxCell>
        <mxCell id="or-_LWsJeg-sRYdWCB0p-455" style="edgeStyle=elbowEdgeStyle;rounded=0;jumpStyle=arc;orthogonalLoop=1;jettySize=auto;html=1;entryX=0.5;entryY=0;entryDx=0;entryDy=0;fontSize=12;fontColor=#000000;startArrow=none;startFill=0;endArrow=classic;endFill=1;" edge="1" parent="1" source="or-_LWsJeg-sRYdWCB0p-451" target="or-_LWsJeg-sRYdWCB0p-448">
          <mxGeometry relative="1" as="geometry">
            <Array as="points">
              <mxPoint x="361" y="4602" />
            </Array>
          </mxGeometry>
        </mxCell>
        <mxCell id="or-_LWsJeg-sRYdWCB0p-451" value="&lt;font color=&quot;#ff1736&quot;&gt;地址置信度分层&lt;/font&gt;" style="rounded=0;whiteSpace=wrap;html=1;fontSize=12;strokeWidth=1;" vertex="1" parent="1">
          <mxGeometry x="113.84" y="4540" width="132.78" height="49" as="geometry" />
        </mxCell>
        <mxCell id="or-_LWsJeg-sRYdWCB0p-456" value="" style="rounded=0;whiteSpace=wrap;html=1;fontSize=12;fontColor=#000000;strokeColor=#9E9E9E;strokeWidth=1;fillColor=none;gradientColor=none;dashed=1;" vertex="1" parent="1">
          <mxGeometry x="-103.16" y="4596" width="568.28" height="128" as="geometry" />
        </mxCell>
      </root>
    </mxGraphModel>
  </diagram>
</mxfile>
